<svg width="48" height="48" viewBox="0 0 48 48" fill="none" xmlns="http://www.w3.org/2000/svg">
<path d="M22.6209 17.5029L16.6646 13.8023C16.4399 13.6658 16.1429 13.73 15.9984 13.9548L12.3138 19.9512C11.1499 21.8216 11.7278 24.286 13.6062 25.45C14.2324 25.8433 14.9628 26.044 15.7014 26.052C16.5041 26.052 17.2908 25.8112 17.957 25.3536L17.6279 27.3203C17.5878 27.5852 17.7644 27.8341 18.0213 27.8742C18.1417 27.8983 18.2701 27.8662 18.3745 27.7939C19.0407 27.3284 19.8676 27.1277 20.6783 27.2561C20.9432 27.2962 21.184 27.1116 21.2242 26.8547C21.2402 26.7263 21.2161 26.6059 21.1359 26.5015L19.9398 24.8479C22.1232 25.161 24.1461 23.6518 24.4592 21.4684C24.692 19.895 23.9695 18.3377 22.6209 17.5029V17.5029ZM18.7357 26.5256L18.9685 25.1289L19.7953 26.2768C19.4341 26.3089 19.0728 26.3892 18.7357 26.5256V26.5256ZM23.0945 22.4879C22.2758 23.8043 20.6061 24.278 19.2334 23.6277C19.0407 23.5394 18.832 23.5154 18.6233 23.5716C18.4146 23.6197 18.23 23.7401 18.1015 23.9087C17.1623 25.1208 15.4445 25.45 14.1119 24.6231C13.4296 24.1977 12.948 23.5234 12.7634 22.7447C12.5787 21.9661 12.7152 21.1393 13.1406 20.4569L16.5683 14.8699L22.1232 18.3136C23.5361 19.1967 23.9776 21.067 23.0945 22.4879V22.4879Z" fill="#FFC312" stroke="#FFC312" stroke-width="0.5"/>
<path d="M10.6998 13.7059L8.62074 10.1418C8.52441 9.97323 8.27557 9.94112 8.04277 9.98929C7.81801 10.0455 7.6093 10.1819 7.60127 10.3746L7.32031 14.5007V14.5649C7.36848 14.7575 7.68154 14.8298 7.89828 14.7816C8.03475 14.7495 8.12305 14.6853 8.13107 14.5568L8.17121 13.6899L9.576 13.3608L10.0014 14.1234C10.0576 14.2358 10.17 14.2518 10.3065 14.2197C10.5232 14.1715 10.7721 13.9628 10.7319 13.7702C10.7239 13.7461 10.7159 13.73 10.6998 13.7059ZM8.19529 13.0236L8.29162 11.0248L9.26293 12.7748L8.19529 13.0236Z" fill="#FFC312" stroke="#FFC312" stroke-width="0.5"/>
<path d="M35.3358 31.2136H32.6065C32.3818 31.2136 32.165 31.3742 32.165 31.5026V32.6987C32.165 32.8592 32.3978 32.9877 32.6788 32.9877C32.9517 32.9877 33.2086 32.8512 33.2086 32.6987V32.1047H34.7498V32.7468L32.8393 36.0381C32.8072 36.0862 32.7992 36.1424 32.7992 36.1986C32.7992 36.5117 33.1604 36.7284 33.4815 36.7284C33.6662 36.7284 33.7223 36.6642 33.7464 36.608L35.5446 33.1562C35.6569 32.9395 35.7773 32.6505 35.7773 32.4659V31.5026C35.7773 31.3742 35.5365 31.2136 35.3358 31.2136V31.2136Z" fill="#FFC312" stroke="#FFC312" stroke-width="0.5"/>
<path d="M34.8623 23.8285L34.7821 9.29896C34.774 7.69349 33.4656 6.40109 31.8681 6.40109C31.8601 6.40109 31.8601 6.40109 31.8521 6.40109L26.3855 6.4332L26.2891 6.0238C25.9359 4.51466 24.4188 3.57546 22.9176 3.92866L6.02008 7.87812C4.51094 8.23132 3.57174 9.74849 3.92494 11.2496L9.55211 35.2755C9.72069 36.0059 10.1702 36.624 10.8044 37.0254C11.2539 37.3064 11.7596 37.4509 12.2814 37.4509C12.4981 37.4509 12.7149 37.4268 12.9236 37.3786L15.4522 36.7846L24.1779 36.7364C25.3901 41.007 29.3235 44.1457 33.9713 44.1457C39.5824 44.1457 44.15 39.5781 44.15 33.967C44.15 28.6529 40.056 24.278 34.8623 23.8285V23.8285ZM43.1706 33.4854H40.8989C40.7946 31.9281 40.1684 30.5152 39.2051 29.4075L40.8106 27.802C42.1913 29.3272 43.0583 31.3019 43.1706 33.4854V33.4854ZM34.4529 24.7596C36.6284 24.872 38.6111 25.747 40.1363 27.1197L38.5308 28.7251C37.4231 27.7619 36.0103 27.1438 34.4529 27.0314V24.7596ZM31.8601 7.36437H31.8681C32.9438 7.36437 33.8188 8.23132 33.8188 9.30699L33.8991 23.7883C32.7351 23.7963 31.6193 23.997 30.5838 24.3663L26.6102 7.38845L31.8601 7.36437ZM27.8063 27.1197C29.3315 25.747 31.3062 24.872 33.4897 24.7596V27.0314C31.9324 27.1357 30.5195 27.7619 29.4118 28.7251L27.8063 27.1197ZM28.7294 29.4075C27.7662 30.5152 27.1481 31.9281 27.0357 33.4854H24.7639C24.8763 31.3099 25.7513 29.3272 27.124 27.802L28.7294 29.4075ZM19.6666 35.7972L23.8328 34.8259C23.8568 35.147 23.905 35.4681 23.9612 35.7812L19.6666 35.7972ZM23.7926 33.8386L12.7069 36.4394C12.2252 36.5518 11.7356 36.4715 11.3101 36.2066C10.8927 35.9498 10.5957 35.5404 10.4833 35.0587L4.86414 11.0329C4.63135 10.0455 5.24945 9.05011 6.23682 8.81732L23.1264 4.86786C24.1137 4.63507 25.1091 5.25317 25.3419 6.24054L29.6686 24.7436C26.241 26.341 23.8408 29.8169 23.7926 33.8386ZM24.7639 34.4486H27.0357C27.14 36.0059 27.7662 37.4188 28.7294 38.5265L27.124 40.132C25.7513 38.6068 24.8763 36.6241 24.7639 34.4486V34.4486ZM33.4897 43.1663C31.3143 43.054 29.3315 42.179 27.8063 40.8063L29.4118 39.2008C30.5195 40.1641 31.9324 40.7822 33.4897 40.8946V43.1663ZM27.9909 33.967C27.9909 30.6678 30.6721 27.9866 33.9713 27.9866C37.2705 27.9866 39.9517 30.6678 39.9517 33.967C39.9517 37.2662 37.2705 39.9474 33.9713 39.9474C30.6721 39.9474 27.9909 37.2662 27.9909 33.967ZM34.4529 43.1663V40.8946C36.0103 40.7902 37.4231 40.1641 38.5308 39.2008L40.1363 40.8063C38.6111 42.187 36.6284 43.054 34.4529 43.1663V43.1663ZM40.8186 40.132L39.2132 38.5265C40.1764 37.4188 40.7946 36.0059 40.9069 34.4486H43.1787C43.0583 36.6241 42.1913 38.6068 40.8186 40.132V40.132Z" fill="#FFC312" stroke="#FFC312" stroke-width="0.5"/>
</svg>
