<svg width="48" height="48" viewBox="0 0 48 48" fill="none" xmlns="http://www.w3.org/2000/svg">
<path d="M14.0374 18.6017C13.9328 18.6506 13.8405 18.7225 13.7675 18.8121C13.6945 18.9016 13.6426 19.0065 13.6158 19.1189C13.589 19.2313 13.5879 19.3483 13.6126 19.4612C13.6374 19.574 13.6873 19.6799 13.7586 19.7708C14.2984 20.4615 14.2421 20.9731 13.5616 21.5385C13.4774 21.6081 13.409 21.695 13.3611 21.7931C13.3131 21.8913 13.2867 21.9986 13.2835 22.1079C13.2804 22.2171 13.3006 22.3257 13.3428 22.4265C13.385 22.5273 13.4483 22.6179 13.5283 22.6923L16.148 25.1175C16.2873 25.2467 16.4696 25.3196 16.6596 25.3221H16.6955C16.7971 25.3171 16.8967 25.2919 16.9885 25.2479C17.0803 25.204 17.1624 25.1423 17.2301 25.0663C17.9976 24.2093 19.6016 24.1274 20.4689 24.9026C20.5918 25.0121 20.7467 25.0792 20.9107 25.094C21.0747 25.1087 21.2391 25.0703 21.3796 24.9845L24.3113 23.1937C24.4717 23.083 24.5839 22.9155 24.6253 22.7252C24.6667 22.5348 24.6341 22.3358 24.5342 22.1685C24.4343 22.0013 24.2746 21.8783 24.0873 21.8245C23.9001 21.7707 23.6994 21.7901 23.526 21.8788L21.0342 23.4137C20.3723 23.0202 19.6124 22.8223 18.8427 22.8432C18.0729 22.864 17.3249 23.1026 16.6852 23.5314L15.1503 22.1013C15.4207 21.759 15.5925 21.3493 15.647 20.9165C15.7016 20.4836 15.6368 20.0441 15.4598 19.6454L18.0795 18.4226C18.2657 18.3361 18.41 18.1791 18.4805 17.9863C18.551 17.7934 18.542 17.5804 18.4555 17.3942C18.369 17.2079 18.2121 17.0637 18.0192 16.9931C17.8263 16.9226 17.6134 16.9316 17.4271 17.0181L14.0374 18.6017Z" fill="#EDBC2B"/>
<path d="M43.0513 15.2836L32.1608 7.19189C32.0437 7.10509 31.9042 7.05346 31.7588 7.04304C31.6134 7.03262 31.468 7.06384 31.3396 7.13305L23.2735 11.4821L22.5777 10.9499C22.462 10.8616 22.3237 10.808 22.1787 10.7953C22.0338 10.7827 21.8882 10.8114 21.759 10.8783L16.5581 13.5773C16.4452 13.636 16.3486 13.722 16.2772 13.8274C16.2057 13.9328 16.1616 14.0543 16.1488 14.181C16.1328 14.3728 16.1894 14.5636 16.3074 14.7157L6.8189 19.0979C6.7014 19.1507 6.59907 19.2322 6.52134 19.3349C6.44361 19.4376 6.39298 19.5583 6.37413 19.6857C6.35527 19.8131 6.36878 19.9432 6.41343 20.0641C6.45807 20.1849 6.53241 20.2925 6.62959 20.3771L17.4407 30.0191C17.5812 30.1455 17.7634 30.2156 17.9524 30.2161C18.0873 30.2154 18.2196 30.1793 18.3361 30.1112L27.4255 24.8642L27.3897 26.3275L17.4126 32.0861L6.57075 22.439L5.54745 23.5851L16.8037 33.6032C16.9245 33.7104 17.0761 33.7769 17.2369 33.7929C17.3977 33.809 17.5594 33.7739 17.6991 33.6927L27.3437 28.126L27.3078 29.5893L16.7781 35.6677L6.28934 26.3378L5.26605 27.4839L16.1667 37.1847C16.3076 37.3102 16.4897 37.3794 16.6784 37.3791C16.8124 37.3781 16.9438 37.3419 17.0595 37.2742L27.2592 31.3903L27.2234 32.8536L16.1488 39.2492L5.66001 29.9193L4.63672 31.0654L15.5374 40.7662C15.658 40.873 15.8091 40.939 15.9693 40.9551C16.1296 40.9712 16.2908 40.9364 16.4302 40.8558L30.3138 32.8434L33.7162 30.9145C33.782 30.878 33.8415 30.8313 33.8928 30.7763L33.9439 30.7456L41.4038 27.0131L40.7079 25.6394L34.1383 28.9318L34.1767 27.4199L41.7568 23.5825L41.0609 22.2139L34.2177 25.6777L34.256 24.1556L42.4987 19.9268L41.808 18.553L34.297 22.3904L34.3353 20.9066L42.9413 16.5576C43.0582 16.4985 43.158 16.4105 43.2313 16.3019C43.3045 16.1933 43.3488 16.0678 43.3598 15.9373C43.3709 15.8067 43.3483 15.6755 43.2943 15.5562C43.2403 15.4369 43.1566 15.3333 43.0513 15.2555V15.2836ZM18.0496 28.5046L8.52524 20.0036L17.6096 15.8157L26.9139 23.3856L18.0496 28.5046ZM32.5829 29.7581L29.5565 31.5054L28.7891 31.9429L28.8249 30.4872L28.9988 23.493C29.0016 23.3758 28.9774 23.2595 28.9282 23.153C28.8789 23.0466 28.806 22.9529 28.7149 22.879L18.3054 14.401L22.0328 12.4644L32.8055 20.6994L32.5829 29.7581ZM33.8621 16.3504L31.4573 17.7446L26.6888 14.0915L28.4053 13.1807C29.6845 13.8791 31.1887 13.6438 32.3143 12.5923L33.9618 13.8715C33.7225 14.2373 33.5877 14.6616 33.5719 15.0985C33.5561 15.5353 33.66 15.9682 33.8723 16.3504H33.8621ZM33.7469 19.4945L32.7774 18.7551L35.3612 17.2535C35.4612 17.1954 35.5468 17.1156 35.6116 17.0199C35.6764 16.9242 35.7187 16.815 35.7354 16.7007C35.7522 16.5863 35.7428 16.4696 35.7082 16.3594C35.6735 16.2491 35.6143 16.1481 35.5351 16.0639C34.9365 15.4243 34.9468 14.9101 35.5761 14.2731C35.6535 14.1961 35.7136 14.1035 35.7523 14.0014C35.7911 13.8994 35.8076 13.7902 35.8009 13.6813C35.7941 13.5723 35.7641 13.4661 35.713 13.3696C35.6619 13.2731 35.5908 13.1887 35.5045 13.1219L32.6904 10.9397C32.6098 10.8774 32.5175 10.8317 32.4191 10.8054C32.3206 10.7791 32.2179 10.7727 32.1169 10.7865C32.016 10.8003 31.9187 10.8341 31.831 10.8859C31.7432 10.9376 31.6666 11.0064 31.6057 11.0881C31.2907 11.54 30.8242 11.8641 30.2908 12.0014C30.0499 12.0519 29.801 12.0489 29.5614 11.9928C29.3219 11.9367 29.0975 11.8287 28.9042 11.6765C28.7881 11.5899 28.6498 11.5379 28.5054 11.5266C28.361 11.5153 28.2163 11.5451 28.0881 11.6125L25.3431 13.0631L24.6115 12.5054L31.6389 8.7166L41.1377 15.7748L33.7469 19.4945Z" fill="#EDBC2B"/>
</svg>
