<svg width="48" height="48" viewBox="0 0 48 48" fill="none" xmlns="http://www.w3.org/2000/svg">
<path d="M7.73425 22.9843H7.66605C7.56399 22.9747 7.46485 22.945 7.37434 22.8969C7.28384 22.8487 7.20377 22.7831 7.13877 22.7039C7.07378 22.6246 7.02513 22.5332 6.99565 22.4351C6.96618 22.3369 6.95645 22.2338 6.96704 22.1319C7.30764 18.6478 8.69282 15.3479 10.9411 12.6647C13.1893 9.98138 16.1957 8.03988 19.5663 7.09458C23.9042 5.87094 28.5492 6.40043 32.5004 8.56898C36.4516 10.7375 39.3928 14.3715 40.6901 18.688C40.7468 18.8846 40.7252 19.0956 40.6299 19.2768C40.5346 19.4579 40.3729 19.5951 40.1787 19.6598C40.0807 19.6899 39.9778 19.7004 39.8758 19.6905C39.7738 19.6807 39.6747 19.6507 39.5843 19.6024C39.494 19.554 39.4141 19.4882 39.3493 19.4088C39.2845 19.3294 39.2361 19.238 39.2069 19.1398C38.026 15.2174 35.3536 11.9148 31.7641 9.94148C28.1745 7.96816 23.954 7.48161 20.0096 8.58638C16.934 9.44211 14.1895 11.2087 12.1369 13.6538C10.0844 16.0989 8.81996 19.108 8.50998 22.2853C8.49089 22.4775 8.4008 22.6556 8.25734 22.7849C8.11388 22.9142 7.92736 22.9853 7.73425 22.9843V22.9843Z" fill="#EDBC2B"/>
<path d="M7.3855 23.5555C7.32994 23.5439 7.27568 23.5267 7.22353 23.5043C7.09648 23.4691 6.9805 23.4021 6.88653 23.3097C6.79256 23.2172 6.72372 23.1023 6.68649 22.9758L4.66617 16.3693C4.6379 16.2697 4.62987 16.1654 4.64256 16.0626C4.65524 15.9598 4.68838 15.8606 4.74003 15.7708C4.79167 15.681 4.86077 15.6025 4.94325 15.5398C5.02573 15.4772 5.11992 15.4317 5.22027 15.406C5.41806 15.3504 5.62979 15.3746 5.80993 15.4734C5.99006 15.5722 6.12422 15.7378 6.18354 15.9345L7.7691 21.3476L11.8609 17.4604C11.9322 17.3883 12.0172 17.331 12.1108 17.2919C12.2045 17.2528 12.305 17.2326 12.4065 17.2326C12.5079 17.2326 12.6084 17.2528 12.7021 17.2919C12.7957 17.331 12.8807 17.3883 12.952 17.4604C13.0252 17.5312 13.0835 17.616 13.1232 17.7097C13.163 17.8034 13.1835 17.9042 13.1835 18.006C13.1835 18.1078 13.163 18.2086 13.1232 18.3023C13.0835 18.3961 13.0252 18.4808 12.952 18.5516L7.92255 23.3424C7.77671 23.4784 7.58495 23.5545 7.3855 23.5555V23.5555Z" fill="#EDBC2B"/>
<path d="M23.8793 41.5508C20.1054 41.5434 16.4378 40.3 13.4374 38.0108C10.437 35.7217 8.26903 32.5127 7.26502 28.8748C7.23534 28.7769 7.22579 28.6739 7.23693 28.5722C7.24808 28.4705 7.27968 28.372 7.32986 28.2828C7.38003 28.1937 7.44773 28.1155 7.52888 28.0532C7.61003 27.9908 7.70295 27.9455 7.80206 27.92C7.99981 27.8673 8.21036 27.8939 8.38874 27.9943C8.56712 28.0946 8.69922 28.2607 8.75681 28.4571C9.30492 30.4484 10.2403 32.3121 11.5094 33.9416C12.7785 35.5711 14.3565 36.9343 16.153 37.9533C17.9495 38.9723 19.9293 39.6271 21.9792 39.8801C24.029 40.1332 26.1086 39.9796 28.099 39.4282C31.1772 38.5743 33.9248 36.8087 35.9804 34.3636C38.036 31.9184 39.3033 28.9083 39.6157 25.7292C39.6229 25.6263 39.6512 25.5259 39.6986 25.4343C39.746 25.3426 39.8116 25.2616 39.8914 25.1962C39.9712 25.1308 40.0635 25.0823 40.1626 25.0538C40.2618 25.0252 40.3657 25.0172 40.4681 25.0302C40.5702 25.0398 40.6693 25.0695 40.7598 25.1177C40.8503 25.1658 40.9304 25.2314 40.9954 25.3107C41.0604 25.3899 41.109 25.4813 41.1385 25.5795C41.168 25.6777 41.1777 25.7807 41.1671 25.8827C40.7589 30.18 38.7593 34.1695 35.5608 37.0683C32.3624 39.9671 28.196 41.5659 23.8793 41.5508V41.5508Z" fill="#EDBC2B"/>
<path d="M42.6434 32.634C42.4755 32.6341 42.312 32.5803 42.177 32.4806C42.042 32.3809 41.9425 32.2404 41.8932 32.0799L40.3077 26.6669L36.2073 30.554C36.0607 30.6983 35.8632 30.7791 35.6575 30.7791C35.4518 30.7791 35.2544 30.6983 35.1077 30.554C35.0355 30.4827 34.9782 30.3977 34.9391 30.3041C34.9 30.2104 34.8799 30.11 34.8799 30.0085C34.8799 29.907 34.9 29.8065 34.9391 29.7129C34.9782 29.6192 35.0355 29.5343 35.1077 29.4629L40.1116 24.7062C40.2078 24.6146 40.3258 24.5492 40.4545 24.5163C40.5832 24.4835 40.7182 24.4842 40.8465 24.5184C40.9748 24.5526 41.0922 24.6192 41.1874 24.7118C41.2826 24.8044 41.3525 24.9199 41.3903 25.0472L43.3339 31.6793C43.3893 31.876 43.3648 32.0865 43.2659 32.2653C43.1669 32.4441 43.0014 32.5766 42.8053 32.634C42.7516 32.6411 42.6971 32.6411 42.6434 32.634V32.634Z" fill="#EDBC2B"/>
<path d="M24.1787 35.1063C18.8423 35.1063 16.66 34.5351 15.5263 32.8814C14.7505 31.7561 14.4607 29.1391 14.8613 26.9142C14.9698 26.0626 15.2456 25.2408 15.6727 24.4962C16.0999 23.7515 16.6701 23.0987 17.3505 22.5752C18.873 21.5551 20.2057 20.2771 21.2889 18.7988L21.4849 16.9831L20.3341 13.0788C20.2851 12.9244 20.2867 12.7584 20.3389 12.605C20.391 12.4516 20.4909 12.3189 20.6239 12.2264C20.7544 12.1327 20.9109 12.0823 21.0715 12.0823C21.2321 12.0823 21.3886 12.1327 21.519 12.2264C22.3259 12.7576 23.2509 13.0825 24.2128 13.1726C25.1475 13.0679 26.0442 12.7436 26.8298 12.2264C26.9614 12.1361 27.1177 12.0885 27.2774 12.0903C27.437 12.0921 27.5922 12.1431 27.7218 12.2363C27.8514 12.3295 27.949 12.4605 28.0015 12.6112C28.0539 12.762 28.0585 12.9253 28.0147 13.0788L26.8639 16.9831L27.06 18.7988C28.1378 20.2817 29.4715 21.5605 30.9983 22.5752C31.6801 23.0974 32.2512 23.7499 32.6786 24.4948C33.1059 25.2396 33.3808 26.0621 33.4875 26.9142C33.8967 29.1391 33.6068 31.7561 32.8311 32.8814C31.6888 34.5351 29.5065 35.0892 24.1787 35.1063ZM22.3203 14.332L23.0108 16.6847C23.0283 16.7834 23.0283 16.8844 23.0108 16.9831L22.7806 19.1398C22.7698 19.2523 22.7317 19.3606 22.6698 19.4552C21.4848 21.1987 19.9667 22.6907 18.203 23.8453C17.1812 24.68 16.5215 25.8773 16.3617 27.187C15.9866 29.2499 16.3617 31.3725 16.7708 31.9948C17.5466 33.1115 19.5498 33.5377 24.1531 33.5463C28.7564 33.5548 30.7511 33.1115 31.5268 31.9948C31.9531 31.3725 32.3111 29.2499 31.936 27.187C31.7784 25.8786 31.1218 24.6815 30.1032 23.8453C28.3358 22.6923 26.8147 21.2001 25.6278 19.4552C25.5704 19.3584 25.5328 19.2512 25.517 19.1398L25.2869 16.9831C25.2693 16.8844 25.2693 16.7834 25.2869 16.6847L25.9859 14.332C25.4002 14.5497 24.7854 14.679 24.1616 14.7156C23.5327 14.6765 22.9126 14.5473 22.3203 14.332Z" fill="#EDBC2B"/>
<path d="M25.006 30.5371H22.0736C21.8678 30.5371 21.6705 30.4554 21.5251 30.3099C21.3796 30.1644 21.2979 29.9671 21.2979 29.7614C21.2979 29.5557 21.3796 29.3583 21.5251 29.2129C21.6705 29.0674 21.8678 28.9857 22.0736 28.9857H25.006C25.0717 28.9857 25.1367 28.9726 25.1972 28.9472C25.2578 28.9218 25.3127 28.8847 25.3587 28.8378C25.4047 28.791 25.441 28.7355 25.4653 28.6745C25.4896 28.6136 25.5016 28.5484 25.5005 28.4827C25.5005 28.3508 25.4487 28.2241 25.3562 28.1301C25.2637 28.036 25.1379 27.982 25.006 27.9798H23.3523C22.8247 27.9459 22.3299 27.7125 21.9683 27.327C21.6066 26.9414 21.4054 26.4326 21.4054 25.904C21.4054 25.3754 21.6066 24.8666 21.9683 24.4811C22.3299 24.0955 22.8247 23.8621 23.3523 23.8283H26.2762C26.4819 23.8283 26.6792 23.91 26.8247 24.0555C26.9702 24.201 27.0519 24.3983 27.0519 24.604C27.0519 24.8098 26.9702 25.0071 26.8247 25.1526C26.6792 25.298 26.4819 25.3798 26.2762 25.3798H23.3523C23.2859 25.3786 23.22 25.3908 23.1584 25.4157C23.0969 25.4406 23.041 25.4776 22.9941 25.5245C22.9471 25.5714 22.9101 25.6274 22.8853 25.6889C22.8604 25.7504 22.8482 25.8164 22.8493 25.8827C22.8447 25.952 22.8542 26.0215 22.8773 26.087C22.9004 26.1524 22.9365 26.2125 22.9836 26.2636C23.0306 26.3146 23.0876 26.3555 23.151 26.3838C23.2144 26.4122 23.2829 26.4273 23.3523 26.4283H25.006C25.5509 26.4283 26.0734 26.6447 26.4587 27.03C26.844 27.4153 27.0604 27.9378 27.0604 28.4827C27.0604 29.0276 26.844 29.5501 26.4587 29.9354C26.0734 30.3207 25.5509 30.5371 25.006 30.5371V30.5371Z" fill="#EDBC2B"/>
<path d="M24.1791 32.3356C23.9733 32.3356 23.776 32.2539 23.6305 32.1084C23.485 31.9629 23.4033 31.7656 23.4033 31.5599V29.7612C23.4033 29.5555 23.485 29.3582 23.6305 29.2127C23.776 29.0672 23.9733 28.9855 24.1791 28.9855C24.3848 28.9855 24.5821 29.0672 24.7276 29.2127C24.8731 29.3582 24.9548 29.5555 24.9548 29.7612V31.5599C24.9548 31.6618 24.9347 31.7626 24.8957 31.8567C24.8568 31.9509 24.7996 32.0364 24.7276 32.1084C24.6555 32.1804 24.57 32.2376 24.4759 32.2766C24.3818 32.3156 24.2809 32.3356 24.1791 32.3356V32.3356Z" fill="#EDBC2B"/>
<path d="M24.1791 25.3029C24.0776 25.3041 23.9769 25.285 23.8828 25.247C23.7888 25.2089 23.7032 25.1526 23.631 25.0813C23.5589 25.0099 23.5016 24.9249 23.4625 24.8313C23.4234 24.7377 23.4033 24.6372 23.4033 24.5357V22.9672C23.4033 22.7615 23.485 22.5642 23.6305 22.4187C23.776 22.2732 23.9733 22.1915 24.1791 22.1915C24.3848 22.1915 24.5821 22.2732 24.7276 22.4187C24.8731 22.5642 24.9548 22.7615 24.9548 22.9672V24.5357C24.9548 24.6372 24.9347 24.7377 24.8956 24.8313C24.8565 24.9249 24.7992 25.0099 24.7271 25.0813C24.6549 25.1526 24.5693 25.2089 24.4753 25.247C24.3812 25.285 24.2805 25.3041 24.1791 25.3029V25.3029Z" fill="#EDBC2B"/>
<path d="M25.9768 18.8584H22.2857C22.1775 18.8697 22.0682 18.8583 21.9648 18.8247C21.8614 18.7911 21.7662 18.7362 21.6854 18.6634C21.6046 18.5907 21.54 18.5018 21.4958 18.4024C21.4516 18.3031 21.4287 18.1956 21.4287 18.0869C21.4287 17.9782 21.4516 17.8707 21.4958 17.7713C21.54 17.672 21.6046 17.5831 21.6854 17.5104C21.7662 17.4376 21.8614 17.3827 21.9648 17.3491C22.0682 17.3155 22.1775 17.304 22.2857 17.3154H25.9768C26.0849 17.304 26.1942 17.3155 26.2976 17.3491C26.401 17.3827 26.4962 17.4376 26.577 17.5104C26.6578 17.5831 26.7224 17.672 26.7666 17.7713C26.8109 17.8707 26.8337 17.9782 26.8337 18.0869C26.8337 18.1956 26.8109 18.3031 26.7666 18.4024C26.7224 18.5018 26.6578 18.5907 26.577 18.6634C26.4962 18.7362 26.401 18.7911 26.2976 18.8247C26.1942 18.8583 26.0849 18.8697 25.9768 18.8584V18.8584Z" fill="#EDBC2B"/>
</svg>
