<svg width="910" height="36" viewBox="0 0 910 36" fill="none" xmlns="http://www.w3.org/2000/svg">
<g opacity="0.5">
<path d="M558.817 29.7761C559.314 29.4136 559.63 28.87 559.63 28.2365V8.75882C559.63 8.12424 559.314 7.58055 558.817 7.21809H592.045C593.129 7.21809 593.987 8.07935 593.987 9.07555V27.9189C593.987 28.9608 593.129 29.7761 592.045 29.7761H558.817ZM587.847 17.2744V20.8075H588.75V18.6785C588.75 18.5427 588.75 18.4521 588.795 18.3615C588.795 18.3163 588.885 18.2257 588.93 18.1802C589.021 18.1351 589.065 18.1351 589.156 18.0896C589.291 18.0444 589.336 18.0444 589.427 18.0444H589.698V17.1837H589.517C589.336 17.1837 589.201 17.2289 589.065 17.3195C588.93 17.4101 588.795 17.5914 588.705 17.7274V17.2744H587.847V17.2744ZM585.589 19.1767V19.2673H587.395V19.0409C587.395 18.7239 587.395 18.4972 587.35 18.2708C587.305 18.0896 587.26 17.8632 587.169 17.7274C587.079 17.5916 586.899 17.4556 586.763 17.365C586.583 17.2744 586.402 17.2292 586.131 17.2292C585.815 17.2292 585.544 17.2744 585.363 17.365C585.183 17.4556 585.002 17.6365 584.912 17.7726C584.822 17.9538 584.732 18.1351 584.732 18.3615C584.732 18.5879 584.686 18.8145 584.686 19.0409C584.686 19.2673 584.732 19.494 584.732 19.7204C584.732 19.9468 584.777 20.128 584.867 20.3092C584.958 20.4905 585.093 20.6263 585.273 20.762C585.454 20.8527 585.679 20.8978 586.041 20.8978C586.447 20.8978 586.763 20.8075 586.989 20.5811C587.215 20.3544 587.305 20.0374 587.35 19.6298H586.538C586.538 19.8562 586.447 19.9922 586.402 20.128C586.312 20.2186 586.176 20.2638 586.041 20.2638C585.95 20.2638 585.861 20.2638 585.815 20.2186C585.77 20.1732 585.725 20.0829 585.68 20.0374C585.68 19.9468 585.635 19.8562 585.635 19.7658C585.589 19.6749 585.589 19.5392 585.589 19.4486V19.177V19.1767ZM586.492 18.6333H585.589V18.4975C585.589 18.3615 585.635 18.3163 585.635 18.2257C585.635 18.1351 585.635 18.0444 585.68 17.999L585.815 17.8632C585.905 17.8632 585.95 17.8178 586.041 17.8178C586.131 17.8178 586.221 17.8178 586.267 17.8632C586.312 17.8632 586.357 17.9538 586.402 17.999C586.402 18.0896 586.447 18.1802 586.447 18.2708C586.492 18.3615 586.492 18.4972 586.492 18.6333V18.6333ZM583.061 17.8629V20.8529H583.964V17.9081H584.506V17.2741H583.964V16.9571C583.964 16.8665 584.009 16.7758 584.055 16.7304C584.1 16.7304 584.19 16.6852 584.325 16.6852H584.506V16.006C584.325 15.9609 584.145 15.9609 584.009 15.9609C583.874 15.9609 583.738 16.006 583.603 16.006C583.467 16.006 583.378 16.0966 583.287 16.1418C583.196 16.2324 583.152 16.2776 583.106 16.4137C583.106 16.5494 583.061 16.6852 583.061 16.8213V17.2289H582.61V17.8632H583.061V17.8629ZM580.623 19.6298H579.856V19.7656C579.856 19.9468 579.856 20.0829 579.901 20.2186C579.992 20.3544 580.036 20.4902 580.127 20.5811C580.217 20.6717 580.397 20.762 580.533 20.8075C580.713 20.8075 580.895 20.8527 581.165 20.8527C581.346 20.8527 581.572 20.8527 581.707 20.8075C581.842 20.762 581.977 20.7169 582.113 20.6263C582.249 20.5356 582.339 20.3999 582.384 20.2638C582.429 20.128 582.475 19.9468 582.475 19.7656C582.475 19.494 582.429 19.2673 582.294 19.1315C582.203 18.9958 581.978 18.86 581.707 18.7691L581.165 18.5879C580.984 18.5427 580.894 18.5427 580.849 18.4066C580.804 18.2708 580.759 18.2257 580.759 18.1351C580.759 17.9993 580.804 17.9084 580.894 17.8632C580.984 17.8178 581.075 17.7726 581.21 17.7726C581.391 17.7726 581.481 17.8178 581.526 17.9084C581.572 17.999 581.616 18.1351 581.616 18.3163H582.429V18.1805C582.429 17.8632 582.294 17.5914 582.113 17.4101C581.932 17.2289 581.616 17.1386 581.21 17.1386C580.984 17.1386 580.759 17.1837 580.623 17.2289C580.488 17.2744 580.307 17.3647 580.217 17.4556C580.116 17.5581 580.039 17.6818 579.992 17.8178C579.992 17.9536 579.946 18.0896 579.946 18.2257C579.946 18.4972 579.992 18.7239 580.127 18.8597C580.217 18.9955 580.397 19.1313 580.669 19.2222L581.3 19.4486C581.391 19.494 581.481 19.5392 581.526 19.5843C581.572 19.6749 581.616 19.7201 581.616 19.8562C581.616 19.992 581.572 20.128 581.481 20.1732C581.391 20.2186 581.255 20.2638 581.12 20.2638C580.939 20.2638 580.849 20.2186 580.759 20.128C580.669 20.0374 580.623 19.9016 580.623 19.7656V19.6298V19.6298ZM576.65 17.2744L576.606 20.8981H577.509V18.5427C577.509 18.1351 577.644 17.9538 577.96 17.9538C578.14 17.9538 578.231 17.999 578.276 18.0444C578.321 18.0896 578.366 18.2257 578.366 18.4066V20.8527H579.269V18.2257C579.269 17.8632 579.178 17.5914 579.043 17.4553C578.908 17.2744 578.682 17.1837 578.411 17.1837C578.231 17.1837 578.005 17.2744 577.869 17.3195C577.734 17.365 577.599 17.5008 577.509 17.682V17.2744H576.65V17.2744ZM573.49 18.3615H574.258V18.2708C574.258 18.0896 574.303 17.9993 574.348 17.9084C574.393 17.8178 574.528 17.7726 574.664 17.7726C574.8 17.7726 574.934 17.8632 574.98 17.9084C575.025 17.9538 575.07 18.0896 575.07 18.2257C575.07 18.3615 575.025 18.4521 574.98 18.4972C574.935 18.5427 574.844 18.5879 574.709 18.633L574.212 18.7691L573.806 18.9049C573.671 18.9955 573.58 19.0406 573.535 19.1315C573.482 19.2336 573.437 19.3396 573.4 19.4486C573.4 19.5843 573.355 19.7656 573.355 19.9016C573.355 19.9922 573.355 20.128 573.4 20.2638C573.4 20.3544 573.445 20.4905 573.535 20.5811C573.625 20.6717 573.671 20.762 573.806 20.8075C573.941 20.8527 574.077 20.8981 574.212 20.8981C574.438 20.8981 574.619 20.8527 574.754 20.8075C574.889 20.762 575.025 20.6263 575.115 20.445C575.115 20.4905 575.16 20.5808 575.16 20.6263C575.16 20.6717 575.16 20.762 575.206 20.8075H576.109C576.063 20.6717 576.018 20.5811 576.018 20.4905C575.973 20.445 575.973 20.2638 575.973 20.128V18.2708C575.973 18.0896 575.973 17.9538 575.928 17.8178C575.883 17.682 575.838 17.5462 575.747 17.4556C575.703 17.365 575.522 17.2744 575.386 17.2289C575.251 17.1837 575.025 17.1386 574.754 17.1386C574.574 17.1386 574.393 17.1386 574.258 17.1837C574.122 17.2289 573.987 17.2744 573.851 17.365C573.716 17.4556 573.625 17.5914 573.58 17.7274C573.535 17.9084 573.49 18.0444 573.49 18.2708V18.3615V18.3615ZM575.115 19.0409V19.7204C575.115 19.8562 575.115 19.9468 575.07 19.992C575.025 20.0374 574.98 20.0829 574.935 20.128C574.889 20.1732 574.8 20.1732 574.754 20.2186C574.709 20.2638 574.619 20.2638 574.574 20.2638C574.438 20.2638 574.348 20.2186 574.303 20.128C574.258 20.0374 574.212 19.9016 574.212 19.7656C574.212 19.6298 574.258 19.494 574.348 19.4034C574.438 19.3128 574.574 19.2676 574.754 19.2222C574.8 19.2222 574.889 19.2222 574.935 19.1767C574.98 19.1315 575.07 19.0861 575.115 19.0409V19.0409ZM571.278 17.2744V20.8075H572.181V18.6785C572.181 18.5427 572.181 18.4521 572.226 18.3615C572.226 18.3163 572.317 18.2257 572.361 18.1802C572.452 18.1351 572.497 18.1351 572.587 18.0896C572.722 18.0444 572.768 18.0444 572.858 18.0444H573.129V17.1837H572.948C572.768 17.1837 572.632 17.2289 572.497 17.3195C572.361 17.4101 572.226 17.5914 572.136 17.7274V17.2744H571.278V17.2744ZM571.414 16.0966H568.389V16.8667H569.427V20.8072H570.375V16.8667H571.414V16.0964L571.414 16.0966ZM566.176 19.2673H568.028V18.4972H566.176V19.2676V19.2673ZM563.919 19.1767V19.2673H565.725V19.0409C565.725 18.7239 565.725 18.4972 565.68 18.2708C565.635 18.0896 565.59 17.8632 565.499 17.7274C565.409 17.5916 565.229 17.4556 565.093 17.365C564.912 17.2744 564.732 17.2292 564.461 17.2292C564.145 17.2292 563.874 17.2744 563.694 17.365C563.513 17.4556 563.332 17.6365 563.242 17.7726C563.152 17.9538 563.061 18.1351 563.061 18.3615C563.061 18.5879 563.016 18.8145 563.016 19.0409C563.016 19.2673 563.061 19.494 563.061 19.7204C563.061 19.9468 563.107 20.128 563.197 20.3092C563.287 20.4905 563.423 20.6263 563.603 20.762C563.784 20.8527 564.009 20.8978 564.371 20.8978C564.777 20.8978 565.138 20.8075 565.319 20.5811C565.545 20.3544 565.635 20.0374 565.68 19.6298H564.867C564.867 19.8562 564.777 19.9922 564.732 20.128C564.642 20.2186 564.506 20.2638 564.371 20.2638C564.28 20.2638 564.19 20.2638 564.145 20.2186C564.1 20.1732 564.055 20.0829 564.01 20.0374C564.01 19.9468 563.964 19.8562 563.964 19.7658C563.919 19.6749 563.919 19.5392 563.919 19.4486V19.177V19.1767ZM564.867 18.6333H563.964V18.4975C563.964 18.3615 564.009 18.3163 564.009 18.2257C564.009 18.1351 564.009 18.0444 564.055 17.999L564.19 17.8632C564.28 17.8632 564.325 17.8178 564.416 17.8178C564.506 17.8178 564.596 17.8178 564.642 17.8632C564.687 17.8632 564.732 17.9538 564.777 17.999C564.777 18.0896 564.822 18.1802 564.822 18.2708C564.867 18.3615 564.867 18.4972 564.867 18.6333V18.6333Z" fill="#EBEBEB"/>
<path d="M558.772 27.7831C558.772 28.8251 557.915 29.6403 556.921 29.6403H538.095C537.057 29.6403 536.244 28.7796 536.244 27.7831V8.8946C536.244 7.85267 537.102 7.03741 538.095 7.03741H556.921C557.96 7.03741 558.772 7.89811 558.772 8.8946V27.7831ZM548.795 18.5878L549.879 18.3163V16.0512C549.879 15.553 550.104 15.1908 550.465 15.0547C550.736 14.9189 551.007 14.9189 551.007 14.9189V13.877C551.007 13.877 550.917 13.877 550.736 13.9225C550.104 14.1034 549.833 14.7829 549.833 14.7829V14.2395L548.795 14.511V18.5878H548.795ZM543.197 19.9468L544.416 19.7204C544.416 19.7204 544.145 19.5392 544.145 18.5878V16.504L544.958 16.2779V15.4172L544.19 15.5984V14.6923L543.061 14.9641V15.8702L542.52 16.006V16.8667L543.061 16.7309V18.7691C543.061 19.6752 543.197 19.9468 543.197 19.9468V19.9468ZM546.718 15.689C547.125 15.6436 547.26 15.8702 547.26 16.2779V16.4591L546.177 16.7307C546.177 16.1418 546.357 15.7796 546.718 15.6887V15.689ZM545.093 17.5462C545.093 18.7239 545.409 19.5392 546.718 19.2221C548.118 18.9051 548.253 17.9087 548.253 17.5462V17.365L547.26 17.6365V17.7726C547.215 18.0442 547.125 18.2708 546.763 18.3615C546.357 18.4521 546.222 18.1351 546.222 17.4553V17.4101L548.389 16.9119V16.3685C548.389 15.372 547.937 14.6471 546.718 14.9189C546.086 15.1002 545.68 15.4172 545.409 15.8702C545.183 16.2776 545.093 16.8213 545.093 17.5462V17.5462ZM554.845 15.1453C554.89 16.4137 555.161 17.2292 556.515 16.8665C557.508 16.5949 558.05 15.9606 558.05 14.9189V14.7831L557.012 15.0547V15.2811C557.012 15.5984 556.967 15.9606 556.56 16.0515C556.109 16.1873 556.019 15.7794 556.019 15.0095V14.6471C556.019 13.877 556.154 13.4694 556.56 13.3788C556.876 13.2881 557.012 13.4694 557.012 13.9222V14.058L558.095 13.7864V13.7412C558.095 13.3333 558.005 13.0618 557.87 12.8351C557.734 12.6087 557.373 12.3823 556.515 12.5635C555.116 12.8805 554.8 13.877 554.845 15.1453V15.1453ZM553.219 15.5984L553.174 16.1418C553.174 16.5494 552.994 16.8665 552.632 16.9571C552.316 17.0477 552.181 16.8665 552.181 16.5949C552.181 16.2776 552.362 16.0966 552.678 15.9154C552.994 15.7342 553.219 15.5984 553.219 15.5984V15.5984ZM551.052 16.8665C551.052 17.5914 551.504 18.0896 552.271 17.9084C553.039 17.682 553.265 17.1383 553.265 17.1383C553.31 17.3195 553.4 17.5008 553.4 17.5008L554.438 17.2744C554.438 17.2744 554.303 17.1386 554.303 16.2776V14.4659C554.303 13.6958 553.942 13.1975 552.813 13.4694C551.91 13.6958 551.414 14.1034 551.278 14.6471C551.188 14.9641 551.233 15.2811 551.233 15.2811L552.271 15.0095V14.7829C552.271 14.6016 552.362 14.3301 552.723 14.2395C553.084 14.1488 553.174 14.3301 553.174 14.5565C553.174 14.828 553.174 14.9641 552.407 15.2811C551.594 15.5984 551.052 15.9154 551.052 16.8665V16.8665ZM537.328 22.8007C537.373 22.8007 537.418 22.7553 537.328 22.8007C537.463 22.7553 537.87 22.6649 538.231 22.5741H538.276V21.4418L536.786 21.804C536.741 21.8946 536.696 22.0306 536.696 22.1664C536.696 22.4834 536.966 22.8007 537.328 22.8007V22.8007ZM537.328 24.3406C537.373 24.3406 537.418 24.2955 537.328 24.3406C537.463 24.3406 537.87 24.25 538.231 24.1594H538.276V22.9817L536.786 23.3441C536.741 23.4348 536.696 23.5705 536.696 23.7066C536.696 24.0236 536.966 24.3406 537.328 24.3406V24.3406ZM537.328 25.8356H537.418C537.508 25.8356 537.915 25.745 538.276 25.6544H538.321V24.4767L536.786 24.8391C536.741 24.9298 536.696 25.0655 536.696 25.2013C536.696 25.5186 536.966 25.8356 537.328 25.8356V25.8356ZM537.147 21.3509L538.321 21.0793V14.6019L537.147 14.8735V21.3509V21.3509ZM540.082 20.8075C540.082 20.3996 539.721 20.0826 539.314 20.0826C538.908 20.0826 538.547 20.3996 538.547 20.8075V26.877C538.547 27.9644 539.45 28.8251 540.533 28.8251H542.61V23.4796C542.61 23.1626 542.475 22.8453 542.158 22.7096L540.307 21.4412V24.2949C540.307 24.3855 540.262 24.4307 540.172 24.4307C540.082 24.4307 540.037 24.3855 540.037 24.2949C540.082 24.2949 540.082 21.2148 540.082 20.8072V20.8075ZM541.12 16.2776C540.352 16.4588 540.082 17.0931 540.082 17.0931V16.6401L539.043 16.9116V19.8562C539.179 19.8107 539.314 19.8107 539.45 19.8107C539.72 19.8107 539.991 19.9013 540.172 20.0826V18.1802C540.172 17.7272 540.398 17.365 540.714 17.3195C540.984 17.2744 541.165 17.365 541.165 17.7726V20.5354L542.294 20.2638V17.3195C542.249 16.5494 541.978 16.0512 541.12 16.2776H541.12ZM557.418 10.8421C557.734 10.8421 558.005 11.1137 558.05 11.4764C558.05 11.8386 557.779 12.1104 557.418 12.1104C557.057 12.1104 556.786 11.8389 556.786 11.4764C556.786 11.114 557.057 10.8421 557.418 10.8421V10.8421ZM557.418 12.1556C557.779 12.1556 558.095 11.8386 558.14 11.431C558.141 11.3355 558.124 11.2407 558.088 11.1522C558.052 11.0637 557.999 10.9834 557.931 10.9158C557.864 10.8483 557.784 10.795 557.696 10.759C557.608 10.723 557.513 10.7051 557.418 10.7063C557.012 10.7063 556.696 11.0685 556.696 11.431C556.696 11.8386 557.057 12.1556 557.418 12.1556ZM557.373 11.3404H557.237V11.0688H557.373C557.463 11.0688 557.508 11.114 557.508 11.2046C557.508 11.2952 557.463 11.3404 557.373 11.3404ZM557.147 10.933H557.102V11.7028H557.237V11.3404H557.418C557.508 11.3404 557.553 11.3858 557.553 11.4761V11.6122L557.599 11.6576H557.734C557.734 11.6576 557.689 11.6576 557.689 11.6122V11.4764C557.689 11.3858 557.644 11.3406 557.554 11.3406C557.644 11.3406 557.689 11.2497 557.689 11.1591C557.689 10.9782 557.599 10.9327 557.463 10.9327H557.147V10.933Z" fill="white"/>
<path d="M849.338 24.4839V13.5887H845.361V11H856.177V13.5887H852.2V24.4839H849.338Z" fill="white"/>
<path d="M855.727 24.4839V14.7016H858.359V16.25C858.982 14.9355 859.786 14.7016 860.647 14.7016H861.663V17.3226H860.802C859.564 17.3226 858.457 18.0242 858.457 20.1694V24.4919H855.727V24.4839ZM862.902 20.9032V14.7016H865.624V20.2984C865.624 21.4436 866.19 22.2903 867.354 22.2903C868.478 22.2903 869.191 21.4436 869.191 20.3145V14.7016H871.913V24.4919H869.322V23.2581C868.666 24.2339 867.69 24.7178 866.452 24.7178C864.271 24.7097 862.902 23.2339 862.902 20.9032V20.9032ZM873.078 21.7339L875.448 21.2016C875.562 21.9597 876.177 22.5323 877.366 22.5323C878.285 22.5323 878.793 22.1613 878.793 21.7016C878.793 21.3307 878.588 21.0565 877.645 20.8548L876.087 20.5242C874.095 20.0968 873.25 19.1936 873.25 17.5484C873.25 15.871 874.66 14.5161 877.309 14.5161C880.122 14.5161 881.253 16.1774 881.368 17.2661L878.982 17.7823C878.867 17.2097 878.441 16.5807 877.252 16.5807C876.497 16.5807 875.94 16.9113 875.94 17.3952C875.94 17.7984 876.218 18.0242 876.71 18.1371L878.982 18.6532C880.712 19.0403 881.516 20.0565 881.516 21.5C881.516 23.0484 880.261 24.6774 877.383 24.6774C874.218 24.6694 873.184 22.8065 873.078 21.7339V21.7339ZM886.747 24.4839C884.984 24.4839 883.803 23.5242 883.803 21.621V17.0403H882.131V14.6936H883.803V12.5161L886.526 11.7419V14.6936H888.535V17.0403H886.526V21.1371C886.526 21.8548 886.903 22.1371 887.633 22.1371H888.682V24.4839H886.747ZM890.158 24.4839V11.0081H892.881V24.4919H890.158V24.4839ZM901.089 14.7016H904L899.851 28H896.94L898.088 24.4919H896.587L893.848 14.7016H896.759L898.809 22.2742L901.089 14.7016ZM822 16.9113H828.388V11.8952L833.488 16.9113L828.388 21.9194V24.4839H834.579V16.9113H840.261V11.0081H822V16.9113Z" fill="white"/>
<path fill-rule="evenodd" clip-rule="evenodd" d="M623.395 19.4849C623.395 19.8797 623.395 20.2745 623.395 20.6693C623.395 22.3184 623.388 23.9674 623.4 25.6163C623.403 25.9922 623.307 26.1875 622.877 26.1761C622.076 26.1549 621.274 26.1622 620.473 26.1736C620.119 26.1786 619.999 26.0344 620 25.6908C620.008 22.0093 620.007 18.3278 620.003 14.6463C620.002 14.1571 620.257 13.8103 620.608 13.5187C621.599 12.6962 623.289 12.9745 623.923 14.0833C624.792 15.6026 625.571 17.1679 626.339 18.7381C626.439 18.9426 626.555 19.1396 626.666 19.3448C626.896 19.2428 626.799 19.0665 626.799 18.9383C626.807 17.3083 626.804 15.6785 626.805 14.0487C626.805 13.2881 626.806 13.2879 627.608 13.2872C628.214 13.2868 628.824 13.3245 629.425 13.2764C630.009 13.2298 630.203 13.399 630.192 14.0001C630.154 16.0702 630.177 18.1414 630.177 20.2123C630.177 21.6504 630.179 23.0885 630.176 24.5266C630.175 25.367 629.739 26.0249 629.021 26.2851C628.255 26.5629 627.495 26.3462 626.919 25.6866C626.586 25.3047 626.347 24.865 626.115 24.422C625.25 22.7713 624.389 21.1183 623.527 19.4662C623.483 19.4725 623.439 19.4787 623.395 19.4849Z" fill="white"/>
<path fill-rule="evenodd" clip-rule="evenodd" d="M637.59 18.388C636.693 17.9343 635.625 18.2074 635.076 19.027C634.425 19.9979 634.463 21.3893 635.167 22.3275C635.777 23.1398 636.908 23.3658 637.906 22.8674C638.516 22.5631 638.968 22.0997 639.313 21.523C639.844 20.6367 639.687 20.7484 640.579 21.1762C641.087 21.42 641.588 21.6804 642.093 21.9307C642.353 22.0596 642.482 22.2132 642.336 22.5234C641.108 25.1429 638.651 26.8975 635.396 26.3291C634.491 26.1711 633.685 25.7577 633.035 25.1292C631.426 23.5713 630.633 21.6978 631.248 19.4967C631.891 17.1984 633.459 15.7026 635.888 15.3113C637.642 15.0288 639.21 15.5795 640.461 16.8658C640.908 17.3253 641.252 17.8618 641.608 18.3892C641.798 18.6695 641.761 18.8538 641.467 19.0519C639.955 20.0724 638.449 21.1022 636.954 22.1474C636.594 22.3991 636.365 22.4217 636.131 22.0019C635.87 21.5322 635.572 21.0784 635.252 20.6453C635.004 20.3105 635.089 20.1025 635.407 19.8989C635.996 19.522 636.58 19.1375 637.16 18.7476C637.314 18.6442 637.52 18.592 637.59 18.388Z" fill="white"/>
<path fill-rule="evenodd" clip-rule="evenodd" d="M649.821 20.859C649.803 19.5565 649.123 18.7953 647.995 18.8141C646.91 18.832 646.048 19.7758 646.057 20.9342C646.066 22.0688 646.893 22.9179 647.98 22.9096C648.837 22.9031 649.981 22.2669 649.821 20.859ZM647.897 26.4019C645.361 26.7081 642.413 24.0023 642.44 20.8168C642.464 17.882 644.897 15.2282 647.984 15.2623C651.303 15.299 653.528 18.0313 653.473 21.0566C653.41 24.4929 650.313 26.6415 647.897 26.4019Z" fill="white"/>
<path fill-rule="evenodd" clip-rule="evenodd" d="M661.981 19.2144C661.981 18.16 661.994 17.1054 661.974 16.0514C661.967 15.6772 662.101 15.5449 662.477 15.5522C663.317 15.5688 664.158 15.5731 664.997 15.5504C665.418 15.539 665.523 15.7075 665.52 16.0943C665.504 18.0112 665.508 19.9283 665.516 21.8454C665.519 22.464 665.881 22.8803 666.419 22.9302C666.939 22.9786 667.385 22.598 667.501 22.005C667.516 21.9298 667.525 21.8529 667.528 21.7765C667.548 21.2601 667.579 20.7437 667.581 20.2271C667.589 18.866 667.597 17.5047 667.578 16.1438C667.572 15.7118 667.703 15.5212 668.172 15.5367C668.972 15.5632 669.774 15.5537 670.576 15.5397C670.975 15.5327 671.17 15.6301 671.165 16.0865C671.141 18.0991 671.226 20.1152 671.136 22.1243C671.02 24.7399 669.174 26.522 666.699 26.4071C665.977 26.3736 665.258 26.4115 664.571 26.1151C662.931 25.4072 662 23.911 661.951 22.0319C661.927 21.0933 661.947 20.1536 661.947 19.2144H661.981Z" fill="white"/>
<path fill-rule="evenodd" clip-rule="evenodd" d="M678.703 20.0508C678.703 18.3077 678.699 16.5645 678.704 14.8214C678.709 12.655 680.386 11.0098 682.596 11.0002C683.221 10.9976 683.846 11.019 684.47 11.0017C684.829 10.9917 685.01 11.0763 684.997 11.4768C684.973 12.2998 684.977 13.1244 684.996 13.9475C685.003 14.2839 684.86 14.3849 684.545 14.3751C684.135 14.3624 683.725 14.3713 683.315 14.3747C683.077 14.3765 682.844 14.4048 682.669 14.5895C682.467 14.8043 682.407 15.0836 682.49 15.3367C682.562 15.5588 682.828 15.4588 683.01 15.4633C683.518 15.4758 684.026 15.4829 684.533 15.4649C684.893 15.452 685.008 15.5953 685 15.9395C684.981 16.7436 684.982 17.5486 684.999 18.3528C685.006 18.7014 684.871 18.836 684.519 18.8253C683.992 18.8091 683.462 18.8478 682.937 18.8135C682.493 18.7845 682.367 18.9458 682.371 19.369C682.389 21.3994 682.358 23.4303 682.392 25.4603C682.401 26.0389 682.244 26.24 681.637 26.1989C680.84 26.145 680.036 26.169 679.236 26.1927C678.842 26.2045 678.674 26.0962 678.678 25.6821C678.693 23.8051 678.685 21.9279 678.685 20.0508C678.691 20.0508 678.697 20.0508 678.703 20.0508Z" fill="white"/>
<path fill-rule="evenodd" clip-rule="evenodd" d="M656.11 26.1706C655.485 26.1705 654.859 26.1527 654.235 26.1772C653.857 26.192 653.704 26.0641 653.712 25.6889C653.728 24.9613 653.728 24.2329 653.712 23.5054C653.705 23.16 653.836 23.033 654.191 23.0408C655.011 23.0589 655.831 23.0462 656.652 23.0458C656.788 23.0457 656.925 23.0485 657.062 23.0422C657.267 23.0327 657.47 22.9702 657.528 22.7654C657.596 22.5277 657.384 22.4398 657.209 22.3533C656.617 22.0615 656.014 21.7905 655.435 21.4756C654.121 20.7604 653.606 19.5411 653.894 17.8979C654.085 16.8085 655.232 15.7714 656.529 15.6026C657.809 15.436 659.102 15.5509 660.39 15.5414C660.661 15.5394 660.78 15.6699 660.779 15.9273C660.778 16.6935 660.778 17.4596 660.78 18.2257C660.781 18.5339 660.603 18.6022 660.325 18.5983C659.563 18.5877 658.802 18.5952 658.04 18.5952C657.802 18.5953 657.526 18.5819 657.464 18.8654C657.398 19.1589 657.682 19.2401 657.888 19.3322C658.598 19.6504 659.294 19.9947 659.955 20.4034C661.085 21.1025 661.64 22.3963 661.34 23.6205C660.985 25.0664 659.976 25.9608 658.567 26.1078C657.748 26.1932 656.929 26.1728 656.11 26.1706Z" fill="white"/>
<path fill-rule="evenodd" clip-rule="evenodd" d="M675.262 16.7313C675.992 15.879 676.754 15.4609 677.759 15.5329C678.15 15.561 678.319 15.6655 678.306 16.0719C678.283 16.8563 678.288 17.6422 678.305 18.427C678.313 18.7777 678.214 18.941 677.821 18.9662C676.257 19.0663 675.717 19.119 675.724 21.3181C675.728 22.7352 675.707 24.1527 675.737 25.5692C675.748 26.0612 675.568 26.1947 675.095 26.1789C674.218 26.1496 673.339 26.1614 672.46 26.1745C672.116 26.1797 671.974 26.0675 671.975 25.7108C671.984 22.4746 671.985 19.2382 671.975 16.0019C671.974 15.6328 672.152 15.5411 672.475 15.5434C673.178 15.5482 673.882 15.5674 674.583 15.5351C675.099 15.5114 675.365 15.655 675.265 16.2053C675.245 16.3155 675.262 16.4324 675.262 16.7313Z" fill="white"/>
<mask id="mask0_20_1629" style="mask-type:alpha" maskUnits="userSpaceOnUse" x="716" y="7" width="22" height="8">
<path d="M716.584 7H737.913V14.6029H716.584V7Z" fill="white"/>
</mask>
<g mask="url(#mask0_20_1629)">
<path fill-rule="evenodd" clip-rule="evenodd" d="M727.213 7C730.788 8.50458 734.33 10.0989 737.901 11.6128C737.92 12.6088 737.911 13.6051 737.911 14.6029C730.809 14.5992 723.705 14.601 716.601 14.601C716.59 13.6126 716.605 12.6264 716.584 11.6379C720.121 10.0836 723.661 8.51991 727.213 7Z" fill="white"/>
</g>
<path fill-rule="evenodd" clip-rule="evenodd" d="M755.549 13.8441C756.015 13.8441 756.483 13.8422 756.951 13.8403C757.805 15.3086 758.61 16.8035 759.477 18.2639C759.467 16.7882 759.475 15.3142 759.469 13.8403C759.864 13.8422 760.258 13.8441 760.651 13.8441C760.66 15.9452 760.649 18.0463 760.659 20.147C760.207 20.1448 759.754 20.1417 759.302 20.1376C758.464 18.6293 757.599 17.1345 756.736 15.6392C756.755 17.1419 756.738 18.6424 756.754 20.1451H755.542C755.551 18.0463 755.539 15.9452 755.549 13.8441V13.8441ZM761.901 13.8441C762.34 13.8441 762.779 13.8422 763.221 13.8422C763.215 14.7256 763.217 15.6104 763.217 16.4938C764.02 15.6011 764.851 14.7331 765.668 13.8519C766.23 13.8444 766.792 13.8403 767.356 13.8403C766.508 14.693 765.52 15.4844 764.769 16.4153C765.628 17.6581 766.55 18.8623 767.434 20.0898C766.892 20.0554 766.222 20.1567 765.714 20.0019C765.039 19.1357 764.456 18.1895 763.823 17.293C763.602 17.5051 763.382 17.7194 763.161 17.9314C763.154 18.6465 763.154 19.3612 763.159 20.0782C762.739 20.0763 762.32 20.0744 761.901 20.0744C761.903 17.9984 761.899 15.9201 761.901 13.8441V13.8441ZM717.811 15.3905C719.357 15.4059 720.903 15.3868 722.446 15.4021C722.448 15.7713 722.448 16.14 722.45 16.511L721.633 16.5282C721.626 19.3268 721.629 22.1239 721.631 24.9225L722.444 24.9337L722.45 25.9723C720.904 25.9895 719.356 25.9701 717.811 25.9835C717.813 25.626 717.813 25.2666 717.813 24.9072C718.098 24.9169 718.384 24.9244 718.668 24.9322C718.672 22.1258 718.67 19.3193 718.67 16.5129L717.813 16.5241C717.813 16.146 717.813 15.7694 717.811 15.3909L717.811 15.3905ZM724.961 15.4119C726.489 15.3659 728.023 15.4175 729.554 15.3905C729.554 15.7671 729.556 16.146 729.556 16.5222C729.295 16.5204 729.032 16.5166 728.772 16.5148C728.76 19.3212 728.779 22.1277 728.76 24.9341L729.556 24.9053V25.9854C728.017 25.976 726.481 25.9779 724.945 25.9835C724.945 25.632 724.945 25.2804 724.943 24.9285C725.206 24.9263 725.467 24.9248 725.73 24.9248C725.736 22.1258 725.724 19.3249 725.736 16.5264C725.473 16.5245 725.212 16.5204 724.949 16.5189C724.945 16.1497 724.934 15.7787 724.96 15.4119H724.961ZM731.997 15.3965C733.559 15.3928 735.118 15.404 736.677 15.389C736.679 15.7675 736.679 16.146 736.679 16.5245C736.403 16.5226 736.129 16.5185 735.852 16.517C735.852 19.3212 735.85 22.1258 735.852 24.9322L736.681 24.9094C736.679 25.2685 736.679 25.6282 736.677 25.9858C735.118 25.9742 733.557 25.9761 731.997 25.9835L731.992 24.9132L732.858 24.9304C732.847 22.1239 732.856 19.3193 732.853 16.5148C732.567 16.5166 732.279 16.5207 731.993 16.5245C731.993 16.1479 731.995 15.7728 731.997 15.3965" fill="white"/>
<path d="M750.876 17.746C751.094 17.1206 751.315 16.4957 751.524 15.8666C751.597 15.6471 751.672 15.4268 751.744 15.2073C752.024 16.0503 752.276 16.903 752.556 17.746H750.876ZM752.468 13.8422C751.978 13.8403 751.482 13.8194 750.997 13.8669C750.197 15.9052 749.522 18.0193 748.768 20.0782C749.217 20.0763 749.665 20.0707 750.114 20.0647C750.25 19.6458 750.386 19.2273 750.521 18.8088C751.312 18.8051 752.103 18.8051 752.895 18.8014C753.018 19.2502 753.141 19.6978 753.267 20.147C753.735 20.1451 754.205 20.1433 754.675 20.1451C753.919 18.0519 753.2 15.9433 752.468 13.8422ZM746.171 18.9293C745.502 19.1264 744.723 19.0228 744.029 19.0344C744.025 18.4494 744.023 17.8664 744.025 17.2833C744.796 17.314 745.803 17.1726 746.499 17.5489C746.877 17.9602 746.714 18.7288 746.171 18.9293ZM746.175 15.0008C746.718 15.1822 746.666 16.0637 746.148 16.2242C745.475 16.3925 744.721 16.3199 744.031 16.3255C744.027 15.8629 744.025 15.3984 744.025 14.9358C744.728 14.953 745.484 14.8554 746.175 15.0008ZM747.115 16.7425C747.688 16.2664 747.909 15.9182 747.801 15.1422C747.69 14.2629 746.823 13.8613 746.025 13.7962C744.945 13.7334 743.858 13.7906 742.774 13.7715C742.8 15.8726 742.784 17.9733 742.784 20.0744C743.92 20.061 745.059 20.107 746.192 20.0557C746.699 20.0344 747.155 19.8796 747.485 19.482C748.206 18.6809 748.143 17.268 747.115 16.7425" fill="white"/>
<path fill-rule="evenodd" clip-rule="evenodd" d="M771.566 21.7967C772.12 22.1756 772.245 22.7261 772.392 23.3398C771.984 23.3417 771.575 23.3417 771.167 23.338C770.973 23.0073 770.877 22.6648 770.484 22.5215C770.064 22.3974 769.552 22.3783 769.134 22.5197C768.693 22.7126 768.484 23.2116 768.783 23.6229C769.739 24.1447 770.993 24.1372 771.94 24.6724C772.601 25.0871 772.649 25.9264 772.484 26.6127C772.279 27.2799 771.705 27.6718 771.057 27.8494C770.029 28.1191 768.794 28.0103 767.933 27.3431C767.44 26.9492 767.383 26.4253 767.27 25.8478C767.694 25.846 768.117 25.846 768.539 25.8516C768.691 26.171 768.742 26.5936 769.111 26.7391C769.653 26.8786 770.332 26.9358 770.868 26.7353C771.33 26.5113 771.504 25.8957 771.044 25.5767C770.167 25.0755 768.706 25.2038 767.878 24.5157C767.045 23.7796 767.306 22.1737 768.307 21.686C769.235 21.1737 770.693 21.1643 771.566 21.7971V21.7967ZM742.561 21.4564C744.289 21.4186 746.019 21.447 747.749 21.4414C747.749 21.8124 747.749 22.1831 747.751 22.5541C747.113 22.5466 746.476 22.5443 745.837 22.5443C745.835 24.286 745.839 26.0277 745.837 27.769H744.462C744.46 26.0277 744.462 24.286 744.462 22.5425C743.821 22.5462 743.181 22.5462 742.54 22.5462C742.548 22.1834 742.554 21.8199 742.561 21.4568V21.4564ZM761.255 21.4414C761.721 21.4396 762.187 21.4396 762.651 21.4377C763.486 22.9038 764.297 24.3836 765.156 25.8344C765.179 24.3702 765.158 22.9038 765.168 21.4396H766.357C766.361 23.55 766.361 25.6586 766.358 27.7694C765.913 27.7694 765.47 27.7694 765.028 27.7713C764.167 26.2704 763.324 24.7603 762.45 23.2673C762.425 24.7677 762.435 26.2686 762.444 27.7694H761.249C761.262 25.6605 761.251 23.5519 761.255 21.4414V21.4414ZM773.53 21.4414C775.016 21.4358 776.5 21.4414 777.987 21.4377C777.993 21.8083 777.996 22.1793 778.002 22.5503C776.934 22.5428 775.866 22.5466 774.799 22.5443C774.797 23.0283 774.797 23.51 774.796 23.9917C775.72 23.9936 776.644 23.9936 777.569 23.9898C777.569 24.3474 777.567 24.7027 777.567 25.0602C776.646 25.0411 775.725 25.0393 774.805 25.0546C774.796 25.9339 774.797 26.8154 774.799 27.695C774.373 27.695 773.949 27.695 773.526 27.6965C773.535 25.6107 773.526 23.5272 773.53 21.4414V21.4414ZM778.946 21.4414C780.478 21.4377 782.012 21.4414 783.545 21.4377C783.547 21.8083 783.547 22.1775 783.549 22.5485C782.432 22.5447 781.315 22.5447 780.197 22.5485C780.198 23.007 780.198 23.464 780.198 23.9229C781.223 23.9142 782.248 23.9122 783.273 23.9169V24.982C782.246 24.982 781.22 24.9783 780.194 24.9839C780.197 25.5307 780.197 26.0793 780.194 26.6257C781.362 26.6201 782.53 26.622 783.698 26.622C783.7 27.0046 783.7 27.3868 783.702 27.7694H778.94C778.947 25.6605 778.94 23.55 778.946 21.4414" fill="white"/>
<path d="M751.875 24.2325C751.212 24.3529 750.496 24.2688 749.821 24.2841C749.823 23.7067 749.825 23.1274 749.825 22.5503C750.462 22.5559 751.131 22.4908 751.758 22.6019C752.332 22.9037 752.506 23.8978 751.875 24.2325V24.2325ZM753.269 25.3242C753.114 25.1043 752.855 24.9495 752.644 24.783C753.628 24.3282 753.87 23.1102 753.285 22.2444C752.899 21.6404 752.259 21.4949 751.585 21.4549C750.577 21.4107 749.564 21.453 748.554 21.4377C748.521 23.5481 748.561 25.6585 748.53 27.7694H749.834C749.823 26.9378 749.82 26.1061 749.827 25.2745C750.418 25.3433 751.65 25.0448 752.004 25.6335C752.209 26.2876 752.103 27.0827 752.173 27.769C752.678 27.7671 753.185 27.769 753.692 27.7806C753.271 26.9664 753.643 26.1212 753.269 25.3242V25.3242ZM788.129 24.2501C787.471 24.3361 786.789 24.2763 786.125 24.2841C786.123 23.7068 786.123 23.1295 786.125 22.5522C786.779 22.5596 787.529 22.4643 788.156 22.6726C788.678 22.9516 788.768 24.0489 788.129 24.2497V24.2501ZM789.581 25.4353C789.485 25.0949 789.15 24.9266 788.895 24.7123C789.174 24.5059 789.479 24.3473 789.644 24.0298C790.037 23.2784 789.775 22.2369 789.057 21.772C788.497 21.4339 787.894 21.3916 787.253 21.3879C786.408 21.3879 785.567 21.3954 784.723 21.3916C784.723 23.4927 784.732 25.5953 784.717 27.6968L785.989 27.6908C785.98 26.8549 785.978 26.0188 785.985 25.1828C786.604 25.2326 787.566 25.0336 788.081 25.4218C788.429 26.0505 788.248 26.9814 788.386 27.6927C788.894 27.6927 789.401 27.6964 789.909 27.7118C789.571 26.9608 789.794 26.1975 789.581 25.4349L789.581 25.4353ZM756.587 25.3605C756.884 24.5691 757.105 23.7486 757.433 22.9688C757.849 23.6741 757.962 24.5957 758.264 25.3623C757.704 25.3605 757.146 25.3605 756.587 25.3605ZM758.143 21.4317C757.683 21.4335 757.216 21.4167 756.758 21.4605C756.597 21.6362 756.53 21.9059 756.442 22.1258C755.797 24.0126 755.147 25.8975 754.461 27.7712C754.911 27.7694 755.362 27.7694 755.813 27.7694C755.956 27.3393 756.102 26.9107 756.25 26.4806C757.036 26.4787 757.822 26.4787 758.609 26.4806L758.972 27.7671C759.441 27.7694 759.911 27.7694 760.381 27.7709C759.61 25.6664 758.92 23.5346 758.143 21.4317" fill="white"/>
<path fill-rule="evenodd" clip-rule="evenodd" d="M716.596 26.84C723.701 26.8497 730.807 26.8422 737.913 26.8437C737.913 27.1994 737.913 27.5569 737.915 27.9126C730.809 27.907 723.703 27.9107 716.598 27.9107C716.596 27.5532 716.596 27.1975 716.596 26.84" fill="white"/>
<mask id="mask1_20_1629" style="mask-type:alpha" maskUnits="userSpaceOnUse" x="715" y="28" width="25" height="2">
<path d="M715.092 28.7021H739.403V29.7556H715.092V28.7021Z" fill="white"/>
</mask>
<g mask="url(#mask1_20_1629)">
<path fill-rule="evenodd" clip-rule="evenodd" d="M715.096 28.7044C723.199 28.7025 731.302 28.7006 739.403 28.7044V29.7538C731.3 29.7538 723.195 29.7463 715.092 29.7557C715.094 29.406 715.096 29.054 715.096 28.7044" fill="white"/>
</g>
<path d="M435.455 15.3156H432.628C432.401 15.3156 432.158 15.367 431.913 15.4708C431.668 15.5747 431.477 15.695 431.32 15.8513C431.006 16.2132 430.866 16.7315 430.849 17.4214V26.2592H432.837V23.2732H435.508C436.014 23.2732 436.433 23.084 436.799 22.721C437.165 22.3755 437.34 21.9612 437.358 21.4779V17.3525C437.34 16.0055 436.712 15.3331 435.455 15.3166V15.3156ZM435.246 21.081C435.202 21.1356 435.146 21.1796 435.082 21.2095C435.019 21.2394 434.95 21.2545 434.88 21.2537H433.466C433.047 21.2537 432.855 21.047 432.838 20.6676V17.9212C432.838 17.5592 433.03 17.3515 433.397 17.3351H434.932C435.228 17.3515 435.368 17.5068 435.385 17.8183L435.403 20.7519C435.403 20.8897 435.351 20.9936 435.246 21.0799V21.081ZM443.483 15.3156H438.979V17.3351H442.976C443.343 17.3176 443.534 17.4739 443.517 17.7669H443.534V17.9571H440.9C439.625 17.9911 438.998 18.6121 438.98 19.8553V21.4779C438.998 22.6686 439.661 23.2567 440.987 23.2732H443.692C444.215 23.2732 444.651 23.1005 444.983 22.7385C445.297 22.3755 445.454 21.9437 445.472 21.409V17.1973C445.454 15.9541 444.791 15.3331 443.482 15.3156H443.483ZM443.534 20.8568C443.517 21.1159 443.343 21.2537 442.993 21.2537H441.476C441.318 21.2537 441.196 21.2198 441.109 21.1334C441.005 21.0635 440.952 20.9771 440.952 20.8558L440.97 20.3386C440.97 20.1319 441.005 19.9766 441.074 19.9067C441.161 19.8553 441.301 19.8214 441.493 19.8214H442.993C443.361 19.8214 443.534 19.9756 443.534 20.2872V20.8568V20.8568ZM451.631 20.5288V20.753C451.631 20.8178 451.615 20.8817 451.584 20.9389C451.554 20.9961 451.51 21.0449 451.456 21.081C451.399 21.1384 451.331 21.1835 451.256 21.2132C451.181 21.2429 451.101 21.2567 451.02 21.2537H449.625C449.275 21.2537 449.1 21.047 449.1 20.6152V15.3156H447.113V21.2362C447.113 21.5653 447.165 21.8408 447.252 22.0475C447.322 22.2892 447.479 22.5133 447.671 22.721C447.881 22.9113 448.089 23.0665 448.299 23.1354C448.491 23.2218 448.753 23.2557 449.085 23.2557H451.614V23.739C451.614 23.8603 451.563 23.9806 451.458 24.068C451.348 24.1695 451.206 24.2301 451.057 24.2398H447.095V26.2592H451.737C452.312 26.2428 452.766 26.0526 453.098 25.6557C453.429 25.2587 453.586 24.7405 453.604 24.0845V15.3156H451.632V20.5288H451.631ZM455.156 17.1109V18.6121C455.156 19.0615 455.348 19.4584 455.731 19.7689C456.116 20.1144 456.552 20.2872 457.075 20.3036H458.82C458.943 20.3036 459.03 20.3735 459.117 20.5288C459.152 20.5977 459.169 20.6491 459.169 20.7015V20.8743C459.152 21.1159 458.994 21.2362 458.663 21.2537H455.138V23.2732H459.274C459.606 23.2732 459.867 23.2393 460.059 23.1704C460.252 23.1005 460.443 22.9627 460.618 22.755C460.984 22.3406 461.176 21.9272 461.193 21.5128V20.0455C461.183 19.5795 460.996 19.135 460.669 18.8024C460.518 18.6376 460.335 18.5053 460.131 18.4134C459.927 18.3215 459.707 18.2719 459.483 18.2677H457.739C457.32 18.2677 457.11 18.1463 457.11 17.8872V17.698C457.11 17.4564 457.32 17.3351 457.721 17.3351H461.193V15.3156H457.093C455.819 15.3505 455.173 15.9366 455.156 17.1109V17.1109ZM467.126 15.3156H462.625V17.3351H466.621C466.987 17.3176 467.161 17.4739 467.161 17.7669V17.9571H464.526C463.252 17.9911 462.607 18.6121 462.607 19.8553V21.4779C462.625 22.6686 463.287 23.2567 464.613 23.2732H467.336C467.86 23.2732 468.296 23.1005 468.627 22.7385C468.941 22.3755 469.098 21.9437 469.115 21.409V17.1973C469.098 15.9541 468.435 15.3331 467.126 15.3156V15.3156ZM467.144 20.8568C467.126 21.1159 466.952 21.2537 466.603 21.2537H465.084C465.021 21.2579 464.957 21.2494 464.897 21.2287C464.837 21.2081 464.782 21.1757 464.735 21.1334C464.632 21.0635 464.578 20.9771 464.578 20.8558H464.596V20.3386C464.596 20.1319 464.631 19.9766 464.701 19.9067C464.771 19.8553 464.911 19.8214 465.102 19.8214H466.603C466.953 19.8214 467.144 19.9756 467.144 20.2872V20.8568V20.8568ZM471.332 12.8642C470.931 13.1922 470.739 13.6416 470.721 14.1763L470.704 23.2732H472.692V17.3351H474.089V15.3156H472.692V14.8837C472.71 14.5043 472.92 14.3141 473.338 14.2976H474.106V12.347H472.85C472.222 12.3635 471.716 12.5362 471.332 12.8642ZM481.767 18.8363V17.2487C481.749 15.9716 481.121 15.3331 479.882 15.3156H477.213C475.938 15.3505 475.293 15.9541 475.275 17.1798L475.293 21.2023C475.293 21.5992 475.328 21.9097 475.415 22.1339C475.485 22.3581 475.641 22.5832 475.851 22.7899C476.043 22.9627 476.252 23.1005 476.497 23.1704C476.723 23.2393 477.02 23.2732 477.422 23.2732H481.749V21.2537H477.682C477.56 21.2537 477.49 21.2023 477.42 21.081C477.333 20.9946 477.299 20.8568 477.299 20.7005V20.5802L481.766 18.8373L481.767 18.8363ZM477.248 18.6646V17.8523C477.248 17.698 477.316 17.5767 477.456 17.4903C477.578 17.3863 477.733 17.3314 477.893 17.3361H479.271C479.411 17.3361 479.533 17.3525 479.621 17.4214C479.66 17.4516 479.692 17.4909 479.713 17.5361C479.734 17.5812 479.744 17.6308 479.742 17.6805V17.732L477.248 18.6646V18.6646ZM485.292 22.7385C485.058 22.678 484.839 22.5721 484.646 22.4269C484.456 22.252 484.312 22.0331 484.227 21.7894C484.144 21.5389 484.102 21.2762 484.104 21.0121V17.2487C484.104 16.6965 484.262 16.2821 484.577 16.058C484.873 15.8338 485.292 15.7289 485.815 15.7289H488.781V15.2642H485.745C485.414 15.2642 485.134 15.2816 484.891 15.3505C484.628 15.4194 484.384 15.5747 484.14 15.8163C483.93 16.0405 483.79 16.2646 483.721 16.5063C483.645 16.7699 483.616 17.0448 483.634 17.3186V21.081C483.634 21.4439 483.685 21.7545 483.79 22.0475C483.895 22.3406 484.07 22.6007 484.35 22.8413C484.611 23.049 484.873 23.1704 485.134 23.2043C485.379 23.2393 485.659 23.2732 485.955 23.2732H488.816V22.8074H485.989C485.745 22.8074 485.519 22.7899 485.292 22.7385V22.7385ZM497.018 21.0985V17.4564C497.018 16.8518 496.843 16.3171 496.477 15.8503C496.371 15.7078 496.241 15.5853 496.092 15.4883C495.958 15.4057 495.811 15.3472 495.656 15.3156C495.322 15.2644 494.983 15.2414 494.644 15.2467H490.561V15.7125H494.871C495.133 15.7125 495.378 15.7474 495.604 15.7988C495.83 15.8677 496.022 16.023 496.18 16.2307C496.442 16.5762 496.564 16.9556 496.564 17.3875V17.9222H492.62C491.277 17.9571 490.579 18.6646 490.561 20.028V21.2362C490.561 21.8583 490.754 22.3581 491.155 22.721C491.538 23.0665 492.044 23.2557 492.656 23.2557H495.028C495.656 23.2557 496.162 23.049 496.581 22.6182C496.79 22.393 496.913 22.1514 496.982 21.8923C497.035 21.6681 497.053 21.409 497.053 21.0985H497.018ZM496.564 21.2198C496.564 22.2552 496.058 22.7724 495.046 22.7899H492.637C492.236 22.7899 491.853 22.6521 491.503 22.3755C491.325 22.2431 491.196 22.0549 491.137 21.8408C491.086 21.6319 491.063 21.4173 491.067 21.2023V20.0106C491.067 19.5098 491.207 19.1304 491.486 18.8373C491.748 18.5607 492.131 18.4229 492.602 18.4055H496.582L496.564 21.2198V21.2198ZM499.408 17.5253V23.2732H499.879V17.5253C499.862 16.351 500.404 15.7464 501.502 15.73H502.113V15.2642H501.589C500.107 15.2642 499.391 16.023 499.408 17.5253ZM509.983 12.675H509.512V15.2642H505.795C504.242 15.2467 503.457 16.023 503.439 17.5602V20.9771C503.422 21.3062 503.457 21.5992 503.527 21.8583C503.578 22.1164 503.718 22.3755 503.928 22.6347C504.207 22.9277 504.503 23.1179 504.801 23.1868C505.097 23.2382 505.428 23.2732 505.795 23.2732H507.557C509.145 23.3082 509.965 22.5658 510 21.047L509.983 12.675V12.675ZM509.529 20.9946C509.512 21.6331 509.32 22.1 508.936 22.3581C508.552 22.6347 508.046 22.7724 507.435 22.7724H505.795C505.533 22.7724 505.289 22.7385 505.062 22.6871C504.853 22.6437 504.653 22.5677 504.468 22.4619C504.102 22.2378 503.928 21.8244 503.928 21.2198V17.5592C503.909 17.3142 503.939 17.0679 504.015 16.8343C504.066 16.6276 504.19 16.4374 504.381 16.2307C504.591 16.0066 504.818 15.8677 505.044 15.8163C505.27 15.7649 505.515 15.73 505.777 15.73H509.529V20.9946V20.9946ZM420.327 14.8673C420.605 13.5202 421.828 12.5023 423.276 12.5023C424.723 12.5023 425.929 13.5202 426.225 14.8673C426.677 14.9526 427.044 15.1253 427.324 15.4019C427.341 15.1428 427.324 14.8837 427.289 14.6595C427.194 13.657 426.728 12.7261 425.982 12.0491C425.237 11.3722 424.265 10.9981 423.258 11C421.076 11.001 419.315 12.709 419.226 14.8323C419.209 15.0225 419.209 15.2127 419.209 15.4019C419.4 15.2467 419.61 15.1253 419.855 15.0215C420.011 14.9526 420.168 14.9012 420.326 14.8673H420.327Z" fill="white"/>
<path d="M435.455 15.3156H432.628C432.401 15.3156 432.158 15.367 431.913 15.4708C431.668 15.5747 431.477 15.695 431.32 15.8513C431.006 16.2132 430.866 16.7315 430.849 17.4214V26.2592H432.837V23.2732H435.508C436.014 23.2732 436.433 23.084 436.799 22.721C437.165 22.3755 437.34 21.9612 437.358 21.4779V17.3525C437.34 16.0055 436.712 15.3331 435.455 15.3166V15.3156ZM435.246 21.081C435.202 21.1356 435.146 21.1796 435.082 21.2095C435.019 21.2394 434.95 21.2545 434.88 21.2537H433.466C433.047 21.2537 432.855 21.047 432.838 20.6676V17.9212C432.838 17.5592 433.03 17.3515 433.397 17.3351H434.932C435.228 17.3515 435.368 17.5068 435.385 17.8183L435.403 20.7519C435.403 20.8897 435.351 20.9936 435.246 21.0799V21.081ZM443.483 15.3156H438.979V17.3351H442.976C443.343 17.3176 443.534 17.4739 443.517 17.7669H443.534V17.9571H440.9C439.625 17.9911 438.998 18.6121 438.98 19.8553V21.4779C438.998 22.6686 439.661 23.2567 440.987 23.2732H443.692C444.215 23.2732 444.651 23.1005 444.983 22.7385C445.297 22.3755 445.454 21.9437 445.472 21.409V17.1973C445.454 15.9541 444.791 15.3331 443.482 15.3156H443.483ZM443.534 20.8568C443.517 21.1159 443.343 21.2537 442.993 21.2537H441.476C441.318 21.2537 441.196 21.2198 441.109 21.1334C441.005 21.0635 440.952 20.9771 440.952 20.8558L440.97 20.3386C440.97 20.1319 441.005 19.9766 441.074 19.9067C441.161 19.8553 441.301 19.8214 441.493 19.8214H442.993C443.361 19.8214 443.534 19.9756 443.534 20.2872V20.8568V20.8568ZM451.631 20.5288V20.753C451.631 20.8178 451.615 20.8817 451.584 20.9389C451.554 20.9961 451.51 21.0449 451.456 21.081C451.399 21.1384 451.331 21.1835 451.256 21.2132C451.181 21.2429 451.101 21.2567 451.02 21.2537H449.625C449.275 21.2537 449.1 21.047 449.1 20.6152V15.3156H447.113V21.2362C447.113 21.5653 447.165 21.8408 447.252 22.0475C447.322 22.2892 447.479 22.5133 447.671 22.721C447.881 22.9113 448.089 23.0665 448.299 23.1354C448.491 23.2218 448.753 23.2557 449.085 23.2557H451.614V23.739C451.614 23.8603 451.563 23.9806 451.458 24.068C451.348 24.1695 451.206 24.2301 451.057 24.2398H447.095V26.2592H451.737C452.312 26.2428 452.766 26.0526 453.098 25.6557C453.429 25.2587 453.586 24.7405 453.604 24.0845V15.3156H451.632V20.5288H451.631ZM455.156 17.1109V18.6121C455.156 19.0615 455.348 19.4584 455.731 19.7689C456.116 20.1144 456.552 20.2872 457.075 20.3036H458.82C458.943 20.3036 459.03 20.3735 459.117 20.5288C459.152 20.5977 459.169 20.6491 459.169 20.7015V20.8743C459.152 21.1159 458.994 21.2362 458.663 21.2537H455.138V23.2732H459.274C459.606 23.2732 459.867 23.2393 460.059 23.1704C460.252 23.1005 460.443 22.9627 460.618 22.755C460.984 22.3406 461.176 21.9272 461.193 21.5128V20.0455C461.183 19.5795 460.996 19.135 460.669 18.8024C460.518 18.6376 460.335 18.5053 460.131 18.4134C459.927 18.3215 459.707 18.2719 459.483 18.2677H457.739C457.32 18.2677 457.11 18.1463 457.11 17.8872V17.698C457.11 17.4564 457.32 17.3351 457.721 17.3351H461.193V15.3156H457.093C455.819 15.3505 455.173 15.9366 455.156 17.1109V17.1109ZM467.126 15.3156H462.625V17.3351H466.621C466.987 17.3176 467.161 17.4739 467.161 17.7669V17.9571H464.526C463.252 17.9911 462.607 18.6121 462.607 19.8553V21.4779C462.625 22.6686 463.287 23.2567 464.613 23.2732H467.336C467.86 23.2732 468.296 23.1005 468.627 22.7385C468.941 22.3755 469.098 21.9437 469.115 21.409V17.1973C469.098 15.9541 468.435 15.3331 467.126 15.3156V15.3156ZM467.144 20.8568C467.126 21.1159 466.952 21.2537 466.603 21.2537H465.084C465.021 21.2579 464.957 21.2494 464.897 21.2287C464.837 21.2081 464.782 21.1757 464.735 21.1334C464.632 21.0635 464.578 20.9771 464.578 20.8558H464.596V20.3386C464.596 20.1319 464.631 19.9766 464.701 19.9067C464.771 19.8553 464.911 19.8214 465.102 19.8214H466.603C466.953 19.8214 467.144 19.9756 467.144 20.2872V20.8568V20.8568ZM471.332 12.8642C470.931 13.1922 470.739 13.6416 470.721 14.1763L470.704 23.2732H472.692V17.3351H474.089V15.3156H472.692V14.8837C472.71 14.5043 472.92 14.3141 473.338 14.2976H474.106V12.347H472.85C472.222 12.3635 471.716 12.5362 471.332 12.8642ZM481.767 18.8363V17.2487C481.749 15.9716 481.121 15.3331 479.882 15.3156H477.213C475.938 15.3505 475.293 15.9541 475.275 17.1798L475.293 21.2023C475.293 21.5992 475.328 21.9097 475.415 22.1339C475.485 22.3581 475.641 22.5832 475.851 22.7899C476.043 22.9627 476.252 23.1005 476.497 23.1704C476.723 23.2393 477.02 23.2732 477.422 23.2732H481.749V21.2537H477.682C477.56 21.2537 477.49 21.2023 477.42 21.081C477.333 20.9946 477.299 20.8568 477.299 20.7005V20.5802L481.766 18.8373L481.767 18.8363ZM477.248 18.6646V17.8523C477.248 17.698 477.316 17.5767 477.456 17.4903C477.578 17.3863 477.733 17.3314 477.893 17.3361H479.271C479.411 17.3361 479.533 17.3525 479.621 17.4214C479.66 17.4516 479.692 17.4909 479.713 17.5361C479.734 17.5812 479.744 17.6308 479.742 17.6805V17.732L477.248 18.6646V18.6646ZM485.292 22.7385C485.058 22.678 484.839 22.5721 484.646 22.4269C484.456 22.252 484.312 22.0331 484.227 21.7894C484.144 21.5389 484.102 21.2762 484.104 21.0121V17.2487C484.104 16.6965 484.262 16.2821 484.577 16.058C484.873 15.8338 485.292 15.7289 485.815 15.7289H488.781V15.2642H485.745C485.414 15.2642 485.134 15.2816 484.891 15.3505C484.628 15.4194 484.384 15.5747 484.14 15.8163C483.93 16.0405 483.79 16.2646 483.721 16.5063C483.645 16.7699 483.616 17.0448 483.634 17.3186V21.081C483.634 21.4439 483.685 21.7545 483.79 22.0475C483.895 22.3406 484.07 22.6007 484.35 22.8413C484.611 23.049 484.873 23.1704 485.134 23.2043C485.379 23.2393 485.659 23.2732 485.955 23.2732H488.816V22.8074H485.989C485.745 22.8074 485.519 22.7899 485.292 22.7385V22.7385ZM497.018 21.0985V17.4564C497.018 16.8518 496.843 16.3171 496.477 15.8503C496.371 15.7078 496.241 15.5853 496.092 15.4883C495.958 15.4057 495.811 15.3472 495.656 15.3156C495.322 15.2644 494.983 15.2414 494.644 15.2467H490.561V15.7125H494.871C495.133 15.7125 495.378 15.7474 495.604 15.7988C495.83 15.8677 496.022 16.023 496.18 16.2307C496.442 16.5762 496.564 16.9556 496.564 17.3875V17.9222H492.62C491.277 17.9571 490.579 18.6646 490.561 20.028V21.2362C490.561 21.8583 490.754 22.3581 491.155 22.721C491.538 23.0665 492.044 23.2557 492.656 23.2557H495.028C495.656 23.2557 496.162 23.049 496.581 22.6182C496.79 22.393 496.913 22.1514 496.982 21.8923C497.035 21.6681 497.053 21.409 497.053 21.0985H497.018ZM496.564 21.2198C496.564 22.2552 496.058 22.7724 495.046 22.7899H492.637C492.236 22.7899 491.853 22.6521 491.503 22.3755C491.325 22.2431 491.196 22.0549 491.137 21.8408C491.086 21.6319 491.063 21.4173 491.067 21.2023V20.0106C491.067 19.5098 491.207 19.1304 491.486 18.8373C491.748 18.5607 492.131 18.4229 492.602 18.4055H496.582L496.564 21.2198V21.2198ZM499.408 17.5253V23.2732H499.879V17.5253C499.862 16.351 500.404 15.7464 501.502 15.73H502.113V15.2642H501.589C500.107 15.2642 499.391 16.023 499.408 17.5253ZM509.983 12.675H509.512V15.2642H505.795C504.242 15.2467 503.457 16.023 503.439 17.5602V20.9771C503.422 21.3062 503.457 21.5992 503.527 21.8583C503.578 22.1164 503.718 22.3755 503.928 22.6347C504.207 22.9277 504.503 23.1179 504.801 23.1868C505.097 23.2382 505.428 23.2732 505.795 23.2732H507.557C509.145 23.3082 509.965 22.5658 510 21.047L509.983 12.675V12.675ZM509.529 20.9946C509.512 21.6331 509.32 22.1 508.936 22.3581C508.552 22.6347 508.046 22.7724 507.435 22.7724H505.795C505.533 22.7724 505.289 22.7385 505.062 22.6871C504.853 22.6437 504.653 22.5677 504.468 22.4619C504.102 22.2378 503.928 21.8244 503.928 21.2198V17.5592C503.909 17.3142 503.939 17.0679 504.015 16.8343C504.066 16.6276 504.19 16.4374 504.381 16.2307C504.591 16.0066 504.818 15.8677 505.044 15.8163C505.27 15.7649 505.515 15.73 505.777 15.73H509.529V20.9946V20.9946ZM420.327 14.8673C420.605 13.5202 421.828 12.5023 423.276 12.5023C424.723 12.5023 425.929 13.5202 426.225 14.8673C426.677 14.9526 427.044 15.1253 427.324 15.4019C427.341 15.1428 427.324 14.8837 427.289 14.6595C427.194 13.657 426.728 12.7261 425.982 12.0491C425.237 11.3722 424.265 10.9981 423.258 11C421.076 11.001 419.315 12.709 419.226 14.8323C419.209 15.0225 419.209 15.2127 419.209 15.4019C419.4 15.2467 419.61 15.1253 419.855 15.0215C420.011 14.9526 420.168 14.9012 420.326 14.8673H420.327Z" fill="white"/>
<path d="M425.614 15.3158H420.779C420.553 15.3158 420.308 15.3673 420.063 15.4711C419.818 15.575 419.627 15.6953 419.47 15.8516C419.175 16.2125 419.017 16.7307 419 17.4207V21.1666C419.017 21.8576 419.157 22.3748 419.471 22.7377C419.628 22.892 419.821 23.0133 420.064 23.1172C420.309 23.22 420.553 23.2724 420.78 23.2724H425.613C426.87 23.255 427.498 22.5825 427.515 21.2365V17.3518C427.498 16.0048 426.87 15.3323 425.613 15.3158H425.614Z" fill="white"/>
<path d="M425.614 15.3158H420.779C420.553 15.3158 420.308 15.3673 420.063 15.4711C419.818 15.575 419.627 15.6953 419.47 15.8516C419.175 16.2125 419.017 16.7307 419 17.4207V21.1666C419.017 21.8576 419.157 22.3748 419.471 22.7377C419.628 22.892 419.821 23.0133 420.064 23.1172C420.309 23.22 420.553 23.2724 420.78 23.2724H425.613C426.87 23.255 427.498 22.5825 427.515 21.2365V17.3518C427.498 16.0048 426.87 15.3323 425.613 15.3158H425.614Z" fill="white"/>
<path d="M387.298 12.9792C386.373 12.3285 384.973 12 383.136 12H378.328L376.54 21.9612H370.241L370.646 19.7026H374.441L374.891 17.1641L371.099 17.1706L371.504 14.9196H375.413L375.933 12H367.994L366.298 21.4505H363.386L365.095 12H360.945L359.248 21.4505H356.41L358.12 12H353.975L352.182 21.9625H345.839L346.238 19.7026H350.049L350.499 17.1783L346.694 17.1744L347.098 14.9196H351.049L351.566 12H326.834L325.426 19.8951L322.621 12H318.316L316 24.8821H320.111L321.513 16.7714L324.234 24.8821H338.968L340.759 14.9196H343.066L341.273 24.8821H380.042L381.165 18.5938L382.985 24.8821H387.098L385.214 19.7436L385.644 19.6487C386.592 19.4395 387.334 18.9916 387.849 18.3191C388.365 17.639 388.627 16.7689 388.627 15.7217C388.627 14.5025 388.193 13.6055 387.298 12.9792V12.9792ZM335.39 21.9612H329.095L329.502 19.7026H333.45L333.899 17.1564H329.988L330.367 14.9196H336.65L335.39 21.9612ZM383.908 17.6223C383.494 17.9175 382.895 18.0638 382.075 18.0638H381.261L381.885 14.6065H382.484C383.165 14.6065 383.661 14.7194 384.004 14.9465C384.272 15.1262 384.589 15.4804 384.589 16.1529C384.589 16.9627 384.22 17.3977 383.908 17.6223V17.6223ZM391.619 23.6193C391.57 23.5815 391.515 23.5504 391.458 23.5269C391.614 23.5065 391.759 23.4326 391.867 23.3177C391.953 23.2137 391.995 23.0801 391.984 22.9456C391.98 22.8389 391.947 22.7353 391.887 22.6465C391.834 22.5619 391.754 22.498 391.659 22.4656C391.528 22.4299 391.391 22.4182 391.256 22.4309L390.38 22.4771L390.481 24.5035L390.743 24.4894L390.699 23.5885L391.001 23.5731C391.049 23.5689 391.098 23.5693 391.147 23.5744C391.19 23.5838 391.23 23.6003 391.268 23.6232C391.321 23.658 391.368 23.7014 391.407 23.7515C391.46 23.8131 391.527 23.9029 391.61 24.021L391.893 24.4291L392.217 24.4124L391.849 23.8785C391.784 23.7827 391.707 23.6956 391.619 23.6193V23.6193Z" fill="white"/>
<path d="M387.298 12.9792C386.373 12.3285 384.973 12 383.136 12H378.328L376.54 21.9612H370.241L370.646 19.7026H374.441L374.891 17.1641L371.099 17.1706L371.504 14.9196H375.413L375.933 12H367.994L366.298 21.4505H363.386L365.095 12H360.945L359.248 21.4505H356.41L358.12 12H353.975L352.182 21.9625H345.839L346.238 19.7026H350.049L350.499 17.1783L346.694 17.1744L347.098 14.9196H351.049L351.566 12H326.834L325.426 19.8951L322.621 12H318.316L316 24.8821H320.111L321.513 16.7714L324.234 24.8821H338.968L340.759 14.9196H343.066L341.273 24.8821H380.042L381.165 18.5938L382.985 24.8821H387.098L385.214 19.7436L385.644 19.6487C386.592 19.4395 387.334 18.9916 387.849 18.3191C388.365 17.639 388.627 16.7689 388.627 15.7217C388.627 14.5025 388.193 13.6055 387.298 12.9792V12.9792ZM335.39 21.9612H329.095L329.502 19.7026H333.45L333.899 17.1564H329.988L330.367 14.9196H336.65L335.39 21.9612ZM383.908 17.6223C383.494 17.9175 382.895 18.0638 382.075 18.0638H381.261L381.885 14.6065H382.484C383.165 14.6065 383.661 14.7194 384.004 14.9465C384.272 15.1262 384.589 15.4804 384.589 16.1529C384.589 16.9627 384.22 17.3977 383.908 17.6223V17.6223ZM391.619 23.6193C391.57 23.5815 391.515 23.5504 391.458 23.5269C391.614 23.5065 391.759 23.4326 391.867 23.3177C391.953 23.2137 391.995 23.0801 391.984 22.9456C391.98 22.8389 391.947 22.7353 391.887 22.6465C391.834 22.5619 391.754 22.498 391.659 22.4656C391.528 22.4299 391.391 22.4182 391.256 22.4309L390.38 22.4771L390.481 24.5035L390.743 24.4894L390.699 23.5885L391.001 23.5731C391.049 23.5689 391.098 23.5693 391.147 23.5744C391.19 23.5838 391.23 23.6003 391.268 23.6232C391.321 23.658 391.368 23.7014 391.407 23.7515C391.46 23.8131 391.527 23.9029 391.61 24.021L391.893 24.4291L392.217 24.4124L391.849 23.8785C391.784 23.7827 391.707 23.6956 391.619 23.6193V23.6193Z" fill="white"/>
<path d="M391.248 23.3278L390.687 23.3586L390.652 22.6875L391.276 22.6554C391.422 22.6477 391.531 22.6721 391.602 22.7298C391.637 22.758 391.665 22.7934 391.684 22.8335C391.704 22.8736 391.714 22.9175 391.715 22.9621C391.719 23.0265 391.704 23.0907 391.673 23.1469C391.639 23.2052 391.587 23.2505 391.525 23.2752C391.436 23.3093 391.343 23.3275 391.248 23.3291V23.3278Z" fill="white"/>
<path d="M391.248 23.3278L390.687 23.3586L390.652 22.6875L391.276 22.6554C391.422 22.6477 391.531 22.6721 391.602 22.7298C391.637 22.758 391.665 22.7934 391.684 22.8335C391.704 22.8736 391.714 22.9175 391.715 22.9621C391.719 23.0265 391.704 23.0907 391.673 23.1469C391.639 23.2052 391.587 23.2505 391.525 23.2752C391.436 23.3093 391.343 23.3275 391.248 23.3291V23.3278Z" fill="white"/>
<path d="M391.059 21.5513C390.569 21.5782 390.115 21.799 389.785 22.1737C389.454 22.5497 389.284 23.0404 389.311 23.5404C389.365 24.5825 390.234 25.3872 391.249 25.3345C392.263 25.2806 393.05 24.3887 392.997 23.3467C392.946 22.3033 392.077 21.4987 391.059 21.5513Z" fill="white"/>
<path d="M391.059 21.5513C390.569 21.5782 390.115 21.799 389.785 22.1737C389.454 22.5497 389.284 23.0404 389.311 23.5404C389.365 24.5825 390.234 25.3872 391.249 25.3345C392.263 25.2806 393.05 24.3887 392.997 23.3467C392.946 22.3033 392.077 21.4987 391.059 21.5513Z" fill="white"/>
<path d="M392.686 23.4442C392.686 24.2733 392.048 24.9701 391.232 25.0138C390.389 25.0574 389.669 24.3888 389.625 23.5238C389.605 23.1041 389.743 22.7025 390.016 22.3906C390.291 22.08 390.667 21.8952 391.076 21.8747C391.918 21.8298 392.64 22.4971 392.683 23.3634L392.686 23.4442V23.4442Z" fill="white"/>
<path d="M392.686 23.4442C392.686 24.2733 392.048 24.9701 391.232 25.0138C390.389 25.0574 389.669 24.3888 389.625 23.5238C389.605 23.1041 389.743 22.7025 390.016 22.3906C390.291 22.08 390.667 21.8952 391.076 21.8747C391.918 21.8298 392.64 22.4971 392.683 23.3634L392.686 23.4442V23.4442Z" fill="white"/>
<path d="M261.985 15.6341C261.898 15.8401 261.272 17.5143 259.756 19.2498V11.8317L255.718 12.5863V26.0323H259.756V21.8756C260.926 23.5344 261.503 26.0323 261.503 26.0323H266.339C265.861 24.1509 263.768 20.6823 263.768 20.6823C265.004 19.1798 265.964 17.4697 266.602 15.6316H261.985V15.6341ZM274.804 15.6457H278.718V26.0335H274.804V15.6457ZM286.086 26.0323H290V11.8317L286.086 12.4943V26.0323ZM280.377 26.0323H284.286V11.8317L280.376 12.4943L280.377 26.0323ZM248.947 17.1139C248.454 17.0832 247.308 17.0142 247.308 16.0383C247.308 14.8616 248.957 14.8616 249.575 14.8616C250.662 14.8616 252.069 15.166 253.075 15.45C253.075 15.45 253.637 15.638 254.113 15.8286L254.158 15.8401V12.6183L254.096 12.6004C252.91 12.2078 251.531 11.8305 248.973 11.8305C244.562 11.8305 243 14.2605 243 16.3427C243 17.5437 243.542 20.3677 248.594 20.6938C249.023 20.7194 250.158 20.7808 250.158 21.7886C250.158 22.6199 249.229 23.1111 247.664 23.1111C245.949 23.1111 244.285 22.6967 243.275 22.3053V25.623C244.788 25.9977 246.493 26.1857 248.491 26.1857C252.803 26.1857 254.735 23.8861 254.735 21.607C254.735 19.0234 252.573 17.3441 248.947 17.1139V17.1139Z" fill="white"/>
<path d="M261.985 15.6341C261.898 15.8401 261.272 17.5143 259.756 19.2498V11.8317L255.718 12.5863V26.0323H259.756V21.8756C260.926 23.5344 261.503 26.0323 261.503 26.0323H266.339C265.861 24.1509 263.768 20.6823 263.768 20.6823C265.004 19.1798 265.964 17.4697 266.602 15.6316H261.985V15.6341ZM274.804 15.6457H278.718V26.0335H274.804V15.6457ZM286.086 26.0323H290V11.8317L286.086 12.4943V26.0323ZM280.377 26.0323H284.286V11.8317L280.376 12.4943L280.377 26.0323ZM248.947 17.1139C248.454 17.0832 247.308 17.0142 247.308 16.0383C247.308 14.8616 248.957 14.8616 249.575 14.8616C250.662 14.8616 252.069 15.166 253.075 15.45C253.075 15.45 253.637 15.638 254.113 15.8286L254.158 15.8401V12.6183L254.096 12.6004C252.91 12.2078 251.531 11.8305 248.973 11.8305C244.562 11.8305 243 14.2605 243 16.3427C243 17.5437 243.542 20.3677 248.594 20.6938C249.023 20.7194 250.158 20.7808 250.158 21.7886C250.158 22.6199 249.229 23.1111 247.664 23.1111C245.949 23.1111 244.285 22.6967 243.275 22.3053V25.623C244.788 25.9977 246.493 26.1857 248.491 26.1857C252.803 26.1857 254.735 23.8861 254.735 21.607C254.735 19.0234 252.573 17.3441 248.947 17.1139V17.1139Z" fill="white"/>
<path d="M276.762 14.6477C277.827 14.6477 278.69 13.8311 278.69 12.8238C278.69 11.8166 277.827 11 276.762 11C275.697 11 274.833 11.8166 274.833 12.8238C274.833 13.8311 275.697 14.6477 276.762 14.6477Z" fill="white"/>
<path d="M276.762 14.6477C277.827 14.6477 278.69 13.8311 278.69 12.8238C278.69 11.8166 277.827 11 276.762 11C275.697 11 274.833 11.8166 274.833 12.8238C274.833 13.8311 275.697 14.6477 276.762 14.6477Z" fill="white"/>
<path d="M272.6 15.4925C268.984 15.6025 267.147 17.1373 267.147 20.1864V26.0313H271.093V21.2659C271.093 19.4395 271.346 18.6567 273.638 18.5813V15.545C273.252 15.4682 272.6 15.4925 272.6 15.4925V15.4925Z" fill="white"/>
<path d="M272.6 15.4925C268.984 15.6025 267.147 17.1373 267.147 20.1864V26.0313H271.093V21.2659C271.093 19.4395 271.346 18.6567 273.638 18.5813V15.545C273.252 15.4682 272.6 15.4925 272.6 15.4925V15.4925Z" fill="white"/>
<path d="M198.626 10.4547C198.748 10.3475 198.873 10.2431 199 10.1417C199.127 10.2431 199.252 10.3475 199.374 10.4547C201.458 12.2883 202.777 14.9875 202.777 18C202.777 21.0122 201.458 23.7114 199.374 25.545C199.252 25.6522 199.127 25.7564 199 25.8581C198.873 25.7564 198.748 25.6522 198.626 25.545C196.542 23.7114 195.223 21.0122 195.223 18C195.223 14.9875 196.542 12.2883 198.626 10.4547Z" fill="white"/>
<path d="M198.626 10.4547C198.748 10.3475 198.873 10.2431 199 10.1417C199.127 10.2431 199.252 10.3475 199.374 10.4547C201.458 12.2883 202.777 14.9875 202.777 18C202.777 21.0122 201.458 23.7114 199.374 25.545C199.252 25.6522 199.127 25.7564 199 25.8581C198.873 25.7564 198.748 25.6522 198.626 25.545C196.542 23.7114 195.223 21.0122 195.223 18C195.223 14.9875 196.542 12.2883 198.626 10.4547Z" fill="white"/>
<path d="M199.637 9.67111C201.205 8.61556 203.087 8 205.111 8C210.573 8 215 12.4769 215 18C215 23.5225 210.573 27.9997 205.111 27.9997C203.087 27.9997 201.205 27.3842 199.637 26.3286C199.717 26.2619 199.799 26.1961 199.877 26.1283C202.206 24.0786 203.542 21.1158 203.542 18C203.542 14.8836 202.206 11.9208 199.876 9.87139C199.799 9.80306 199.717 9.7375 199.637 9.67111Z" fill="white"/>
<path d="M199.637 9.67111C201.205 8.61556 203.087 8 205.111 8C210.573 8 215 12.4769 215 18C215 23.5225 210.573 27.9997 205.111 27.9997C203.087 27.9997 201.205 27.3842 199.637 26.3286C199.717 26.2619 199.799 26.1961 199.877 26.1283C202.206 24.0786 203.542 21.1158 203.542 18C203.542 14.8836 202.206 11.9208 199.876 9.87139C199.799 9.80306 199.717 9.7375 199.637 9.67111Z" fill="white"/>
<path d="M198.363 26.3286C198.283 26.2619 198.201 26.1961 198.124 26.1283C195.794 24.0789 194.458 21.1161 194.458 18C194.458 14.8836 195.794 11.9208 198.124 9.87111C198.201 9.80306 198.283 9.7375 198.363 9.67111C196.795 8.61556 194.913 8 192.889 8C187.427 8 183 12.4772 183 18C183 23.5225 187.427 28 192.889 28C194.913 28 196.795 27.3844 198.363 26.3286Z" fill="white"/>
<path d="M198.363 26.3286C198.283 26.2619 198.201 26.1961 198.124 26.1283C195.794 24.0789 194.458 21.1161 194.458 18C194.458 14.8836 195.794 11.9208 198.124 9.87111C198.201 9.80306 198.283 9.7375 198.363 9.67111C196.795 8.61556 194.913 8 192.889 8C187.427 8 183 12.4772 183 18C183 23.5225 187.427 28 192.889 28C194.913 28 196.795 27.3844 198.363 26.3286Z" fill="white"/>
<path d="M214.691 23.8083V24.1964H214.62V23.9031L214.512 24.1561H214.439L214.331 23.9036V24.1964H214.26V23.8083H214.36L214.476 24.0753L214.591 23.8083H214.691Z" fill="white"/>
<path d="M214.691 23.8083V24.1964H214.62V23.9031L214.512 24.1561H214.439L214.331 23.9036V24.1964H214.26V23.8083H214.36L214.476 24.0753L214.591 23.8083H214.691Z" fill="white"/>
<path d="M214.056 23.8744V24.1964H213.986V23.8744H213.858V23.8092H214.185V23.8744H214.056Z" fill="white"/>
<path d="M214.056 23.8744V24.1964H213.986V23.8744H213.858V23.8092H214.185V23.8744H214.056Z" fill="white"/>
<path d="M155 25.0687C153.901 25.0687 152.803 25.0687 151.688 25.0687C151.567 24.483 151.437 23.9101 151.334 23.3322C151.291 23.0923 151.215 22.9993 150.949 23.0028C149.621 23.02 148.292 23.0157 146.964 23.0051C146.763 23.0036 146.683 23.0703 146.622 23.2546C146.439 23.8052 146.239 24.3502 146.034 24.8932C146.006 24.9669 145.914 25.068 145.851 25.0685C144.654 25.079 143.456 25.0763 142.225 25.0763C142.449 24.5326 142.662 24.0135 142.877 23.4958C144.421 19.7917 145.965 16.088 147.51 12.3841C147.844 11.5819 148.345 11.246 149.208 11.2459C150.169 11.2459 151.13 11.2459 152.116 11.2459C152.212 11.6975 152.309 12.1425 152.401 12.5883C153.161 16.2487 153.919 19.9095 154.68 23.5695C154.778 24.0383 154.893 24.5035 155 24.9704C155 25.0031 155 25.036 155 25.0687ZM150.665 20.1567C150.312 18.4547 149.964 16.7755 149.615 15.0963C149.601 15.0935 149.587 15.0907 149.573 15.0879C148.966 16.7713 148.359 18.4547 147.745 20.1567C148.736 20.1567 149.685 20.1567 150.665 20.1567Z" fill="white"/>
<path d="M155 25.0687C153.901 25.0687 152.803 25.0687 151.688 25.0687C151.567 24.483 151.437 23.9101 151.334 23.3322C151.291 23.0923 151.215 22.9993 150.949 23.0028C149.621 23.02 148.292 23.0157 146.964 23.0051C146.763 23.0036 146.683 23.0703 146.622 23.2546C146.439 23.8052 146.239 24.3502 146.034 24.8932C146.006 24.9669 145.914 25.068 145.851 25.0685C144.654 25.079 143.456 25.0763 142.225 25.0763C142.449 24.5326 142.662 24.0135 142.877 23.4958C144.421 19.7917 145.965 16.088 147.51 12.3841C147.844 11.5819 148.345 11.246 149.208 11.2459C150.169 11.2459 151.13 11.2459 152.116 11.2459C152.212 11.6975 152.309 12.1425 152.401 12.5883C153.161 16.2487 153.919 19.9095 154.68 23.5695C154.778 24.0383 154.893 24.5035 155 24.9704C155 25.0031 155 25.036 155 25.0687ZM150.665 20.1567C150.312 18.4547 149.964 16.7755 149.615 15.0963C149.601 15.0935 149.587 15.0907 149.573 15.0879C148.966 16.7713 148.359 18.4547 147.745 20.1567C148.736 20.1567 149.685 20.1567 150.665 20.1567Z" fill="white"/>
<path d="M140.569 11C141.006 11.0816 141.446 11.1487 141.879 11.2491C142.274 11.3408 142.661 11.4685 143.081 11.5887C142.869 12.5837 142.663 13.5548 142.461 14.505C141.907 14.3417 141.377 14.1536 140.833 14.0328C140.089 13.8676 139.327 13.8047 138.582 14.0133C138.28 14.0981 137.973 14.261 137.735 14.4663C137.326 14.8184 137.321 15.3254 137.711 15.6951C137.98 15.95 138.299 16.1592 138.618 16.3521C139.343 16.7904 140.104 17.1715 140.808 17.6397C141.638 18.191 142.243 18.9491 142.37 19.9741C142.594 21.7868 141.928 23.2147 140.413 24.2249C139.461 24.8601 138.384 25.1438 137.261 25.2489C135.694 25.3956 134.157 25.219 132.659 24.7242C132.559 24.691 132.461 24.6496 132.363 24.6093C132.334 24.5973 132.308 24.5759 132.264 24.5479C132.475 23.5514 132.687 22.5534 132.905 21.5274C133.16 21.6396 133.4 21.752 133.645 21.8512C134.815 22.3254 136.024 22.5423 137.276 22.3063C137.602 22.245 137.934 22.1002 138.21 21.914C138.81 21.51 138.867 20.7507 138.322 20.2761C137.963 19.9641 137.532 19.7337 137.123 19.4833C136.485 19.0922 135.806 18.7589 135.202 18.3213C134.428 17.7603 133.867 17.0122 133.761 16.0179C133.602 14.5293 134.151 13.3205 135.287 12.3813C136.276 11.5641 137.45 11.2014 138.7 11.0491C138.77 11.0406 138.837 11.0167 138.906 11C139.46 11 140.015 11 140.569 11Z" fill="white"/>
<path d="M140.569 11C141.006 11.0816 141.446 11.1487 141.879 11.2491C142.274 11.3408 142.661 11.4685 143.081 11.5887C142.869 12.5837 142.663 13.5548 142.461 14.505C141.907 14.3417 141.377 14.1536 140.833 14.0328C140.089 13.8676 139.327 13.8047 138.582 14.0133C138.28 14.0981 137.973 14.261 137.735 14.4663C137.326 14.8184 137.321 15.3254 137.711 15.6951C137.98 15.95 138.299 16.1592 138.618 16.3521C139.343 16.7904 140.104 17.1715 140.808 17.6397C141.638 18.191 142.243 18.9491 142.37 19.9741C142.594 21.7868 141.928 23.2147 140.413 24.2249C139.461 24.8601 138.384 25.1438 137.261 25.2489C135.694 25.3956 134.157 25.219 132.659 24.7242C132.559 24.691 132.461 24.6496 132.363 24.6093C132.334 24.5973 132.308 24.5759 132.264 24.5479C132.475 23.5514 132.687 22.5534 132.905 21.5274C133.16 21.6396 133.4 21.752 133.645 21.8512C134.815 22.3254 136.024 22.5423 137.276 22.3063C137.602 22.245 137.934 22.1002 138.21 21.914C138.81 21.51 138.867 20.7507 138.322 20.2761C137.963 19.9641 137.532 19.7337 137.123 19.4833C136.485 19.0922 135.806 18.7589 135.202 18.3213C134.428 17.7603 133.867 17.0122 133.761 16.0179C133.602 14.5293 134.151 13.3205 135.287 12.3813C136.276 11.5641 137.45 11.2014 138.7 11.0491C138.77 11.0406 138.837 11.0167 138.906 11C139.46 11 140.015 11 140.569 11Z" fill="white"/>
<path d="M127.689 11.2578C127.503 11.708 127.327 12.1374 127.148 12.5657C125.443 16.6554 123.737 20.7443 122.039 24.837C121.958 25.0319 121.859 25.0832 121.662 25.0815C120.587 25.0725 119.51 25.069 118.435 25.0839C118.207 25.087 118.132 25.0066 118.08 24.8008C117.167 21.2261 116.24 17.6552 115.338 14.0779C115.173 13.4216 114.842 12.9733 114.221 12.6982C113.225 12.2573 112.191 11.9475 111.137 11.6957C111.09 11.6846 111.044 11.6724 111 11.6614C111.005 11.2465 111.005 11.2465 111.398 11.2465C113.281 11.2465 115.164 11.2461 117.046 11.2467C117.94 11.247 118.584 11.7687 118.753 12.6577C119.231 15.1745 119.699 17.6932 120.171 20.211C120.192 20.3211 120.215 20.4307 120.247 20.5858C120.295 20.4934 120.33 20.4416 120.352 20.3851C121.521 17.4102 122.691 14.4355 123.855 11.4584C123.918 11.2958 123.997 11.2407 124.171 11.2421C125.263 11.2508 126.356 11.2463 127.448 11.2469C127.518 11.247 127.589 11.2531 127.689 11.2578Z" fill="white"/>
<path d="M127.689 11.2578C127.503 11.708 127.327 12.1374 127.148 12.5657C125.443 16.6554 123.737 20.7443 122.039 24.837C121.958 25.0319 121.859 25.0832 121.662 25.0815C120.587 25.0725 119.51 25.069 118.435 25.0839C118.207 25.087 118.132 25.0066 118.08 24.8008C117.167 21.2261 116.24 17.6552 115.338 14.0779C115.173 13.4216 114.842 12.9733 114.221 12.6982C113.225 12.2573 112.191 11.9475 111.137 11.6957C111.09 11.6846 111.044 11.6724 111 11.6614C111.005 11.2465 111.005 11.2465 111.398 11.2465C113.281 11.2465 115.164 11.2461 117.046 11.2467C117.94 11.247 118.584 11.7687 118.753 12.6577C119.231 15.1745 119.699 17.6932 120.171 20.211C120.192 20.3211 120.215 20.4307 120.247 20.5858C120.295 20.4934 120.33 20.4416 120.352 20.3851C121.521 17.4102 122.691 14.4355 123.855 11.4584C123.918 11.2958 123.997 11.2407 124.171 11.2421C125.263 11.2508 126.356 11.2463 127.448 11.2469C127.518 11.247 127.589 11.2531 127.689 11.2578Z" fill="white"/>
<path d="M126.263 25.077C127.246 20.4538 128.223 15.863 129.202 11.261C130.393 11.261 131.57 11.261 132.77 11.261C132.622 11.962 132.476 12.6495 132.33 13.3368C131.522 17.138 130.711 20.9386 129.911 24.7417C129.856 25.0058 129.763 25.0898 129.49 25.0845C128.512 25.0655 127.534 25.077 126.556 25.077C126.468 25.077 126.38 25.077 126.263 25.077Z" fill="white"/>
<path d="M126.263 25.077C127.246 20.4538 128.223 15.863 129.202 11.261C130.393 11.261 131.57 11.261 132.77 11.261C132.622 11.962 132.476 12.6495 132.33 13.3368C131.522 17.138 130.711 20.9386 129.911 24.7417C129.856 25.0058 129.763 25.0898 129.49 25.0845C128.512 25.0655 127.534 25.077 126.556 25.077C126.468 25.077 126.38 25.077 126.263 25.077Z" fill="white"/>
<path d="M25.4878 12C21.0142 12 17.6182 15.2327 17.6182 19.0848C17.6182 22.5698 20.4053 25 24.1997 25C28.6733 25 32.0459 21.6756 32.0459 17.8237C32.0693 14.3158 29.2822 12 25.4878 12ZM24.4807 21.7215C22.7709 21.7215 21.5765 20.621 21.5765 18.9242C21.5765 17.0442 23.0519 15.2557 25.1833 15.2557C26.8932 15.2557 28.0875 16.4021 28.0875 18.0988C28.111 20.0018 26.6121 21.7215 24.4807 21.7215Z" fill="white"/>
<path d="M52.397 12C47.9234 12 44.5508 15.2327 44.5508 19.0848C44.5508 22.5698 47.3379 25 51.1323 25C55.6059 25 58.9785 21.6756 58.9785 17.8237C59.0019 14.3158 56.2148 12 52.397 12ZM51.4133 21.7215C49.7035 21.7215 48.5091 20.621 48.5091 18.9242C48.5091 17.0442 49.9845 15.2557 52.1159 15.2557C53.8258 15.2557 55.0202 16.4021 55.0202 18.0988C55.0202 20.0018 53.5447 21.7215 51.4133 21.7215Z" fill="white"/>
<path d="M72.1432 16.1037C72.1432 13.765 70.2928 12.2748 66.9202 12.2748H62.189L60.1045 24.7246H64.086L64.742 20.8039H64.9293L67.0373 24.7246H71.6045L68.6767 20.3682C70.8549 19.6346 72.1432 18.0525 72.1432 16.1037ZM65.7724 18.1672H65.187L65.6319 15.5535H66.1706C67.412 15.5535 68.0678 15.9204 68.0678 16.7229C68.0678 17.6628 67.131 18.1672 65.7724 18.1672Z" fill="white"/>
<path d="M13.05 17.2504C11.5275 16.4938 11.1996 16.3105 11.1996 15.8978C11.1996 15.3933 11.8086 15.1412 12.6284 15.1412C13.5887 15.1412 15.0408 15.2557 16.4695 16.5856C16.8208 15.508 17.4065 14.545 18.1559 13.6966C16.1416 12.5732 14.2679 12 12.5581 12C9.16194 12 7.19453 13.7883 7.19453 15.9437C7.19453 17.8008 8.62325 18.7636 10.3096 19.612C11.832 20.3686 12.2068 20.621 12.2068 21.0793C12.2068 21.5838 11.5744 21.8589 10.7312 21.8589C9.27906 21.8589 7.59268 20.9648 6.58555 20.0477L6 23.5097C7.03057 24.2434 8.52957 25 10.8015 25C14.3147 25 16.2119 23.2576 16.2119 21.0337C16.2119 19.1993 14.994 18.2135 13.05 17.2504Z" fill="white"/>
<path d="M42.5607 17.7316H37.8764L38.2511 15.5535H43.2633C43.919 14.2466 44.9263 13.1231 46.1675 12.2748H37.97C36.1431 12.2748 34.5972 13.49 34.3396 15.1408L32.7471 24.7475H36.7286L37.3846 20.8268H42.1157L42.467 18.6947C42.4904 18.3508 42.5139 18.0525 42.5607 17.7316Z" fill="white"/>
<path d="M72.2383 12.2748C73.3158 13.0772 73.9715 14.2007 74.1121 15.5535H77.4378L75.9156 24.7246H79.8971L81.4196 15.5535H85.1203L85.659 12.2748H72.2383Z" fill="white"/>
</g>
</svg>
