<svg width="520" height="60" viewBox="0 0 520 60" fill="none" xmlns="http://www.w3.org/2000/svg">
<g opacity="0.5">
<path d="M92.8174 56.7761C93.314 56.4136 93.6302 55.8699 93.6302 55.2365V35.7588C93.6302 35.1242 93.314 34.5805 92.8174 34.2181H126.045C127.129 34.2181 127.987 35.0793 127.987 36.0755V54.9189C127.987 55.9608 127.129 56.7761 126.045 56.7761H92.8174ZM121.847 44.2743V47.8075H122.75V45.6785C122.75 45.5427 122.75 45.4521 122.795 45.3614C122.795 45.3163 122.885 45.2257 122.93 45.1802C123.021 45.135 123.065 45.135 123.156 45.0896C123.291 45.0444 123.336 45.0444 123.427 45.0444H123.698V44.1837H123.517C123.336 44.1837 123.201 44.2289 123.065 44.3195C122.93 44.4101 122.795 44.5914 122.705 44.7274V44.2743H121.847V44.2743ZM119.589 46.1767V46.2673H121.395V46.0409C121.395 45.7239 121.395 45.4972 121.35 45.2708C121.305 45.0896 121.26 44.8632 121.169 44.7274C121.079 44.5916 120.899 44.4556 120.763 44.365C120.583 44.2743 120.402 44.2292 120.131 44.2292C119.815 44.2292 119.544 44.2743 119.363 44.365C119.183 44.4556 119.002 44.6365 118.912 44.7726C118.822 44.9538 118.732 45.135 118.732 45.3614C118.732 45.5878 118.686 45.8145 118.686 46.0409C118.686 46.2673 118.732 46.494 118.732 46.7204C118.732 46.9468 118.777 47.128 118.867 47.3092C118.958 47.4905 119.093 47.6263 119.273 47.762C119.454 47.8526 119.679 47.8978 120.041 47.8978C120.447 47.8978 120.763 47.8075 120.989 47.5811C121.215 47.3544 121.305 47.0374 121.35 46.6298H120.538C120.538 46.8562 120.447 46.9922 120.402 47.128C120.312 47.2186 120.176 47.2638 120.041 47.2638C119.95 47.2638 119.861 47.2638 119.815 47.2186C119.77 47.1732 119.725 47.0828 119.68 47.0374C119.68 46.9468 119.635 46.8562 119.635 46.7658C119.589 46.6749 119.589 46.5392 119.589 46.4485V46.177V46.1767ZM120.492 45.6333H119.589V45.4975C119.589 45.3614 119.635 45.3163 119.635 45.2257C119.635 45.135 119.635 45.0444 119.68 44.999L119.815 44.8632C119.905 44.8632 119.95 44.8178 120.041 44.8178C120.131 44.8178 120.221 44.8178 120.267 44.8632C120.312 44.8632 120.357 44.9538 120.402 44.999C120.402 45.0896 120.447 45.1802 120.447 45.2708C120.492 45.3614 120.492 45.4972 120.492 45.6333V45.6333ZM117.061 44.8629V47.8529H117.964V44.9081H118.506V44.2741H117.964V43.9571C117.964 43.8664 118.009 43.7758 118.055 43.7304C118.1 43.7304 118.19 43.6852 118.325 43.6852H118.506V43.006C118.325 42.9609 118.145 42.9609 118.009 42.9609C117.874 42.9609 117.738 43.006 117.603 43.006C117.467 43.006 117.378 43.0966 117.287 43.1418C117.196 43.2324 117.152 43.2776 117.106 43.4137C117.106 43.5494 117.061 43.6852 117.061 43.8213V44.2289H116.61V44.8632H117.061V44.8629ZM114.623 46.6298H113.856V46.7656C113.856 46.9468 113.856 47.0828 113.901 47.2186C113.992 47.3544 114.036 47.4902 114.127 47.5811C114.217 47.6717 114.397 47.762 114.533 47.8075C114.713 47.8075 114.895 47.8526 115.165 47.8526C115.346 47.8526 115.572 47.8526 115.707 47.8075C115.842 47.762 115.977 47.7169 116.113 47.6263C116.249 47.5356 116.339 47.3999 116.384 47.2638C116.429 47.128 116.475 46.9468 116.475 46.7656C116.475 46.494 116.429 46.2673 116.294 46.1315C116.203 45.9957 115.978 45.86 115.707 45.7691L115.165 45.5878C114.984 45.5427 114.894 45.5427 114.849 45.4066C114.804 45.2708 114.759 45.2257 114.759 45.135C114.759 44.9993 114.804 44.9084 114.894 44.8632C114.984 44.8178 115.075 44.7726 115.21 44.7726C115.391 44.7726 115.481 44.8178 115.526 44.9084C115.572 44.999 115.616 45.135 115.616 45.3163H116.429V45.1805C116.429 44.8632 116.294 44.5914 116.113 44.4101C115.932 44.2289 115.616 44.1386 115.21 44.1386C114.984 44.1386 114.759 44.1837 114.623 44.2289C114.488 44.2743 114.307 44.3647 114.217 44.4556C114.116 44.5581 114.039 44.6818 113.992 44.8178C113.992 44.9535 113.946 45.0896 113.946 45.2257C113.946 45.4972 113.992 45.7239 114.127 45.8597C114.217 45.9955 114.397 46.1313 114.669 46.2221L115.3 46.4485C115.391 46.494 115.481 46.5392 115.526 46.5843C115.572 46.6749 115.616 46.7201 115.616 46.8562C115.616 46.992 115.572 47.128 115.481 47.1732C115.391 47.2186 115.255 47.2638 115.12 47.2638C114.939 47.2638 114.849 47.2186 114.759 47.128C114.669 47.0374 114.623 46.9016 114.623 46.7656V46.6298V46.6298ZM110.65 44.2743L110.606 47.8981H111.509V45.5427C111.509 45.135 111.644 44.9538 111.96 44.9538C112.14 44.9538 112.231 44.999 112.276 45.0444C112.321 45.0896 112.366 45.2257 112.366 45.4066V47.8526H113.269V45.2257C113.269 44.8632 113.178 44.5914 113.043 44.4553C112.908 44.2743 112.682 44.1837 112.411 44.1837C112.231 44.1837 112.005 44.2743 111.869 44.3195C111.734 44.365 111.599 44.5007 111.509 44.682V44.2743H110.65V44.2743ZM107.49 45.3614H108.258V45.2708C108.258 45.0896 108.303 44.9993 108.348 44.9084C108.393 44.8178 108.528 44.7726 108.664 44.7726C108.8 44.7726 108.934 44.8632 108.98 44.9084C109.025 44.9538 109.07 45.0896 109.07 45.2257C109.07 45.3614 109.025 45.4521 108.98 45.4972C108.935 45.5427 108.844 45.5878 108.709 45.633L108.212 45.7691L107.806 45.9049C107.671 45.9955 107.58 46.0406 107.535 46.1315C107.482 46.2336 107.437 46.3396 107.4 46.4485C107.4 46.5843 107.355 46.7656 107.355 46.9016C107.355 46.9922 107.355 47.128 107.4 47.2638C107.4 47.3544 107.445 47.4905 107.535 47.5811C107.625 47.6717 107.671 47.762 107.806 47.8075C107.941 47.8526 108.077 47.8981 108.212 47.8981C108.438 47.8981 108.619 47.8526 108.754 47.8075C108.889 47.762 109.025 47.6263 109.115 47.445C109.115 47.4905 109.16 47.5808 109.16 47.6263C109.16 47.6717 109.16 47.762 109.206 47.8075H110.109C110.063 47.6717 110.018 47.5811 110.018 47.4905C109.973 47.445 109.973 47.2638 109.973 47.128V45.2708C109.973 45.0896 109.973 44.9538 109.928 44.8178C109.883 44.682 109.838 44.5462 109.747 44.4556C109.703 44.365 109.522 44.2743 109.386 44.2289C109.251 44.1837 109.025 44.1386 108.754 44.1386C108.574 44.1386 108.393 44.1386 108.258 44.1837C108.122 44.2289 107.987 44.2743 107.851 44.365C107.716 44.4556 107.625 44.5914 107.58 44.7274C107.535 44.9084 107.49 45.0444 107.49 45.2708V45.3614V45.3614ZM109.115 46.0409V46.7204C109.115 46.8562 109.115 46.9468 109.07 46.992C109.025 47.0374 108.98 47.0828 108.935 47.128C108.889 47.1732 108.8 47.1732 108.754 47.2186C108.709 47.2638 108.619 47.2638 108.574 47.2638C108.438 47.2638 108.348 47.2186 108.303 47.128C108.258 47.0374 108.212 46.9016 108.212 46.7656C108.212 46.6298 108.258 46.494 108.348 46.4034C108.438 46.3128 108.574 46.2676 108.754 46.2221C108.8 46.2221 108.889 46.2221 108.935 46.1767C108.98 46.1315 109.07 46.0861 109.115 46.0409V46.0409ZM105.278 44.2743V47.8075H106.181V45.6785C106.181 45.5427 106.181 45.4521 106.226 45.3614C106.226 45.3163 106.317 45.2257 106.361 45.1802C106.452 45.135 106.497 45.135 106.587 45.0896C106.722 45.0444 106.768 45.0444 106.858 45.0444H107.129V44.1837H106.948C106.768 44.1837 106.632 44.2289 106.497 44.3195C106.361 44.4101 106.226 44.5914 106.136 44.7274V44.2743H105.278V44.2743ZM105.414 43.0966H102.389V43.8667H103.427V47.8072H104.375V43.8667H105.414V43.0964L105.414 43.0966ZM100.176 46.2673H102.028V45.4972H100.176V46.2676V46.2673ZM97.9192 46.1767V46.2673H99.7252V46.0409C99.7252 45.7239 99.7252 45.4972 99.6799 45.2708C99.6349 45.0896 99.5896 44.8632 99.4993 44.7274C99.4089 44.5916 99.2286 44.4556 99.0933 44.365C98.9124 44.2743 98.732 44.2292 98.4608 44.2292C98.1451 44.2292 97.8742 44.2743 97.6935 44.365C97.5129 44.4556 97.3323 44.6365 97.242 44.7726C97.1516 44.9538 97.0613 45.135 97.0613 45.3614C97.0613 45.5878 97.0163 45.8145 97.0163 46.0409C97.0163 46.2673 97.0613 46.494 97.0613 46.7204C97.0613 46.9468 97.1066 47.128 97.1967 47.3092C97.2873 47.4905 97.4226 47.6263 97.6032 47.762C97.7838 47.8526 98.0095 47.8978 98.3707 47.8978C98.777 47.8978 99.1383 47.8075 99.3189 47.5811C99.5448 47.3544 99.6349 47.0374 99.6799 46.6298H98.8673C98.8673 46.8562 98.777 46.9922 98.732 47.128C98.6417 47.2186 98.5061 47.2638 98.3707 47.2638C98.2804 47.2638 98.1901 47.2638 98.1451 47.2186C98.0998 47.1732 98.0548 47.0828 98.0098 47.0374C98.0098 46.9468 97.9645 46.8562 97.9645 46.7658C97.9192 46.6749 97.9192 46.5392 97.9192 46.4485V46.177V46.1767ZM98.8673 45.6333H97.9642V45.4975C97.9642 45.3614 98.0095 45.3163 98.0095 45.2257C98.0095 45.135 98.0095 45.0444 98.0548 44.999L98.1901 44.8632C98.2804 44.8632 98.3255 44.8178 98.4158 44.8178C98.5061 44.8178 98.5964 44.8178 98.6417 44.8632C98.6867 44.8632 98.732 44.9538 98.777 44.999C98.777 45.0896 98.822 45.1802 98.822 45.2708C98.8673 45.3614 98.8673 45.4972 98.8673 45.6333V45.6333Z" fill="#EBEBEB"/>
<path d="M92.7724 54.7831C92.7724 55.8251 91.9146 56.6403 90.9214 56.6403H72.0952C71.0567 56.6403 70.2441 55.7796 70.2441 54.7831V35.8946C70.2441 34.8527 71.102 34.0374 72.0952 34.0374H90.9214C91.9599 34.0374 92.7724 34.8981 92.7724 35.8946V54.7831ZM82.7951 45.5878L83.8786 45.3163V43.0512C83.8786 42.553 84.1042 42.1908 84.4655 42.0547C84.7361 41.9189 85.0071 41.9189 85.0071 41.9189V40.877C85.0071 40.877 84.9168 40.877 84.7364 40.9224C84.1042 41.1034 83.8333 41.7829 83.8333 41.7829V41.2395L82.7948 41.511V45.5878H82.7951ZM77.1967 46.9468L78.4158 46.7204C78.4158 46.7204 78.1451 46.5392 78.1451 45.5878V43.504L78.9577 43.2779V42.4172L78.1899 42.5984V41.6923L77.0613 41.9641V42.8702L76.5197 43.006V43.8667L77.0613 43.7309V45.7691C77.0613 46.6752 77.1967 46.9468 77.1967 46.9468V46.9468ZM80.7184 42.689C81.1247 42.6436 81.2603 42.8702 81.2603 43.2779V43.4591L80.1765 43.7307C80.1765 43.1418 80.3571 42.7796 80.7184 42.6887V42.689ZM79.093 44.5462C79.093 45.7239 79.4092 46.5392 80.7184 46.2221C82.1178 45.9051 82.2535 44.9086 82.2535 44.5462V44.365L81.2603 44.6365V44.7726C81.215 45.0442 81.1249 45.2708 80.7634 45.3614C80.3574 45.4521 80.2218 45.135 80.2218 44.4553V44.4101L82.3888 43.9119V43.3685C82.3888 42.372 81.9372 41.6471 80.7184 41.9189C80.0865 42.1002 79.6799 42.4172 79.4092 42.8702C79.1833 43.2776 79.093 43.8213 79.093 44.5462V44.5462ZM88.8447 42.1453C88.89 43.4136 89.1607 44.2292 90.5151 43.8664C91.5083 43.5949 92.0502 42.9606 92.0502 41.9189V41.7831L91.0117 42.0547V42.2811C91.0117 42.5984 90.9667 42.9606 90.5604 43.0515C90.1089 43.1873 90.0185 42.7793 90.0185 42.0095V41.6471C90.0185 40.877 90.1539 40.4694 90.5604 40.3788C90.8764 40.2881 91.0117 40.4694 91.0117 40.9222V41.058L92.0952 40.7864V40.7412C92.0952 40.3333 92.0049 40.0617 91.8696 39.8351C91.7342 39.6087 91.373 39.3823 90.5151 39.5635C89.1157 39.8805 88.7997 40.877 88.8447 42.1453V42.1453ZM87.2194 42.5984L87.1743 43.1418C87.1743 43.5494 86.9937 43.8664 86.6325 43.9571C86.3165 44.0477 86.1812 43.8664 86.1812 43.5949C86.1812 43.2776 86.3618 43.0966 86.6777 42.9154C86.9937 42.7342 87.2194 42.5984 87.2194 42.5984V42.5984ZM85.0524 43.8664C85.0524 44.5914 85.5039 45.0896 86.2715 44.9084C87.0387 44.682 87.2647 44.1383 87.2647 44.1383C87.3097 44.3195 87.4 44.5007 87.4 44.5007L88.4385 44.2743C88.4385 44.2743 88.3031 44.1386 88.3031 43.2776V41.4659C88.3031 40.6958 87.9419 40.1975 86.8131 40.4694C85.9099 40.6958 85.4136 41.1034 85.278 41.6471C85.188 41.9641 85.233 42.2811 85.233 42.2811L86.2715 42.0095V41.7829C86.2715 41.6016 86.3618 41.3301 86.7228 41.2395C87.084 41.1488 87.1743 41.3301 87.1743 41.5565C87.1743 41.828 87.1743 41.9641 86.4068 42.2811C85.5943 42.5984 85.0524 42.9154 85.0524 43.8664V43.8664ZM71.3279 49.8007C71.3729 49.8007 71.418 49.7553 71.3279 49.8007C71.4632 49.7553 71.8695 49.6649 72.2308 49.574H72.2758V48.4418L70.786 48.804C70.741 48.8946 70.6957 49.0306 70.6957 49.1664C70.6957 49.4834 70.9664 49.8007 71.3279 49.8007V49.8007ZM71.3279 51.3406C71.3729 51.3406 71.418 51.2954 71.3279 51.3406C71.4632 51.3406 71.8695 51.25 72.2308 51.1594H72.2758V49.9817L70.786 50.3441C70.741 50.4347 70.6957 50.5705 70.6957 50.7066C70.6957 51.0236 70.9664 51.3406 71.3279 51.3406V51.3406ZM71.3279 52.8356H71.418C71.5083 52.8356 71.9148 52.745 72.2758 52.6544H72.3211V51.4767L70.786 51.8391C70.741 51.9297 70.6957 52.0655 70.6957 52.2013C70.6957 52.5186 70.9664 52.8356 71.3279 52.8356V52.8356ZM71.1473 48.3509L72.3211 48.0793V41.6019L71.1473 41.8735V48.3509V48.3509ZM74.0818 47.8075C74.0818 47.3996 73.7205 47.0826 73.3143 47.0826C72.908 47.0826 72.5467 47.3996 72.5467 47.8075V53.877C72.5467 54.9644 73.4499 55.8251 74.5331 55.8251H76.6101V50.4796C76.6101 50.1626 76.4747 49.8453 76.1585 49.7096L74.3075 48.4412V51.2949C74.3075 51.3855 74.2624 51.4307 74.1721 51.4307C74.0818 51.4307 74.0368 51.3855 74.0368 51.2949C74.0818 51.2949 74.0818 48.2148 74.0818 47.8072V47.8075ZM75.1203 43.2776C74.3525 43.4588 74.0818 44.0931 74.0818 44.0931V43.64L73.0433 43.9116V46.8562C73.1787 46.8107 73.314 46.8107 73.4496 46.8107C73.7203 46.8107 73.9915 46.9013 74.1718 47.0826V45.1802C74.1718 44.7271 74.3978 44.365 74.7137 44.3195C74.9844 44.2743 75.1653 44.365 75.1653 44.7726V47.5354L76.2938 47.2638V44.3195C76.2488 43.5494 75.9779 43.0512 75.12 43.2776H75.1203ZM91.418 37.8421C91.734 37.8421 92.0049 38.1137 92.0499 38.4764C92.0499 38.8386 91.7793 39.1104 91.418 39.1104C91.0567 39.1104 90.7858 38.8389 90.7858 38.4764C90.7858 38.114 91.0567 37.8421 91.418 37.8421V37.8421ZM91.418 39.1556C91.7793 39.1556 92.0952 38.8386 92.1402 38.431C92.1415 38.3355 92.1236 38.2407 92.0878 38.1522C92.0519 38.0637 91.9987 37.9834 91.9314 37.9158C91.8641 37.8483 91.784 37.795 91.6958 37.759C91.6077 37.723 91.5132 37.7051 91.418 37.7063C91.0117 37.7063 90.6958 38.0685 90.6958 38.431C90.6958 38.8386 91.0567 39.1556 91.418 39.1556ZM91.3727 38.3403H91.2374V38.0688H91.3727C91.463 38.0688 91.508 38.114 91.508 38.2046C91.508 38.2952 91.463 38.3403 91.3727 38.3403ZM91.1471 37.933H91.102V38.7028H91.2374V38.3403H91.418C91.5083 38.3403 91.5533 38.3858 91.5533 38.4761V38.6122L91.5986 38.6576H91.734C91.734 38.6576 91.6889 38.6576 91.6889 38.6122V38.4764C91.6889 38.3858 91.6437 38.3406 91.5536 38.3406C91.6437 38.3406 91.6889 38.2497 91.6889 38.1591C91.6889 37.9782 91.5986 37.9327 91.463 37.9327H91.1471V37.933Z" fill="white"/>
<path d="M383.339 50.4839V39.5887H379.362V37H390.178V39.5887H386.201V50.4839H383.339Z" fill="white"/>
<path d="M389.727 50.4839V40.7016H392.359V42.25C392.982 40.9355 393.786 40.7016 394.647 40.7016H395.663V43.3226H394.802C393.564 43.3226 392.457 44.0242 392.457 46.1694V50.4919H389.727V50.4839ZM396.902 46.9032V40.7016H399.624V46.2984C399.624 47.4436 400.19 48.2903 401.354 48.2903C402.478 48.2903 403.191 47.4436 403.191 46.3145V40.7016H405.913V50.4919H403.322V49.2581C402.666 50.2339 401.69 50.7177 400.452 50.7177C398.271 50.7097 396.902 49.2339 396.902 46.9032V46.9032ZM407.078 47.7339L409.448 47.2016C409.562 47.9597 410.177 48.5323 411.366 48.5323C412.285 48.5323 412.793 48.1613 412.793 47.7016C412.793 47.3306 412.588 47.0565 411.645 46.8548L410.087 46.5242C408.095 46.0968 407.25 45.1936 407.25 43.5484C407.25 41.871 408.66 40.5161 411.309 40.5161C414.122 40.5161 415.253 42.1774 415.368 43.2661L412.982 43.7823C412.867 43.2097 412.441 42.5806 411.252 42.5806C410.497 42.5806 409.94 42.9113 409.94 43.3952C409.94 43.7984 410.218 44.0242 410.71 44.1371L412.982 44.6532C414.712 45.0403 415.516 46.0565 415.516 47.5C415.516 49.0484 414.261 50.6774 411.383 50.6774C408.218 50.6694 407.184 48.8065 407.078 47.7339V47.7339ZM420.747 50.4839C418.984 50.4839 417.803 49.5242 417.803 47.621V43.0403H416.131V40.6935H417.803V38.5161L420.526 37.7419V40.6935H422.535V43.0403H420.526V47.1371C420.526 47.8548 420.903 48.1371 421.633 48.1371H422.682V50.4839H420.747ZM424.158 50.4839V37.0081H426.881V50.4919H424.158V50.4839ZM435.089 40.7016H438L433.851 54H430.94L432.088 50.4919H430.587L427.848 40.7016H430.759L432.809 48.2742L435.089 40.7016ZM356 42.9113H362.388V37.8952L367.488 42.9113L362.388 47.9194V50.4839H368.579V42.9113H374.261V37.0081H356V42.9113Z" fill="white"/>
<path fill-rule="evenodd" clip-rule="evenodd" d="M157.395 46.4849C157.395 46.8797 157.395 47.2745 157.395 47.6693C157.395 49.3183 157.388 50.9674 157.4 52.6163C157.403 52.9922 157.307 53.1875 156.877 53.1761C156.076 53.1549 155.274 53.1622 154.473 53.1735C154.119 53.1786 153.999 53.0344 154 52.6908C154.008 49.0093 154.007 45.3278 154.003 41.6463C154.002 41.1571 154.257 40.8103 154.608 40.5187C155.599 39.6962 157.289 39.9745 157.923 41.0832C158.792 42.6026 159.571 44.1678 160.339 45.738C160.439 45.9426 160.555 46.1396 160.666 46.3448C160.896 46.2428 160.799 46.0664 160.799 45.9383C160.807 44.3083 160.804 42.6785 160.805 41.0487C160.805 40.2881 160.806 40.2879 161.608 40.2872C162.214 40.2868 162.824 40.3245 163.425 40.2764C164.009 40.2298 164.203 40.3989 164.192 41.0001C164.154 43.0702 164.177 45.1414 164.177 47.2123C164.177 48.6504 164.179 50.0885 164.176 51.5266C164.175 52.367 163.739 53.0249 163.021 53.285C162.255 53.5629 161.495 53.3461 160.919 52.6866C160.586 52.3047 160.347 51.865 160.115 51.422C159.25 49.7712 158.389 48.1183 157.527 46.4662C157.483 46.4725 157.439 46.4787 157.395 46.4849Z" fill="white"/>
<path fill-rule="evenodd" clip-rule="evenodd" d="M171.589 45.388C170.692 44.9343 169.625 45.2074 169.075 46.027C168.424 46.9979 168.463 48.3893 169.167 49.3274C169.776 50.1398 170.907 50.3658 171.906 49.8673C172.515 49.5631 172.967 49.0997 173.312 48.523C173.843 47.6367 173.687 47.7484 174.579 48.1762C175.087 48.42 175.587 48.6804 176.092 48.9307C176.353 49.0596 176.481 49.2132 176.336 49.5234C175.107 52.1429 172.651 53.8974 169.396 53.3291C168.49 53.1711 167.685 52.7577 167.035 52.1292C165.425 50.5713 164.632 48.6978 165.248 46.4967C165.891 44.1983 167.458 42.7026 169.887 42.3112C171.641 42.0288 173.209 42.5795 174.461 43.8658C174.908 44.3253 175.252 44.8618 175.608 45.3892C175.798 45.6695 175.76 45.8538 175.467 46.0518C173.954 47.0724 172.448 48.1022 170.953 49.1474C170.593 49.3991 170.364 49.4217 170.131 49.0019C169.87 48.5322 169.572 48.0784 169.251 47.6453C169.003 47.3104 169.088 47.1025 169.407 46.8988C169.995 46.522 170.579 46.1374 171.159 45.7476C171.313 45.6442 171.519 45.592 171.589 45.388Z" fill="white"/>
<path fill-rule="evenodd" clip-rule="evenodd" d="M183.821 47.859C183.803 46.5565 183.123 45.7953 181.995 45.8141C180.91 45.832 180.048 46.7758 180.057 47.9342C180.066 49.0688 180.893 49.9179 181.98 49.9096C182.837 49.9031 183.981 49.2669 183.821 47.859ZM181.897 53.4019C179.361 53.7081 176.413 51.0023 176.44 47.8168C176.464 44.882 178.897 42.2282 181.984 42.2623C185.303 42.299 187.528 45.0313 187.473 48.0566C187.41 51.4929 184.313 53.6415 181.897 53.4019Z" fill="white"/>
<path fill-rule="evenodd" clip-rule="evenodd" d="M195.981 46.2143C195.981 45.16 195.994 44.1054 195.974 43.0514C195.967 42.6772 196.101 42.5449 196.477 42.5522C197.317 42.5688 198.158 42.5731 198.997 42.5504C199.418 42.539 199.523 42.7075 199.52 43.0943C199.504 45.0112 199.508 46.9283 199.516 48.8453C199.519 49.4639 199.881 49.8803 200.419 49.9302C200.939 49.9786 201.385 49.598 201.501 49.0049C201.516 48.9298 201.525 48.8529 201.528 48.7765C201.548 48.2601 201.579 47.7437 201.581 47.227C201.589 45.866 201.597 44.5047 201.578 43.1438C201.572 42.7118 201.703 42.5212 202.172 42.5367C202.972 42.5632 203.774 42.5537 204.576 42.5397C204.975 42.5327 205.17 42.6301 205.165 43.0865C205.141 45.0991 205.226 47.1152 205.136 49.1243C205.02 51.7399 203.174 53.522 200.699 53.4071C199.977 53.3736 199.258 53.4115 198.571 53.1151C196.931 52.4072 196 50.911 195.951 49.0319C195.927 48.0933 195.947 47.1536 195.947 46.2143H195.981Z" fill="white"/>
<path fill-rule="evenodd" clip-rule="evenodd" d="M212.703 47.0508C212.703 45.3077 212.699 43.5645 212.704 41.8214C212.709 39.655 214.386 38.0098 216.596 38.0002C217.221 37.9976 217.846 38.019 218.47 38.0017C218.829 37.9917 219.01 38.0763 218.997 38.4768C218.973 39.2998 218.977 40.1244 218.996 40.9475C219.003 41.2839 218.86 41.3849 218.545 41.3751C218.135 41.3624 217.725 41.3713 217.315 41.3747C217.077 41.3765 216.844 41.4048 216.669 41.5895C216.467 41.8043 216.407 42.0836 216.49 42.3367C216.562 42.5588 216.828 42.4588 217.01 42.4633C217.518 42.4758 218.026 42.4829 218.533 42.4649C218.893 42.452 219.008 42.5953 219 42.9395C218.981 43.7436 218.982 44.5486 218.999 45.3528C219.006 45.7014 218.871 45.836 218.519 45.8253C217.992 45.8091 217.462 45.8478 216.937 45.8135C216.493 45.7845 216.367 45.9458 216.371 46.369C216.389 48.3994 216.358 50.4303 216.392 52.4603C216.401 53.0389 216.244 53.24 215.637 53.1989C214.84 53.145 214.036 53.169 213.236 53.1927C212.842 53.2045 212.674 53.0962 212.678 52.6821C212.693 50.8051 212.685 48.9279 212.685 47.0508C212.691 47.0508 212.697 47.0508 212.703 47.0508Z" fill="white"/>
<path fill-rule="evenodd" clip-rule="evenodd" d="M190.11 53.1706C189.485 53.1705 188.859 53.1527 188.235 53.1772C187.857 53.192 187.704 53.0641 187.712 52.6889C187.728 51.9613 187.728 51.2329 187.712 50.5054C187.705 50.16 187.836 50.033 188.191 50.0408C189.011 50.0589 189.831 50.0462 190.652 50.0458C190.788 50.0457 190.925 50.0485 191.062 50.0422C191.267 50.0327 191.47 49.9702 191.528 49.7654C191.596 49.5277 191.384 49.4398 191.209 49.3533C190.617 49.0615 190.014 48.7905 189.435 48.4756C188.121 47.7604 187.606 46.5411 187.894 44.8979C188.085 43.8085 189.232 42.7714 190.529 42.6026C191.809 42.436 193.102 42.5509 194.39 42.5414C194.661 42.5394 194.78 42.6699 194.779 42.9273C194.778 43.6935 194.778 44.4596 194.78 45.2257C194.781 45.5339 194.603 45.6022 194.325 45.5983C193.563 45.5877 192.802 45.5952 192.04 45.5952C191.802 45.5953 191.526 45.5819 191.464 45.8654C191.398 46.1589 191.682 46.2401 191.888 46.3322C192.598 46.6504 193.294 46.9947 193.955 47.4034C195.085 48.1025 195.64 49.3963 195.34 50.6205C194.985 52.0664 193.976 52.9608 192.567 53.1078C191.748 53.1932 190.929 53.1728 190.11 53.1706Z" fill="white"/>
<path fill-rule="evenodd" clip-rule="evenodd" d="M209.261 43.7313C209.992 42.879 210.754 42.4609 211.758 42.5329C212.15 42.561 212.318 42.6655 212.306 43.0719C212.282 43.8563 212.287 44.6422 212.305 45.4269C212.312 45.7777 212.214 45.9409 211.82 45.9661C210.257 46.0662 209.716 46.1189 209.723 48.3181C209.728 49.7352 209.706 51.1527 209.737 52.5691C209.748 53.0612 209.568 53.1946 209.095 53.1789C208.217 53.1495 207.338 53.1614 206.46 53.1745C206.115 53.1797 205.973 53.0675 205.974 52.7108C205.984 49.4745 205.984 46.2382 205.974 43.0019C205.973 42.6328 206.151 42.5411 206.474 42.5434C207.177 42.5482 207.881 42.5674 208.582 42.5351C209.099 42.5114 209.365 42.655 209.264 43.2052C209.244 43.3155 209.261 43.4324 209.261 43.7313Z" fill="white"/>
<mask id="mask0_20_1496" style="mask-type:alpha" maskUnits="userSpaceOnUse" x="250" y="34" width="22" height="8">
<path d="M250.584 34H271.913V41.6029H250.584V34Z" fill="white"/>
</mask>
<g mask="url(#mask0_20_1496)">
<path fill-rule="evenodd" clip-rule="evenodd" d="M261.213 34C264.788 35.5046 268.33 37.0989 271.901 38.6128C271.92 39.6088 271.911 40.6051 271.911 41.6029C264.809 41.5992 257.705 41.601 250.601 41.601C250.59 40.6126 250.605 39.6264 250.584 38.6379C254.121 37.0836 257.661 35.5199 261.213 34Z" fill="white"/>
</g>
<path fill-rule="evenodd" clip-rule="evenodd" d="M289.549 40.8441C290.015 40.8441 290.483 40.8422 290.951 40.8404C291.805 42.3087 292.61 43.8035 293.477 45.264C293.467 43.7882 293.475 42.3143 293.469 40.8404C293.864 40.8422 294.258 40.8441 294.651 40.8441C294.66 42.9452 294.649 45.0463 294.659 47.147C294.207 47.1449 293.754 47.1417 293.302 47.1377C292.464 45.6293 291.599 44.1345 290.736 42.6393C290.755 44.142 290.738 45.6424 290.754 47.1451H289.542C289.551 45.0463 289.539 42.9452 289.549 40.8441V40.8441ZM295.901 40.8441C296.34 40.8441 296.779 40.8422 297.221 40.8422C297.215 41.7256 297.217 42.6105 297.217 43.4938C298.02 42.6011 298.851 41.7331 299.668 40.8519C300.23 40.8445 300.792 40.8404 301.356 40.8404C300.508 41.6931 299.52 42.4844 298.769 43.4153C299.628 44.6581 300.55 45.8623 301.434 47.0898C300.892 47.0554 300.222 47.1567 299.714 47.0019C299.039 46.1357 298.456 45.1895 297.823 44.2931C297.602 44.5051 297.382 44.7194 297.161 44.9315C297.154 45.6465 297.154 46.3612 297.159 47.0782C296.739 47.0763 296.32 47.0745 295.901 47.0745C295.903 44.9984 295.899 42.9201 295.901 40.8441V40.8441ZM251.811 42.3906C253.357 42.4059 254.903 42.3868 256.446 42.4022C256.448 42.7713 256.448 43.14 256.45 43.511L255.633 43.5282C255.626 46.3268 255.629 49.1239 255.631 51.9225L256.444 51.9338L256.45 52.9723C254.904 52.9895 253.356 52.9701 251.811 52.9836C251.813 52.626 251.813 52.2666 251.813 51.9072C252.098 51.9169 252.384 51.9244 252.668 51.9323C252.672 49.1258 252.67 46.3194 252.67 43.5129L251.813 43.5241C251.813 43.146 251.813 42.7694 251.811 42.3909L251.811 42.3906ZM258.961 42.4119C260.489 42.3659 262.023 42.4175 263.554 42.3906C263.554 42.7672 263.556 43.146 263.556 43.5223C263.295 43.5204 263.032 43.5167 262.772 43.5148C262.76 46.3212 262.779 49.1277 262.76 51.9341L263.556 51.9053V52.9854C262.017 52.9761 260.481 52.9779 258.945 52.9836C258.945 52.632 258.945 52.2804 258.943 51.9285C259.206 51.9263 259.467 51.9248 259.73 51.9248C259.736 49.1258 259.724 46.325 259.736 43.5264C259.473 43.5245 259.212 43.5204 258.949 43.5189C258.945 43.1498 258.934 42.7788 258.96 42.4119H258.961ZM265.997 42.3965C267.559 42.3928 269.118 42.404 270.677 42.3891C270.679 42.7675 270.679 43.146 270.679 43.5245C270.403 43.5226 270.129 43.5185 269.852 43.517C269.852 46.3212 269.85 49.1258 269.852 51.9323L270.681 51.9094C270.679 52.2685 270.679 52.6283 270.677 52.9858C269.118 52.9742 267.557 52.9761 265.997 52.9836L265.992 51.9132L266.858 51.9304C266.847 49.1239 266.856 46.3194 266.853 43.5148C266.567 43.5167 266.279 43.5208 265.993 43.5245C265.993 43.1479 265.995 42.7728 265.997 42.3965" fill="white"/>
<path d="M284.875 44.746C285.094 44.1206 285.314 43.4957 285.524 42.8666C285.596 42.6471 285.671 42.4268 285.744 42.2073C286.024 43.0503 286.275 43.903 286.555 44.746H284.875ZM286.467 40.8422C285.978 40.8403 285.481 40.8194 284.996 40.8669C284.196 42.9052 283.521 45.0193 282.767 47.0782C283.216 47.0763 283.665 47.0707 284.114 47.0647C284.25 46.6458 284.386 46.2273 284.52 45.8088C285.312 45.8051 286.102 45.8051 286.895 45.8014C287.018 46.2502 287.14 46.6978 287.267 47.147C287.735 47.1451 288.205 47.1433 288.674 47.1451C287.919 45.0519 287.2 42.9433 286.467 40.8422ZM280.171 45.9293C279.501 46.1264 278.722 46.0228 278.028 46.0344C278.024 45.4494 278.023 44.8664 278.024 44.2833C278.795 44.314 279.802 44.1726 280.499 44.5489C280.876 44.9603 280.714 45.7288 280.171 45.9293ZM280.174 42.0008C280.717 42.1822 280.665 43.0637 280.148 43.2242C279.474 43.3925 278.72 43.3199 278.03 43.3255C278.026 42.8629 278.024 42.3984 278.024 41.9358C278.728 41.953 279.484 41.8554 280.174 42.0008ZM281.114 43.7425C281.688 43.2664 281.908 42.9183 281.801 42.1422C281.689 41.263 280.822 40.8613 280.025 40.7962C278.945 40.7334 277.858 40.7906 276.774 40.7715C276.799 42.8726 276.784 44.9733 276.784 47.0744C277.919 47.061 279.058 47.107 280.192 47.0557C280.698 47.0344 281.154 46.8796 281.484 46.482C282.205 45.6809 282.142 44.268 281.114 43.7425" fill="white"/>
<path fill-rule="evenodd" clip-rule="evenodd" d="M305.566 48.7967C306.12 49.1756 306.245 49.7261 306.392 50.3398C305.984 50.3417 305.575 50.3417 305.167 50.3379C304.973 50.0073 304.877 49.6648 304.484 49.5215C304.064 49.3974 303.552 49.3783 303.134 49.5196C302.693 49.7126 302.484 50.2115 302.783 50.6229C303.739 51.1446 304.993 51.1372 305.94 51.6724C306.601 52.0871 306.649 52.9264 306.484 53.6126C306.279 54.2798 305.705 54.6718 305.057 54.8494C304.029 55.1191 302.794 55.0103 301.933 54.343C301.44 53.9492 301.383 53.4253 301.27 52.8478C301.694 52.8459 302.117 52.8459 302.539 52.8516C302.691 53.171 302.742 53.5936 303.111 53.739C303.653 53.8785 304.332 53.9358 304.868 53.7353C305.33 53.5113 305.504 52.8957 305.044 52.5767C304.167 52.0755 302.706 52.2038 301.878 51.5157C301.045 50.7796 301.306 49.1737 302.307 48.686C303.235 48.1736 304.693 48.1643 305.566 48.7971V48.7967ZM276.561 48.4564C278.289 48.4186 280.019 48.447 281.749 48.4414C281.749 48.8124 281.749 49.1831 281.751 49.5541C281.113 49.5466 280.476 49.5443 279.837 49.5443C279.835 51.286 279.839 53.0277 279.837 54.769H278.462C278.46 53.0277 278.462 51.286 278.462 49.5425C277.821 49.5462 277.181 49.5462 276.54 49.5462C276.548 49.1834 276.554 48.8199 276.561 48.4568V48.4564ZM295.255 48.4414C295.721 48.4396 296.187 48.4396 296.651 48.4377C297.486 49.9037 298.297 51.3836 299.156 52.8344C299.179 51.3702 299.158 49.9037 299.168 48.4396H300.357C300.361 50.55 300.361 52.6586 300.358 54.7694C299.913 54.7694 299.47 54.7694 299.028 54.7713C298.167 53.2704 297.324 51.7602 296.45 50.2673C296.425 51.7677 296.435 53.2686 296.444 54.7694H295.249C295.262 52.6604 295.251 50.5519 295.255 48.4414V48.4414ZM307.53 48.4414C309.016 48.4358 310.5 48.4414 311.987 48.4377C311.993 48.8083 311.996 49.1793 312.002 49.5503C310.934 49.5428 309.866 49.5466 308.799 49.5443C308.797 50.0283 308.797 50.51 308.796 50.9917C309.72 50.9936 310.644 50.9936 311.569 50.9898C311.569 51.3474 311.567 51.7026 311.567 52.0602C310.646 52.0411 309.725 52.0392 308.805 52.0546C308.796 52.9338 308.797 53.8153 308.799 54.695C308.373 54.695 307.949 54.695 307.526 54.6965C307.535 52.6107 307.526 50.5272 307.53 48.4414V48.4414ZM312.946 48.4414C314.478 48.4377 316.012 48.4414 317.545 48.4377C317.547 48.8083 317.547 49.1774 317.549 49.5484C316.432 49.5447 315.315 49.5447 314.197 49.5484C314.198 50.007 314.198 50.464 314.198 50.9229C315.223 50.9142 316.248 50.9122 317.273 50.9169V51.982C316.246 51.982 315.22 51.9783 314.194 51.9839C314.197 52.5307 314.197 53.0793 314.194 53.6257C315.362 53.6201 316.53 53.622 317.698 53.622C317.7 54.0046 317.7 54.3868 317.702 54.7694H312.94C312.947 52.6604 312.94 50.55 312.946 48.4414" fill="white"/>
<path d="M285.875 51.2325C285.211 51.3529 284.496 51.2688 283.821 51.2841C283.823 50.7067 283.825 50.1274 283.825 49.5503C284.461 49.5559 285.13 49.4908 285.758 49.6019C286.331 49.9037 286.506 50.8978 285.875 51.2325V51.2325ZM287.269 52.3242C287.114 52.1043 286.855 51.9495 286.644 51.783C287.628 51.3283 287.869 50.1102 287.284 49.2444C286.899 48.6404 286.258 48.4949 285.585 48.4549C284.576 48.4107 283.563 48.453 282.553 48.4377C282.52 50.5481 282.561 52.6585 282.53 54.7694H283.834C283.822 53.9378 283.82 53.1061 283.826 52.2745C284.417 52.3433 285.65 52.0448 286.003 52.6335C286.208 53.2876 286.103 54.0827 286.172 54.769C286.678 54.7671 287.185 54.769 287.691 54.7806C287.271 53.9664 287.643 53.1212 287.269 52.3242V52.3242ZM322.129 51.2501C321.471 51.3361 320.788 51.2763 320.124 51.2841C320.122 50.7068 320.122 50.1295 320.124 49.5522C320.778 49.5596 321.528 49.4643 322.156 49.6726C322.677 49.9516 322.767 51.0489 322.129 51.2497V51.2501ZM323.581 52.4353C323.485 52.0949 323.149 51.9266 322.894 51.7123C323.174 51.5059 323.479 51.3473 323.644 51.0298C324.037 50.2785 323.774 49.2369 323.057 48.772C322.497 48.4339 321.893 48.3917 321.252 48.3879C320.408 48.3879 319.566 48.3954 318.723 48.3917C318.723 50.4927 318.732 52.5953 318.717 54.6968L319.989 54.6908C319.979 53.8549 319.978 53.0188 319.984 52.1828C320.604 52.2326 321.565 52.0336 322.081 52.4218C322.428 53.0505 322.248 53.9814 322.386 54.6927C322.894 54.6927 323.4 54.6964 323.909 54.7118C323.571 53.9608 323.793 53.1975 323.58 52.4349L323.581 52.4353ZM290.587 52.3605C290.884 51.5691 291.105 50.7486 291.433 49.9688C291.849 50.6741 291.962 51.5957 292.263 52.3623C291.703 52.3605 291.145 52.3605 290.587 52.3605ZM292.142 48.4317C291.682 48.4335 291.216 48.4167 290.758 48.4605C290.597 48.6362 290.529 48.9059 290.441 49.1258C289.797 51.0126 289.147 52.8975 288.46 54.7712C288.91 54.7694 289.361 54.7694 289.812 54.7694C289.956 54.3393 290.102 53.9107 290.25 53.4806C291.036 53.4787 291.822 53.4787 292.608 53.4806L292.971 54.7671C293.441 54.7694 293.911 54.7694 294.38 54.7709C293.609 52.6664 292.919 50.5346 292.142 48.4317" fill="white"/>
<path fill-rule="evenodd" clip-rule="evenodd" d="M250.595 53.84C257.7 53.8497 264.806 53.8422 271.912 53.8437C271.912 54.1994 271.912 54.5569 271.914 54.9126C264.808 54.907 257.702 54.9107 250.597 54.9107C250.595 54.5532 250.595 54.1975 250.595 53.84" fill="white"/>
<mask id="mask1_20_1496" style="mask-type:alpha" maskUnits="userSpaceOnUse" x="249" y="55" width="25" height="2">
<path d="M249.091 55.7021H273.403V56.7556H249.091V55.7021Z" fill="white"/>
</mask>
<g mask="url(#mask1_20_1496)">
<path fill-rule="evenodd" clip-rule="evenodd" d="M249.095 55.7044C257.198 55.7025 265.301 55.7006 273.403 55.7044V56.7538C265.3 56.7538 257.194 56.7463 249.091 56.7557C249.093 56.406 249.095 56.054 249.095 55.7044" fill="white"/>
</g>
<path d="M437.955 8.69338H435.128C434.901 8.69338 434.658 8.7448 434.413 8.84865C434.168 8.9525 433.977 9.07281 433.82 9.2291C433.506 9.59105 433.366 10.1093 433.349 10.7992V19.637H435.337V16.651H438.008C438.514 16.651 438.933 16.4618 439.299 16.0988C439.665 15.7533 439.84 15.339 439.858 14.8557V10.7303C439.84 9.38334 439.212 8.71086 437.955 8.69441V8.69338ZM437.746 14.4588C437.702 14.5134 437.646 14.5574 437.582 14.5873C437.519 14.6172 437.45 14.6324 437.38 14.6315H435.966C435.547 14.6315 435.355 14.4248 435.338 14.0454V11.299C435.338 10.937 435.53 10.7293 435.897 10.7129H437.432C437.728 10.7293 437.868 10.8846 437.885 11.1961L437.903 14.1297C437.903 14.2675 437.851 14.3714 437.746 14.4578V14.4588ZM445.983 8.69338H441.479V10.7129H445.476C445.843 10.6954 446.034 10.8517 446.017 11.1447H446.034V11.335H443.4C442.125 11.3689 441.498 11.99 441.48 13.2331V14.8557C441.498 16.0464 442.161 16.6346 443.487 16.651H446.192C446.715 16.651 447.151 16.4783 447.483 16.1163C447.797 15.7533 447.954 15.3215 447.972 14.7868V10.5751C447.954 9.33193 447.291 8.71086 445.982 8.69338H445.983ZM446.034 14.2346C446.017 14.4937 445.843 14.6315 445.493 14.6315H443.976C443.818 14.6315 443.696 14.5976 443.609 14.5112C443.505 14.4413 443.452 14.3549 443.452 14.2336L443.47 13.7164C443.47 13.5097 443.505 13.3544 443.574 13.2845C443.661 13.2331 443.801 13.1992 443.993 13.1992H445.493C445.861 13.1992 446.034 13.3534 446.034 13.665V14.2346V14.2346ZM454.131 13.9066V14.1308C454.131 14.1956 454.115 14.2595 454.084 14.3167C454.054 14.3739 454.01 14.4227 453.956 14.4588C453.899 14.5162 453.831 14.5613 453.756 14.591C453.681 14.6207 453.601 14.6345 453.52 14.6315H452.125C451.775 14.6315 451.6 14.4248 451.6 13.993V8.69338H449.613V14.614C449.613 14.9431 449.665 15.2187 449.752 15.4253C449.822 15.667 449.979 15.8911 450.171 16.0988C450.381 16.2891 450.589 16.4443 450.799 16.5132C450.991 16.5996 451.253 16.6335 451.585 16.6335H454.114V17.1168C454.114 17.2381 454.063 17.3584 453.958 17.4458C453.848 17.5473 453.706 17.6079 453.557 17.6176H449.595V19.637H454.237C454.812 19.6206 455.266 19.4304 455.598 19.0335C455.929 18.6366 456.086 18.1183 456.104 17.4623V8.69338H454.132V13.9066H454.131ZM457.656 10.4887V11.99C457.656 12.4393 457.848 12.8362 458.231 13.1467C458.616 13.4922 459.052 13.665 459.575 13.6814H461.32C461.443 13.6814 461.53 13.7513 461.617 13.9066C461.652 13.9755 461.669 14.0269 461.669 14.0794V14.2521C461.652 14.4937 461.494 14.614 461.163 14.6315H457.638V16.651H461.774C462.106 16.651 462.367 16.6171 462.559 16.5482C462.752 16.4783 462.943 16.3405 463.118 16.1328C463.484 15.7184 463.676 15.305 463.693 14.8906V13.4233C463.683 12.9573 463.496 12.5128 463.169 12.1802C463.018 12.0154 462.835 11.8831 462.631 11.7912C462.427 11.6993 462.207 11.6497 461.983 11.6455H460.239C459.82 11.6455 459.61 11.5242 459.61 11.265V11.0758C459.61 10.8342 459.82 10.7129 460.221 10.7129H463.693V8.69338H459.593C458.319 8.72834 457.673 9.31445 457.656 10.4887V10.4887ZM469.626 8.69338H465.125V10.7129H469.121C469.487 10.6954 469.661 10.8517 469.661 11.1447V11.335H467.026C465.752 11.3689 465.107 11.99 465.107 13.2331V14.8557C465.125 16.0464 465.787 16.6346 467.113 16.651H469.836C470.36 16.651 470.796 16.4783 471.127 16.1163C471.441 15.7533 471.598 15.3215 471.615 14.7868V10.5751C471.598 9.33193 470.935 8.71086 469.626 8.69338V8.69338ZM469.644 14.2346C469.626 14.4937 469.452 14.6315 469.103 14.6315H467.584C467.521 14.6357 467.457 14.6272 467.397 14.6065C467.337 14.5859 467.282 14.5535 467.235 14.5112C467.132 14.4413 467.078 14.3549 467.078 14.2336H467.096V13.7164C467.096 13.5097 467.131 13.3544 467.201 13.2845C467.271 13.2331 467.411 13.1992 467.602 13.1992H469.103C469.453 13.1992 469.644 13.3534 469.644 13.665V14.2346V14.2346ZM473.832 6.24204C473.431 6.57005 473.239 7.01939 473.221 7.55408L473.204 16.651H475.192V10.7129H476.589V8.69338H475.192V8.26152C475.21 7.88209 475.42 7.69187 475.838 7.67542H476.606V5.72483H475.35C474.722 5.74128 474.216 5.91402 473.832 6.24204ZM484.267 12.2141V10.6265C484.249 9.34941 483.621 8.71086 482.382 8.69338H479.713C478.438 8.72834 477.793 9.33193 477.775 10.5576L477.793 14.5801C477.793 14.977 477.828 15.2876 477.915 15.5117C477.985 15.7359 478.141 15.9611 478.351 16.1677C478.543 16.3405 478.752 16.4783 478.997 16.5482C479.223 16.6171 479.52 16.651 479.922 16.651H484.249V14.6315H480.182C480.06 14.6315 479.99 14.5801 479.92 14.4588C479.833 14.3724 479.799 14.2346 479.799 14.0783V13.958L484.266 12.2151L484.267 12.2141ZM479.748 12.0424V11.2301C479.748 11.0758 479.816 10.9545 479.956 10.8681C480.078 10.7642 480.233 10.7092 480.393 10.7139H481.771C481.911 10.7139 482.033 10.7303 482.121 10.7992C482.16 10.8294 482.192 10.8688 482.213 10.9139C482.234 10.959 482.244 11.0086 482.242 11.0584V11.1098L479.748 12.0424V12.0424ZM487.792 16.1163C487.558 16.0558 487.339 15.9499 487.146 15.8048C486.956 15.6298 486.812 15.4109 486.727 15.1672C486.644 14.9167 486.602 14.654 486.604 14.3899V10.6265C486.604 10.0743 486.762 9.65994 487.077 9.43578C487.373 9.21162 487.792 9.10674 488.315 9.10674H491.281V8.64197H488.245C487.914 8.64197 487.634 8.65945 487.391 8.72834C487.128 8.79724 486.884 8.9525 486.64 9.19414C486.43 9.4183 486.29 9.64246 486.221 9.8841C486.145 10.1477 486.116 10.4226 486.134 10.6964V14.4588C486.134 14.8218 486.185 15.1323 486.29 15.4253C486.395 15.7184 486.57 15.9785 486.85 16.2191C487.111 16.4269 487.373 16.5482 487.634 16.5821C487.879 16.6171 488.159 16.651 488.455 16.651H491.316V16.1852H488.489C488.245 16.1852 488.019 16.1677 487.792 16.1163V16.1163ZM499.518 14.4763V10.8342C499.518 10.2296 499.343 9.6949 498.977 9.22807C498.871 9.08565 498.741 8.96311 498.592 8.86613C498.458 8.7835 498.311 8.72503 498.156 8.69338C497.822 8.64222 497.483 8.61918 497.144 8.62449H493.061V9.09029H497.371C497.633 9.09029 497.878 9.12525 498.104 9.17666C498.33 9.24555 498.522 9.40082 498.68 9.60853C498.942 9.95402 499.064 10.3334 499.064 10.7653V11.3H495.12C493.777 11.335 493.079 12.0424 493.061 13.4059V14.614C493.061 15.2361 493.254 15.7359 493.655 16.0988C494.038 16.4443 494.544 16.6335 495.156 16.6335H497.528C498.156 16.6335 498.662 16.4269 499.081 15.996C499.29 15.7708 499.413 15.5292 499.482 15.2701C499.535 15.0459 499.553 14.7868 499.553 14.4763H499.518ZM499.064 14.5976C499.064 15.633 498.558 16.1503 497.546 16.1677H495.137C494.736 16.1677 494.353 16.0299 494.003 15.7533C493.825 15.6209 493.696 15.4327 493.637 15.2187C493.586 15.0098 493.563 14.7951 493.567 14.5801V13.3884C493.567 12.8876 493.707 12.5082 493.986 12.2151C494.248 11.9385 494.631 11.8008 495.102 11.7833H499.082L499.064 14.5976V14.5976ZM501.908 10.9031V16.651H502.379V10.9031C502.362 9.72883 502.904 9.12422 504.002 9.10777H504.613V8.64197H504.089C502.607 8.64197 501.891 9.40082 501.908 10.9031ZM512.483 6.05284H512.012V8.64197H508.295C506.742 8.62449 505.957 9.40082 505.939 10.9381V14.3549C505.922 14.684 505.957 14.977 506.027 15.2361C506.078 15.4942 506.218 15.7533 506.428 16.0125C506.707 16.3055 507.003 16.4957 507.301 16.5646C507.597 16.616 507.928 16.651 508.295 16.651H510.057C511.645 16.686 512.465 15.9436 512.5 14.4248L512.483 6.05284V6.05284ZM512.029 14.3724C512.012 15.011 511.82 15.4778 511.436 15.7359C511.052 16.0125 510.546 16.1503 509.935 16.1503H508.295C508.033 16.1503 507.789 16.1163 507.562 16.0649C507.353 16.0215 507.153 15.9456 506.968 15.8397C506.602 15.6156 506.428 15.2022 506.428 14.5976V10.937C506.409 10.692 506.439 10.4458 506.515 10.2121C506.566 10.0054 506.69 9.8152 506.881 9.60853C507.091 9.38437 507.318 9.24555 507.544 9.19414C507.77 9.14273 508.015 9.10777 508.277 9.10777H512.029V14.3724V14.3724ZM422.827 8.24507C423.105 6.89806 424.328 5.88009 425.776 5.88009C427.223 5.88009 428.429 6.89806 428.725 8.24507C429.177 8.33041 429.544 8.50316 429.824 8.77976C429.841 8.52064 429.824 8.26152 429.789 8.03736C429.694 7.03481 429.228 6.10389 428.482 5.42696C427.737 4.75003 426.765 4.37588 425.758 4.37782C423.576 4.37885 421.815 6.08677 421.726 8.21011C421.709 8.40033 421.709 8.59056 421.709 8.77976C421.9 8.62449 422.11 8.50316 422.355 8.3993C422.511 8.33041 422.668 8.279 422.826 8.24507H422.827Z" fill="white"/>
<path d="M437.955 8.69338H435.128C434.901 8.69338 434.658 8.7448 434.413 8.84865C434.168 8.9525 433.977 9.07281 433.82 9.2291C433.506 9.59105 433.366 10.1093 433.349 10.7992V19.637H435.337V16.651H438.008C438.514 16.651 438.933 16.4618 439.299 16.0988C439.665 15.7533 439.84 15.339 439.858 14.8557V10.7303C439.84 9.38334 439.212 8.71086 437.955 8.69441V8.69338ZM437.746 14.4588C437.702 14.5134 437.646 14.5574 437.582 14.5873C437.519 14.6172 437.45 14.6324 437.38 14.6315H435.966C435.547 14.6315 435.355 14.4248 435.338 14.0454V11.299C435.338 10.937 435.53 10.7293 435.897 10.7129H437.432C437.728 10.7293 437.868 10.8846 437.885 11.1961L437.903 14.1297C437.903 14.2675 437.851 14.3714 437.746 14.4578V14.4588ZM445.983 8.69338H441.479V10.7129H445.476C445.843 10.6954 446.034 10.8517 446.017 11.1447H446.034V11.335H443.4C442.125 11.3689 441.498 11.99 441.48 13.2331V14.8557C441.498 16.0464 442.161 16.6346 443.487 16.651H446.192C446.715 16.651 447.151 16.4783 447.483 16.1163C447.797 15.7533 447.954 15.3215 447.972 14.7868V10.5751C447.954 9.33193 447.291 8.71086 445.982 8.69338H445.983ZM446.034 14.2346C446.017 14.4937 445.843 14.6315 445.493 14.6315H443.976C443.818 14.6315 443.696 14.5976 443.609 14.5112C443.505 14.4413 443.452 14.3549 443.452 14.2336L443.47 13.7164C443.47 13.5097 443.505 13.3544 443.574 13.2845C443.661 13.2331 443.801 13.1992 443.993 13.1992H445.493C445.861 13.1992 446.034 13.3534 446.034 13.665V14.2346V14.2346ZM454.131 13.9066V14.1308C454.131 14.1956 454.115 14.2595 454.084 14.3167C454.054 14.3739 454.01 14.4227 453.956 14.4588C453.899 14.5162 453.831 14.5613 453.756 14.591C453.681 14.6207 453.601 14.6345 453.52 14.6315H452.125C451.775 14.6315 451.6 14.4248 451.6 13.993V8.69338H449.613V14.614C449.613 14.9431 449.665 15.2187 449.752 15.4253C449.822 15.667 449.979 15.8911 450.171 16.0988C450.381 16.2891 450.589 16.4443 450.799 16.5132C450.991 16.5996 451.253 16.6335 451.585 16.6335H454.114V17.1168C454.114 17.2381 454.063 17.3584 453.958 17.4458C453.848 17.5473 453.706 17.6079 453.557 17.6176H449.595V19.637H454.237C454.812 19.6206 455.266 19.4304 455.598 19.0335C455.929 18.6366 456.086 18.1183 456.104 17.4623V8.69338H454.132V13.9066H454.131ZM457.656 10.4887V11.99C457.656 12.4393 457.848 12.8362 458.231 13.1467C458.616 13.4922 459.052 13.665 459.575 13.6814H461.32C461.443 13.6814 461.53 13.7513 461.617 13.9066C461.652 13.9755 461.669 14.0269 461.669 14.0794V14.2521C461.652 14.4937 461.494 14.614 461.163 14.6315H457.638V16.651H461.774C462.106 16.651 462.367 16.6171 462.559 16.5482C462.752 16.4783 462.943 16.3405 463.118 16.1328C463.484 15.7184 463.676 15.305 463.693 14.8906V13.4233C463.683 12.9573 463.496 12.5128 463.169 12.1802C463.018 12.0154 462.835 11.8831 462.631 11.7912C462.427 11.6993 462.207 11.6497 461.983 11.6455H460.239C459.82 11.6455 459.61 11.5242 459.61 11.265V11.0758C459.61 10.8342 459.82 10.7129 460.221 10.7129H463.693V8.69338H459.593C458.319 8.72834 457.673 9.31445 457.656 10.4887V10.4887ZM469.626 8.69338H465.125V10.7129H469.121C469.487 10.6954 469.661 10.8517 469.661 11.1447V11.335H467.026C465.752 11.3689 465.107 11.99 465.107 13.2331V14.8557C465.125 16.0464 465.787 16.6346 467.113 16.651H469.836C470.36 16.651 470.796 16.4783 471.127 16.1163C471.441 15.7533 471.598 15.3215 471.615 14.7868V10.5751C471.598 9.33193 470.935 8.71086 469.626 8.69338V8.69338ZM469.644 14.2346C469.626 14.4937 469.452 14.6315 469.103 14.6315H467.584C467.521 14.6357 467.457 14.6272 467.397 14.6065C467.337 14.5859 467.282 14.5535 467.235 14.5112C467.132 14.4413 467.078 14.3549 467.078 14.2336H467.096V13.7164C467.096 13.5097 467.131 13.3544 467.201 13.2845C467.271 13.2331 467.411 13.1992 467.602 13.1992H469.103C469.453 13.1992 469.644 13.3534 469.644 13.665V14.2346V14.2346ZM473.832 6.24204C473.431 6.57005 473.239 7.01939 473.221 7.55408L473.204 16.651H475.192V10.7129H476.589V8.69338H475.192V8.26152C475.21 7.88209 475.42 7.69187 475.838 7.67542H476.606V5.72483H475.35C474.722 5.74128 474.216 5.91402 473.832 6.24204ZM484.267 12.2141V10.6265C484.249 9.34941 483.621 8.71086 482.382 8.69338H479.713C478.438 8.72834 477.793 9.33193 477.775 10.5576L477.793 14.5801C477.793 14.977 477.828 15.2876 477.915 15.5117C477.985 15.7359 478.141 15.9611 478.351 16.1677C478.543 16.3405 478.752 16.4783 478.997 16.5482C479.223 16.6171 479.52 16.651 479.922 16.651H484.249V14.6315H480.182C480.06 14.6315 479.99 14.5801 479.92 14.4588C479.833 14.3724 479.799 14.2346 479.799 14.0783V13.958L484.266 12.2151L484.267 12.2141ZM479.748 12.0424V11.2301C479.748 11.0758 479.816 10.9545 479.956 10.8681C480.078 10.7642 480.233 10.7092 480.393 10.7139H481.771C481.911 10.7139 482.033 10.7303 482.121 10.7992C482.16 10.8294 482.192 10.8688 482.213 10.9139C482.234 10.959 482.244 11.0086 482.242 11.0584V11.1098L479.748 12.0424V12.0424ZM487.792 16.1163C487.558 16.0558 487.339 15.9499 487.146 15.8048C486.956 15.6298 486.812 15.4109 486.727 15.1672C486.644 14.9167 486.602 14.654 486.604 14.3899V10.6265C486.604 10.0743 486.762 9.65994 487.077 9.43578C487.373 9.21162 487.792 9.10674 488.315 9.10674H491.281V8.64197H488.245C487.914 8.64197 487.634 8.65945 487.391 8.72834C487.128 8.79724 486.884 8.9525 486.64 9.19414C486.43 9.4183 486.29 9.64246 486.221 9.8841C486.145 10.1477 486.116 10.4226 486.134 10.6964V14.4588C486.134 14.8218 486.185 15.1323 486.29 15.4253C486.395 15.7184 486.57 15.9785 486.85 16.2191C487.111 16.4269 487.373 16.5482 487.634 16.5821C487.879 16.6171 488.159 16.651 488.455 16.651H491.316V16.1852H488.489C488.245 16.1852 488.019 16.1677 487.792 16.1163V16.1163ZM499.518 14.4763V10.8342C499.518 10.2296 499.343 9.6949 498.977 9.22807C498.871 9.08565 498.741 8.96311 498.592 8.86613C498.458 8.7835 498.311 8.72503 498.156 8.69338C497.822 8.64222 497.483 8.61918 497.144 8.62449H493.061V9.09029H497.371C497.633 9.09029 497.878 9.12525 498.104 9.17666C498.33 9.24555 498.522 9.40082 498.68 9.60853C498.942 9.95402 499.064 10.3334 499.064 10.7653V11.3H495.12C493.777 11.335 493.079 12.0424 493.061 13.4059V14.614C493.061 15.2361 493.254 15.7359 493.655 16.0988C494.038 16.4443 494.544 16.6335 495.156 16.6335H497.528C498.156 16.6335 498.662 16.4269 499.081 15.996C499.29 15.7708 499.413 15.5292 499.482 15.2701C499.535 15.0459 499.553 14.7868 499.553 14.4763H499.518ZM499.064 14.5976C499.064 15.633 498.558 16.1503 497.546 16.1677H495.137C494.736 16.1677 494.353 16.0299 494.003 15.7533C493.825 15.6209 493.696 15.4327 493.637 15.2187C493.586 15.0098 493.563 14.7951 493.567 14.5801V13.3884C493.567 12.8876 493.707 12.5082 493.986 12.2151C494.248 11.9385 494.631 11.8008 495.102 11.7833H499.082L499.064 14.5976V14.5976ZM501.908 10.9031V16.651H502.379V10.9031C502.362 9.72883 502.904 9.12422 504.002 9.10777H504.613V8.64197H504.089C502.607 8.64197 501.891 9.40082 501.908 10.9031ZM512.483 6.05284H512.012V8.64197H508.295C506.742 8.62449 505.957 9.40082 505.939 10.9381V14.3549C505.922 14.684 505.957 14.977 506.027 15.2361C506.078 15.4942 506.218 15.7533 506.428 16.0125C506.707 16.3055 507.003 16.4957 507.301 16.5646C507.597 16.616 507.928 16.651 508.295 16.651H510.057C511.645 16.686 512.465 15.9436 512.5 14.4248L512.483 6.05284V6.05284ZM512.029 14.3724C512.012 15.011 511.82 15.4778 511.436 15.7359C511.052 16.0125 510.546 16.1503 509.935 16.1503H508.295C508.033 16.1503 507.789 16.1163 507.562 16.0649C507.353 16.0215 507.153 15.9456 506.968 15.8397C506.602 15.6156 506.428 15.2022 506.428 14.5976V10.937C506.409 10.692 506.439 10.4458 506.515 10.2121C506.566 10.0054 506.69 9.8152 506.881 9.60853C507.091 9.38437 507.318 9.24555 507.544 9.19414C507.77 9.14273 508.015 9.10777 508.277 9.10777H512.029V14.3724V14.3724ZM422.827 8.24507C423.105 6.89806 424.328 5.88009 425.776 5.88009C427.223 5.88009 428.429 6.89806 428.725 8.24507C429.177 8.33041 429.544 8.50316 429.824 8.77976C429.841 8.52064 429.824 8.26152 429.789 8.03736C429.694 7.03481 429.228 6.10389 428.482 5.42696C427.737 4.75003 426.765 4.37588 425.758 4.37782C423.576 4.37885 421.815 6.08677 421.726 8.21011C421.709 8.40033 421.709 8.59056 421.709 8.77976C421.9 8.62449 422.11 8.50316 422.355 8.3993C422.511 8.33041 422.668 8.279 422.826 8.24507H422.827Z" fill="white"/>
<path d="M428.114 8.69365H423.279C423.053 8.69365 422.808 8.74506 422.563 8.84892C422.318 8.95277 422.127 9.07308 421.97 9.22937C421.675 9.59029 421.517 10.1085 421.5 10.7985V14.5444C421.517 15.2354 421.657 15.7526 421.971 16.1156C422.128 16.2698 422.321 16.3911 422.564 16.495C422.809 16.5978 423.053 16.6502 423.28 16.6502H428.113C429.37 16.6328 429.998 15.9603 430.015 14.6143V10.7296C429.998 9.38258 429.37 8.7101 428.113 8.69365H428.114Z" fill="white"/>
<path d="M428.114 8.69365H423.279C423.053 8.69365 422.808 8.74506 422.563 8.84892C422.318 8.95277 422.127 9.07308 421.97 9.22937C421.675 9.59029 421.517 10.1085 421.5 10.7985V14.5444C421.517 15.2354 421.657 15.7526 421.971 16.1156C422.128 16.2698 422.321 16.3911 422.564 16.495C422.809 16.5978 423.053 16.6502 423.28 16.6502H428.113C429.37 16.6328 429.998 15.9603 430.015 14.6143V10.7296C429.998 9.38258 429.37 8.7101 428.113 8.69365H428.114Z" fill="white"/>
<path d="M389.798 6.01996C388.873 5.36931 387.473 5.04078 385.636 5.04078H380.828L379.04 15.002H372.741L373.146 12.7434H376.941L377.391 10.2049L373.599 10.2113L374.004 7.96036H377.913L378.433 5.04078H370.494L368.798 14.4913H365.886L367.595 5.04078H363.445L361.748 14.4913H358.91L360.62 5.04078H356.475L354.682 15.0033H348.339L348.738 12.7434H352.549L352.999 10.219L349.194 10.2152L349.598 7.96036H353.549L354.066 5.04078H329.334L327.926 12.9359L325.121 5.04078H320.816L318.5 17.9229H322.611L324.013 9.81221L326.734 17.9229H341.468L343.259 7.96036H345.566L343.773 17.9229H382.542L383.665 11.6346L385.485 17.9229H389.598L387.714 12.7844L388.144 12.6895C389.092 12.4803 389.834 12.0324 390.349 11.3599C390.865 10.6797 391.127 9.80965 391.127 8.76245C391.127 7.54328 390.693 6.64623 389.798 6.01996V6.01996ZM337.89 15.002H331.595L332.002 12.7434H335.95L336.399 10.1972H332.488L332.867 7.96036H339.15L337.89 15.002ZM386.408 10.6631C385.994 10.9582 385.395 11.1045 384.575 11.1045H383.761L384.385 7.64723H384.984C385.665 7.64723 386.161 7.76016 386.504 7.98731C386.772 8.16698 387.089 8.52118 387.089 9.19365C387.089 10.0034 386.72 10.4385 386.408 10.6631V10.6631ZM394.119 16.6601C394.07 16.6223 394.015 16.5912 393.958 16.5677C394.114 16.5473 394.259 16.4734 394.367 16.3585C394.453 16.2544 394.495 16.1209 394.484 15.9863C394.48 15.8796 394.447 15.776 394.387 15.6873C394.334 15.6027 394.254 15.5388 394.159 15.5064C394.028 15.4707 393.891 15.4589 393.756 15.4717L392.88 15.5179L392.981 17.5443L393.243 17.5302L393.199 16.6293L393.501 16.6139C393.549 16.6097 393.598 16.6101 393.647 16.6152C393.69 16.6245 393.73 16.641 393.768 16.6639C393.821 16.6988 393.868 16.7422 393.907 16.7923C393.96 16.8539 394.027 16.9437 394.11 17.0618L394.393 17.4699L394.717 17.4532L394.349 16.9193C394.284 16.8235 394.207 16.7363 394.119 16.6601V16.6601Z" fill="white"/>
<path d="M389.798 6.01996C388.873 5.36931 387.473 5.04078 385.636 5.04078H380.828L379.04 15.002H372.741L373.146 12.7434H376.941L377.391 10.2049L373.599 10.2113L374.004 7.96036H377.913L378.433 5.04078H370.494L368.798 14.4913H365.886L367.595 5.04078H363.445L361.748 14.4913H358.91L360.62 5.04078H356.475L354.682 15.0033H348.339L348.738 12.7434H352.549L352.999 10.219L349.194 10.2152L349.598 7.96036H353.549L354.066 5.04078H329.334L327.926 12.9359L325.121 5.04078H320.816L318.5 17.9229H322.611L324.013 9.81221L326.734 17.9229H341.468L343.259 7.96036H345.566L343.773 17.9229H382.542L383.665 11.6346L385.485 17.9229H389.598L387.714 12.7844L388.144 12.6895C389.092 12.4803 389.834 12.0324 390.349 11.3599C390.865 10.6797 391.127 9.80965 391.127 8.76245C391.127 7.54328 390.693 6.64623 389.798 6.01996V6.01996ZM337.89 15.002H331.595L332.002 12.7434H335.95L336.399 10.1972H332.488L332.867 7.96036H339.15L337.89 15.002ZM386.408 10.6631C385.994 10.9582 385.395 11.1045 384.575 11.1045H383.761L384.385 7.64723H384.984C385.665 7.64723 386.161 7.76016 386.504 7.98731C386.772 8.16698 387.089 8.52118 387.089 9.19365C387.089 10.0034 386.72 10.4385 386.408 10.6631V10.6631ZM394.119 16.6601C394.07 16.6223 394.015 16.5912 393.958 16.5677C394.114 16.5473 394.259 16.4734 394.367 16.3585C394.453 16.2544 394.495 16.1209 394.484 15.9863C394.48 15.8796 394.447 15.776 394.387 15.6873C394.334 15.6027 394.254 15.5388 394.159 15.5064C394.028 15.4707 393.891 15.4589 393.756 15.4717L392.88 15.5179L392.981 17.5443L393.243 17.5302L393.199 16.6293L393.501 16.6139C393.549 16.6097 393.598 16.6101 393.647 16.6152C393.69 16.6245 393.73 16.641 393.768 16.6639C393.821 16.6988 393.868 16.7422 393.907 16.7923C393.96 16.8539 394.027 16.9437 394.11 17.0618L394.393 17.4699L394.717 17.4532L394.349 16.9193C394.284 16.8235 394.207 16.7363 394.119 16.6601V16.6601Z" fill="white"/>
<path d="M393.748 16.3686L393.187 16.3994L393.152 15.7282L393.776 15.6962C393.922 15.6885 394.031 15.7128 394.102 15.7706C394.137 15.7988 394.165 15.8342 394.184 15.8743C394.204 15.9144 394.214 15.9583 394.215 16.0029C394.219 16.0673 394.204 16.1315 394.173 16.1877C394.139 16.246 394.087 16.2912 394.025 16.316C393.936 16.3501 393.843 16.3683 393.748 16.3699V16.3686Z" fill="white"/>
<path d="M393.748 16.3686L393.187 16.3994L393.152 15.7282L393.776 15.6962C393.922 15.6885 394.031 15.7128 394.102 15.7706C394.137 15.7988 394.165 15.8342 394.184 15.8743C394.204 15.9144 394.214 15.9583 394.215 16.0029C394.219 16.0673 394.204 16.1315 394.173 16.1877C394.139 16.246 394.087 16.2912 394.025 16.316C393.936 16.3501 393.843 16.3683 393.748 16.3699V16.3686Z" fill="white"/>
<path d="M393.559 14.592C393.069 14.619 392.615 14.8397 392.285 15.2144C391.954 15.5904 391.784 16.0812 391.811 16.5812C391.865 17.6232 392.734 18.4279 393.749 18.3753C394.763 18.3214 395.55 17.4295 395.497 16.3874C395.446 15.344 394.577 14.5394 393.559 14.592Z" fill="white"/>
<path d="M393.559 14.592C393.069 14.619 392.615 14.8397 392.285 15.2144C391.954 15.5904 391.784 16.0812 391.811 16.5812C391.865 17.6232 392.734 18.4279 393.749 18.3753C394.763 18.3214 395.55 17.4295 395.497 16.3874C395.446 15.344 394.577 14.5394 393.559 14.592Z" fill="white"/>
<path d="M395.186 16.485C395.186 17.314 394.548 18.0109 393.732 18.0545C392.889 18.0981 392.169 17.4295 392.125 16.5645C392.105 16.1449 392.243 15.7432 392.516 15.4314C392.791 15.1208 393.167 14.936 393.576 14.9155C394.418 14.8705 395.14 15.5379 395.183 16.4041L395.186 16.485V16.485Z" fill="white"/>
<path d="M395.186 16.485C395.186 17.314 394.548 18.0109 393.732 18.0545C392.889 18.0981 392.169 17.4295 392.125 16.5645C392.105 16.1449 392.243 15.7432 392.516 15.4314C392.791 15.1208 393.167 14.936 393.576 14.9155C394.418 14.8705 395.14 15.5379 395.183 16.4041L395.186 16.485V16.485Z" fill="white"/>
<path d="M264.485 8.01196C264.398 8.21788 263.772 9.89206 262.256 11.6276V4.20955L258.218 4.96415V18.4101H262.256V14.2534C263.426 15.9122 264.003 18.4101 264.003 18.4101H268.839C268.361 16.5287 266.268 13.0601 266.268 13.0601C267.504 11.5576 268.464 9.84749 269.102 8.0094H264.485V8.01196ZM277.304 8.02347H281.218V18.4114H277.304V8.02347ZM288.586 18.4101H292.5V4.20955L288.586 4.87206V18.4101ZM282.877 18.4101H286.786V4.20955L282.876 4.87206L282.877 18.4101ZM251.447 9.49174C250.954 9.46105 249.808 9.39198 249.808 8.41612C249.808 7.23946 251.457 7.23946 252.075 7.23946C253.162 7.23946 254.569 7.54385 255.575 7.82779C255.575 7.82779 256.137 8.0158 256.613 8.20637L256.658 8.21788V4.99612L256.596 4.97822C255.41 4.58557 254.031 4.20827 251.473 4.20827C247.062 4.20827 245.5 6.63833 245.5 8.72052C245.5 9.92148 246.042 12.7455 251.094 13.0716C251.523 13.0972 252.658 13.1586 252.658 14.1664C252.658 14.9978 251.729 15.4889 250.164 15.4889C248.449 15.4889 246.785 15.0745 245.775 14.6831V18.0008C247.288 18.3755 248.993 18.5636 250.991 18.5636C255.303 18.5636 257.235 16.2639 257.235 13.9848C257.235 11.4013 255.073 9.72196 251.447 9.49174V9.49174Z" fill="white"/>
<path d="M264.485 8.01196C264.398 8.21788 263.772 9.89206 262.256 11.6276V4.20955L258.218 4.96415V18.4101H262.256V14.2534C263.426 15.9122 264.003 18.4101 264.003 18.4101H268.839C268.361 16.5287 266.268 13.0601 266.268 13.0601C267.504 11.5576 268.464 9.84749 269.102 8.0094H264.485V8.01196ZM277.304 8.02347H281.218V18.4114H277.304V8.02347ZM288.586 18.4101H292.5V4.20955L288.586 4.87206V18.4101ZM282.877 18.4101H286.786V4.20955L282.876 4.87206L282.877 18.4101ZM251.447 9.49174C250.954 9.46105 249.808 9.39198 249.808 8.41612C249.808 7.23946 251.457 7.23946 252.075 7.23946C253.162 7.23946 254.569 7.54385 255.575 7.82779C255.575 7.82779 256.137 8.0158 256.613 8.20637L256.658 8.21788V4.99612L256.596 4.97822C255.41 4.58557 254.031 4.20827 251.473 4.20827C247.062 4.20827 245.5 6.63833 245.5 8.72052C245.5 9.92148 246.042 12.7455 251.094 13.0716C251.523 13.0972 252.658 13.1586 252.658 14.1664C252.658 14.9978 251.729 15.4889 250.164 15.4889C248.449 15.4889 246.785 15.0745 245.775 14.6831V18.0008C247.288 18.3755 248.993 18.5636 250.991 18.5636C255.303 18.5636 257.235 16.2639 257.235 13.9848C257.235 11.4013 255.073 9.72196 251.447 9.49174V9.49174Z" fill="white"/>
<path d="M279.261 7.02544C280.326 7.02544 281.19 6.20889 281.19 5.20161C281.19 4.19434 280.326 3.37779 279.261 3.37779C278.196 3.37779 277.333 4.19434 277.333 5.20161C277.333 6.20889 278.196 7.02544 279.261 7.02544Z" fill="white"/>
<path d="M279.261 7.02544C280.326 7.02544 281.19 6.20889 281.19 5.20161C281.19 4.19434 280.326 3.37779 279.261 3.37779C278.196 3.37779 277.333 4.19434 277.333 5.20161C277.333 6.20889 278.196 7.02544 279.261 7.02544Z" fill="white"/>
<path d="M275.099 7.87037C271.484 7.98037 269.647 9.51514 269.647 12.5642V18.4092H273.593V13.6437C273.593 11.8173 273.846 11.0346 276.138 10.9591V7.92281C275.752 7.84607 275.099 7.87037 275.099 7.87037V7.87037Z" fill="white"/>
<path d="M275.099 7.87037C271.484 7.98037 269.647 9.51514 269.647 12.5642V18.4092H273.593V13.6437C273.593 11.8173 273.846 11.0346 276.138 10.9591V7.92281C275.752 7.84607 275.099 7.87037 275.099 7.87037V7.87037Z" fill="white"/>
<path d="M201.126 3.83253C201.248 3.72531 201.373 3.62087 201.5 3.51948C201.627 3.62087 201.752 3.72531 201.874 3.83253C203.958 5.66614 205.277 8.36531 205.277 11.3778C205.277 14.39 203.958 17.0892 201.874 18.9228C201.752 19.03 201.627 19.1342 201.5 19.2359C201.373 19.1342 201.248 19.03 201.126 18.9228C199.042 17.0892 197.723 14.39 197.723 11.3778C197.723 8.36531 199.042 5.66614 201.126 3.83253Z" fill="white"/>
<path d="M201.126 3.83253C201.248 3.72531 201.373 3.62087 201.5 3.51948C201.627 3.62087 201.752 3.72531 201.874 3.83253C203.958 5.66614 205.277 8.36531 205.277 11.3778C205.277 14.39 203.958 17.0892 201.874 18.9228C201.752 19.03 201.627 19.1342 201.5 19.2359C201.373 19.1342 201.248 19.03 201.126 18.9228C199.042 17.0892 197.723 14.39 197.723 11.3778C197.723 8.36531 199.042 5.66614 201.126 3.83253Z" fill="white"/>
<path d="M202.137 3.04892C203.705 1.99337 205.587 1.37781 207.611 1.37781C213.073 1.37781 217.5 5.85476 217.5 11.3778C217.5 16.9003 213.073 21.3775 207.611 21.3775C205.587 21.3775 203.705 20.762 202.137 19.7064C202.217 19.6398 202.299 19.5739 202.377 19.5061C204.706 17.4564 206.042 14.4936 206.042 11.3778C206.042 8.26142 204.706 5.29864 202.376 3.2492C202.299 3.18087 202.217 3.11531 202.137 3.04892Z" fill="white"/>
<path d="M202.137 3.04892C203.705 1.99337 205.587 1.37781 207.611 1.37781C213.073 1.37781 217.5 5.85476 217.5 11.3778C217.5 16.9003 213.073 21.3775 207.611 21.3775C205.587 21.3775 203.705 20.762 202.137 19.7064C202.217 19.6398 202.299 19.5739 202.377 19.5061C204.706 17.4564 206.042 14.4936 206.042 11.3778C206.042 8.26142 204.706 5.29864 202.376 3.2492C202.299 3.18087 202.217 3.11531 202.137 3.04892Z" fill="white"/>
<path d="M200.863 19.7064C200.783 19.6398 200.701 19.5739 200.624 19.5061C198.294 17.4567 196.958 14.4939 196.958 11.3778C196.958 8.26142 198.294 5.29865 200.624 3.24892C200.701 3.18087 200.783 3.11531 200.863 3.04892C199.295 1.99337 197.413 1.37781 195.389 1.37781C189.927 1.37781 185.5 5.85503 185.5 11.3778C185.5 16.9003 189.927 21.3778 195.389 21.3778C197.413 21.3778 199.295 20.7623 200.863 19.7064Z" fill="white"/>
<path d="M200.863 19.7064C200.783 19.6398 200.701 19.5739 200.624 19.5061C198.294 17.4567 196.958 14.4939 196.958 11.3778C196.958 8.26142 198.294 5.29865 200.624 3.24892C200.701 3.18087 200.783 3.11531 200.863 3.04892C199.295 1.99337 197.413 1.37781 195.389 1.37781C189.927 1.37781 185.5 5.85503 185.5 11.3778C185.5 16.9003 189.927 21.3778 195.389 21.3778C197.413 21.3778 199.295 20.7623 200.863 19.7064Z" fill="white"/>
<path d="M217.191 17.1861V17.5742H217.12V17.2809L217.012 17.5339H216.939L216.831 17.2814V17.5742H216.76V17.1861H216.86L216.976 17.4531L217.091 17.1861H217.191Z" fill="white"/>
<path d="M217.191 17.1861V17.5742H217.12V17.2809L217.012 17.5339H216.939L216.831 17.2814V17.5742H216.76V17.1861H216.86L216.976 17.4531L217.091 17.1861H217.191Z" fill="white"/>
<path d="M216.556 17.2523V17.5742H216.486V17.2523H216.358V17.187H216.685V17.2523H216.556Z" fill="white"/>
<path d="M216.556 17.2523V17.5742H216.486V17.2523H216.358V17.187H216.685V17.2523H216.556Z" fill="white"/>
<path d="M157.5 18.4465C156.401 18.4465 155.303 18.4465 154.188 18.4465C154.067 17.8608 153.937 17.2879 153.834 16.71C153.791 16.4702 153.715 16.3771 153.449 16.3806C152.121 16.3978 150.792 16.3935 149.464 16.3829C149.263 16.3814 149.183 16.4481 149.122 16.6324C148.939 17.183 148.739 17.7281 148.534 18.271C148.506 18.3447 148.414 18.4458 148.351 18.4463C147.154 18.4568 145.956 18.4541 144.725 18.4541C144.949 17.9104 145.162 17.3914 145.377 16.8736C146.921 13.1695 148.465 9.46577 150.01 5.76194C150.344 4.95974 150.845 4.62382 151.708 4.62377C152.669 4.6237 153.63 4.62375 154.616 4.62375C154.712 5.07532 154.809 5.5203 154.901 5.96615C155.661 9.62652 156.419 13.2873 157.18 16.9473C157.278 17.4162 157.393 17.8813 157.5 18.3482C157.5 18.3809 157.5 18.4138 157.5 18.4465ZM153.165 13.5345C152.812 11.8325 152.464 10.1533 152.115 8.47411C152.101 8.4713 152.087 8.46851 152.073 8.46571C151.466 10.1491 150.859 11.8325 150.245 13.5345C151.236 13.5345 152.185 13.5345 153.165 13.5345Z" fill="white"/>
<path d="M157.5 18.4465C156.401 18.4465 155.303 18.4465 154.188 18.4465C154.067 17.8608 153.937 17.2879 153.834 16.71C153.791 16.4702 153.715 16.3771 153.449 16.3806C152.121 16.3978 150.792 16.3935 149.464 16.3829C149.263 16.3814 149.183 16.4481 149.122 16.6324C148.939 17.183 148.739 17.7281 148.534 18.271C148.506 18.3447 148.414 18.4458 148.351 18.4463C147.154 18.4568 145.956 18.4541 144.725 18.4541C144.949 17.9104 145.162 17.3914 145.377 16.8736C146.921 13.1695 148.465 9.46577 150.01 5.76194C150.344 4.95974 150.845 4.62382 151.708 4.62377C152.669 4.6237 153.63 4.62375 154.616 4.62375C154.712 5.07532 154.809 5.5203 154.901 5.96615C155.661 9.62652 156.419 13.2873 157.18 16.9473C157.278 17.4162 157.393 17.8813 157.5 18.3482C157.5 18.3809 157.5 18.4138 157.5 18.4465ZM153.165 13.5345C152.812 11.8325 152.464 10.1533 152.115 8.47411C152.101 8.4713 152.087 8.46851 152.073 8.46571C151.466 10.1491 150.859 11.8325 150.245 13.5345C151.236 13.5345 152.185 13.5345 153.165 13.5345Z" fill="white"/>
<path d="M143.069 4.37781C143.506 4.45943 143.946 4.52655 144.379 4.62695C144.774 4.71857 145.161 4.84627 145.581 4.96651C145.369 5.9615 145.163 6.93263 144.961 7.88282C144.407 7.71948 143.877 7.53142 143.333 7.41065C142.589 7.24546 141.827 7.18251 141.082 7.39115C140.78 7.47595 140.473 7.63881 140.235 7.84411C139.826 8.19625 139.821 8.70317 140.211 9.07287C140.48 9.32779 140.799 9.53706 141.118 9.72989C141.843 10.1682 142.604 10.5493 143.308 11.0175C144.138 11.5688 144.743 12.3269 144.87 13.3519C145.094 15.1646 144.428 16.5925 142.913 17.6027C141.961 18.2379 140.884 18.5216 139.761 18.6267C138.194 18.7734 136.657 18.5968 135.159 18.102C135.059 18.0688 134.961 18.0274 134.863 17.9871C134.834 17.9751 134.808 17.9538 134.764 17.9257C134.975 16.9292 135.187 15.9313 135.405 14.9053C135.66 15.0174 135.9 15.1298 136.145 15.229C137.315 15.7032 138.524 15.9201 139.776 15.6841C140.102 15.6228 140.434 15.478 140.71 15.2918C141.31 14.8878 141.367 14.1285 140.822 13.6539C140.463 13.3419 140.032 13.1115 139.623 12.8611C138.985 12.4701 138.306 12.1367 137.702 11.6991C136.928 11.1381 136.367 10.39 136.261 9.39575C136.102 7.90709 136.651 6.69833 137.787 5.7591C138.776 4.94188 139.95 4.57921 141.2 4.4269C141.27 4.41843 141.337 4.39453 141.406 4.37781C141.96 4.37781 142.515 4.37781 143.069 4.37781Z" fill="white"/>
<path d="M143.069 4.37781C143.506 4.45943 143.946 4.52655 144.379 4.62695C144.774 4.71857 145.161 4.84627 145.581 4.96651C145.369 5.9615 145.163 6.93263 144.961 7.88282C144.407 7.71948 143.877 7.53142 143.333 7.41065C142.589 7.24546 141.827 7.18251 141.082 7.39115C140.78 7.47595 140.473 7.63881 140.235 7.84411C139.826 8.19625 139.821 8.70317 140.211 9.07287C140.48 9.32779 140.799 9.53706 141.118 9.72989C141.843 10.1682 142.604 10.5493 143.308 11.0175C144.138 11.5688 144.743 12.3269 144.87 13.3519C145.094 15.1646 144.428 16.5925 142.913 17.6027C141.961 18.2379 140.884 18.5216 139.761 18.6267C138.194 18.7734 136.657 18.5968 135.159 18.102C135.059 18.0688 134.961 18.0274 134.863 17.9871C134.834 17.9751 134.808 17.9538 134.764 17.9257C134.975 16.9292 135.187 15.9313 135.405 14.9053C135.66 15.0174 135.9 15.1298 136.145 15.229C137.315 15.7032 138.524 15.9201 139.776 15.6841C140.102 15.6228 140.434 15.478 140.71 15.2918C141.31 14.8878 141.367 14.1285 140.822 13.6539C140.463 13.3419 140.032 13.1115 139.623 12.8611C138.985 12.4701 138.306 12.1367 137.702 11.6991C136.928 11.1381 136.367 10.39 136.261 9.39575C136.102 7.90709 136.651 6.69833 137.787 5.7591C138.776 4.94188 139.95 4.57921 141.2 4.4269C141.27 4.41843 141.337 4.39453 141.406 4.37781C141.96 4.37781 142.515 4.37781 143.069 4.37781Z" fill="white"/>
<path d="M130.189 4.63558C130.003 5.08587 129.827 5.5152 129.648 5.94353C127.943 10.0333 126.237 14.1221 124.539 18.2148C124.458 18.4098 124.359 18.461 124.162 18.4593C123.087 18.4504 122.01 18.4468 120.935 18.4617C120.707 18.4649 120.632 18.3845 120.58 18.1787C119.667 14.6039 118.74 11.033 117.838 7.45571C117.673 6.79941 117.342 6.35116 116.721 6.07607C115.725 5.6351 114.691 5.32535 113.637 5.07356C113.59 5.06243 113.544 5.05024 113.5 5.03924C113.505 4.62434 113.505 4.62432 113.898 4.62431C115.781 4.62431 117.664 4.62389 119.546 4.62451C120.44 4.6248 121.084 5.14654 121.253 6.03556C121.731 8.5523 122.199 11.071 122.671 13.5888C122.692 13.6989 122.715 13.8085 122.747 13.9636C122.795 13.8712 122.83 13.8194 122.852 13.7629C124.021 10.7881 125.191 7.81335 126.355 4.83617C126.418 4.67365 126.497 4.61853 126.671 4.61992C127.763 4.62863 128.856 4.62414 129.948 4.62474C130.018 4.62478 130.089 4.63091 130.189 4.63558Z" fill="white"/>
<path d="M130.189 4.63558C130.003 5.08587 129.827 5.5152 129.648 5.94353C127.943 10.0333 126.237 14.1221 124.539 18.2148C124.458 18.4098 124.359 18.461 124.162 18.4593C123.087 18.4504 122.01 18.4468 120.935 18.4617C120.707 18.4649 120.632 18.3845 120.58 18.1787C119.667 14.6039 118.74 11.033 117.838 7.45571C117.673 6.79941 117.342 6.35116 116.721 6.07607C115.725 5.6351 114.691 5.32535 113.637 5.07356C113.59 5.06243 113.544 5.05024 113.5 5.03924C113.505 4.62434 113.505 4.62432 113.898 4.62431C115.781 4.62431 117.664 4.62389 119.546 4.62451C120.44 4.6248 121.084 5.14654 121.253 6.03556C121.731 8.5523 122.199 11.071 122.671 13.5888C122.692 13.6989 122.715 13.8085 122.747 13.9636C122.795 13.8712 122.83 13.8194 122.852 13.7629C124.021 10.7881 125.191 7.81335 126.355 4.83617C126.418 4.67365 126.497 4.61853 126.671 4.61992C127.763 4.62863 128.856 4.62414 129.948 4.62474C130.018 4.62478 130.089 4.63091 130.189 4.63558Z" fill="white"/>
<path d="M128.762 18.4548C129.746 13.8316 130.723 9.24085 131.702 4.63886C132.893 4.63886 134.07 4.63886 135.27 4.63886C135.121 5.33977 134.976 6.02729 134.83 6.71462C134.021 10.5158 133.21 14.3164 132.411 18.1195C132.355 18.3836 132.262 18.4676 131.989 18.4623C131.012 18.4433 130.033 18.4548 129.055 18.4548C128.967 18.4548 128.88 18.4548 128.762 18.4548Z" fill="white"/>
<path d="M128.762 18.4548C129.746 13.8316 130.723 9.24085 131.702 4.63886C132.893 4.63886 134.07 4.63886 135.27 4.63886C135.121 5.33977 134.976 6.02729 134.83 6.71462C134.021 10.5158 133.21 14.3164 132.411 18.1195C132.355 18.3836 132.262 18.4676 131.989 18.4623C131.012 18.4433 130.033 18.4548 129.055 18.4548C128.967 18.4548 128.88 18.4548 128.762 18.4548Z" fill="white"/>
<path d="M27.9878 4.37781C23.5142 4.37781 20.1182 7.61054 20.1182 11.4626C20.1182 14.9476 22.9053 17.3778 26.6997 17.3778C31.1733 17.3778 34.5459 14.0534 34.5459 10.2015C34.5693 6.69358 31.7822 4.37781 27.9878 4.37781ZM26.9807 14.0993C25.2709 14.0993 24.0765 12.9988 24.0765 11.302C24.0765 9.42199 25.5519 7.63348 27.6833 7.63348C29.3932 7.63348 30.5875 8.77986 30.5875 10.4766C30.611 12.3796 29.1121 14.0993 26.9807 14.0993Z" fill="white"/>
<path d="M54.897 4.37781C50.4234 4.37781 47.0508 7.61054 47.0508 11.4626C47.0508 14.9476 49.8379 17.3778 53.6323 17.3778C58.1059 17.3778 61.4785 14.0534 61.4785 10.2015C61.5019 6.69358 58.7148 4.37781 54.897 4.37781ZM53.9133 14.0993C52.2035 14.0993 51.0091 12.9988 51.0091 11.302C51.0091 9.42199 52.4845 7.63348 54.6159 7.63348C56.3258 7.63348 57.5202 8.77986 57.5202 10.4766C57.5202 12.3796 56.0447 14.0993 53.9133 14.0993Z" fill="white"/>
<path d="M74.6432 8.4815C74.6432 6.14286 72.7928 4.65261 69.4202 4.65261H64.689L62.6045 17.1024H66.586L67.242 13.1817H67.4293L69.5373 17.1024H74.1045L71.1767 12.7461C73.3549 12.0124 74.6432 10.4304 74.6432 8.4815ZM68.2724 10.5451H67.687L68.1319 7.93136H68.6706C69.912 7.93136 70.5678 8.2982 70.5678 9.10068C70.5678 10.0406 69.631 10.5451 68.2724 10.5451Z" fill="white"/>
<path d="M15.55 9.62823C14.0275 8.87163 13.6996 8.68833 13.6996 8.27561C13.6996 7.77113 14.3086 7.51901 15.1284 7.51901C16.0887 7.51901 17.5408 7.63348 18.9695 8.96339C19.3208 7.88584 19.9065 6.92276 20.6559 6.07439C18.6416 4.951 16.7679 4.37781 15.0581 4.37781C11.6619 4.37781 9.69453 6.16616 9.69453 8.32149C9.69453 10.1786 11.1232 11.1414 12.8096 11.9898C14.332 12.7464 14.7068 12.9988 14.7068 13.4571C14.7068 13.9616 14.0744 14.2367 13.2312 14.2367C11.7791 14.2367 10.0927 13.3427 9.08555 12.4255L8.5 15.8875C9.53057 16.6212 11.0296 17.3778 13.3015 17.3778C16.8147 17.3778 18.7119 15.6354 18.7119 13.4115C18.7119 11.5771 17.494 10.5913 15.55 9.62823Z" fill="white"/>
<path d="M45.0612 10.1094H40.3769L40.7516 7.93136H45.7638C46.4195 6.6244 47.4268 5.50096 48.668 4.65261H40.4705C38.6436 4.65261 37.0977 5.86779 36.8401 7.51865L35.2476 17.1253H39.2291L39.8851 13.2047H44.6162L44.9675 11.0725C44.9909 10.7286 45.0143 10.4304 45.0612 10.1094Z" fill="white"/>
<path d="M74.7383 4.65261C75.8158 5.45508 76.4715 6.57851 76.6121 7.93136H79.9378L78.4156 17.1024H82.3971L83.9196 7.93136H87.6203L88.159 4.65261H74.7383Z" fill="white"/>
</g>
</svg>
